<svg width="30" height="30" viewBox="0 0 30 30" fill="none" xmlns="http://www.w3.org/2000/svg">
<g clip-path="url(#clip0_18_1341)">
<path d="M22.5 10C22.3727 10 22.2447 10.0032 22.1159 10.0095C22.3651 9.1961 22.4945 8.35072 22.5 7.5C22.5 5.51088 21.7098 3.60322 20.3033 2.1967C18.8968 0.790176 16.9891 0 15 0C13.0109 0 11.1032 0.790176 9.6967 2.1967C8.29018 3.60322 7.5 5.51088 7.5 7.5C7.50551 8.35072 7.63488 9.1961 7.88406 10.0095C7.75552 10.0032 7.6275 10 7.5 10C5.51088 10 3.60322 10.7902 2.1967 12.1967C0.790176 13.6032 0 15.5109 0 17.5C0 19.4891 0.790176 21.3968 2.1967 22.8033C3.60322 24.2098 5.51088 25 7.5 25C9.16437 24.9784 10.784 24.4581 12.1495 23.5063C11.8327 25.2467 11.2409 26.5111 10.6369 27.1313C10.5025 27.2686 10.2408 27.5 10 27.5C9.66848 27.5 9.35054 27.6317 9.11612 27.8661C8.8817 28.1005 8.75 28.4185 8.75 28.75C8.75 29.0815 8.8817 29.3995 9.11612 29.6339C9.35054 29.8683 9.66848 30 10 30H20C20.3315 30 20.6495 29.8683 20.8839 29.6339C21.1183 29.3995 21.25 29.0815 21.25 28.75C21.25 28.4185 21.1183 28.1005 20.8839 27.8661C20.6495 27.6317 20.3315 27.5 20 27.5C19.8034 27.5 19.5511 27.3523 19.2894 27.0839C18.6644 26.4433 18.0516 25.1842 17.717 23.4853C19.1288 24.4473 20.7918 24.9739 22.5 25C24.4891 25 26.3968 24.2098 27.8033 22.8033C29.2098 21.3968 30 19.4891 30 17.5C30 15.5109 29.2098 13.6032 27.8033 12.1967C26.3968 10.7902 24.4891 10 22.5 10Z" fill="url(#paint0_linear_18_1341)"/>
</g>
<defs>
<linearGradient id="paint0_linear_18_1341" x1="15" y1="0" x2="15" y2="30" gradientUnits="userSpaceOnUse">
<stop stop-color="#A5DF6E"/>
<stop offset="1" stop-color="#479200"/>
</linearGradient>
<clipPath id="clip0_18_1341">
<rect width="30" height="30" fill="white"/>
</clipPath>
</defs>
</svg>
