<svg width="26" height="27" viewBox="0 0 26 27" fill="none" xmlns="http://www.w3.org/2000/svg">
<path d="M15.9048 25.9973H5.41839V25.2961C5.41839 23.288 5.89881 21.2151 6.84639 19.135C7.59536 17.4909 8.63678 15.838 9.94178 14.2224C10.8813 13.0592 11.816 12.0885 12.5875 11.3512C12.1696 11.382 11.7461 11.3976 11.3181 11.3976C9.39573 11.3976 7.54492 11.0788 5.98947 10.4892V11.8712H1V2.17949H5.98942V3.08019C7.54478 2.4905 9.39564 2.1718 11.3181 2.1718C13.2505 2.1718 14.6647 2.43261 15.9036 3.01752C16.7678 3.42557 17.721 3.58466 18.6597 3.47732C19.6019 3.36974 20.4869 2.99802 21.2188 2.40238L21.7135 1.99996L25 4.22975L24.5944 4.81222C24.5725 4.84363 22.383 8.00033 20.2244 12.1092C18.2538 15.8602 15.9047 21.1929 15.9047 25.2961V25.9973H15.9048Z" fill="#FF9D3D"/>
</svg>
