<svg width="44" height="44" viewBox="0 0 44 44" fill="none" xmlns="http://www.w3.org/2000/svg">
<path d="M40.7066 14.7441C38.9974 10.1018 35.7041 6.21196 31.4073 3.7603C27.1105 1.30864 22.0862 0.452584 17.22 1.34304C12.3538 2.2335 7.95819 4.8133 4.80805 8.62766C1.6579 12.442 -0.0445282 17.246 0.000885644 22.1928C0.0462995 27.1396 1.83664 31.9116 5.05628 35.6674C8.27593 39.4233 12.7182 41.922 17.5999 42.723C22.4816 43.5239 27.4894 42.5758 31.7404 40.0456C35.9914 37.5155 39.2128 33.5658 40.8365 28.8929L37.3642 27.6863C36.0246 31.5413 33.3672 34.7995 29.8603 36.8868C26.3534 38.974 22.2223 39.7562 18.1951 39.0954C14.1679 38.4347 10.5033 36.3734 7.84722 33.275C5.19117 30.1766 3.71423 26.2399 3.67676 22.1591C3.6393 18.0782 5.04371 14.1151 7.64243 10.9685C10.2412 7.82182 13.8673 5.69361 17.8817 4.95903C21.8961 4.22445 26.0409 4.93065 29.5855 6.95315C33.1301 8.97565 35.8469 12.1846 37.257 16.0143L40.7066 14.7441Z" fill="#EAEAEA"/>
<path d="M15.72 24.9442H19.56V27.3602H9V24.9442H12.856L12.872 19.6642C11.656 20.7362 10.168 20.7362 9 20.7362V18.3042C10.648 18.3042 12.84 18.3042 12.84 16.1602H15.72V24.9442Z" fill="#EAEAEA"/>
<path d="M31.1865 21.008C32.8025 21.584 33.5225 22.608 33.5225 24.032C33.5225 26.272 31.9385 27.52 26.9625 27.52C21.9705 27.52 20.4025 26.288 20.4025 24.032C20.4025 22.608 21.1065 21.584 22.7385 21.008C21.9385 20.528 21.5225 19.84 21.5225 18.944C21.5225 16.928 23.0905 16 26.9625 16C30.8185 16 32.4025 16.928 32.4025 18.944C32.4025 19.84 31.9865 20.528 31.1865 21.008ZM26.9625 18.08C24.7545 18.08 24.1305 18.384 24.1305 19.168C24.1305 19.952 24.7385 20.256 26.9625 20.256C29.1705 20.256 29.7945 19.952 29.7945 19.168C29.7945 18.384 29.1705 18.08 26.9625 18.08ZM26.9625 25.296C29.7785 25.296 30.6425 24.784 30.6425 23.696C30.6425 22.64 29.7945 22.128 26.9625 22.128C24.1305 22.128 23.2825 22.624 23.2825 23.696C23.2825 24.784 24.1465 25.296 26.9625 25.296Z" fill="#EAEAEA"/>
<path d="M44 21.1647V22.8353H40.77V26H39.06V22.8353H36V21.1647H39.06V18H40.77V21.1647H44Z" fill="#EAEAEA"/>
</svg>
