<svg width="30" height="30" viewBox="0 0 30 30" fill="none" xmlns="http://www.w3.org/2000/svg">
<path d="M21.6337 9.3641C16.2788 6.10623 18.7899 1.50797 18.8977 1.31684C19.0541 1.04484 19.0535 0.710215 18.8964 0.438691C18.7393 0.167168 18.4494 0 18.1357 0C15.3792 0 13.2208 0.783164 11.7202 2.32787C9.15624 4.96717 9.27518 9.075 9.32599 10.8291C9.33167 11.0235 9.33647 11.1913 9.33647 11.3161C9.33647 12.6185 9.54542 13.8209 9.72981 14.8818C9.84864 15.5654 9.95124 16.1558 9.96952 16.6199C9.98903 17.1169 9.89827 17.2307 9.89446 17.2353C9.88151 17.2507 9.77364 17.308 9.4822 17.308C9.14974 17.308 8.9047 17.1994 8.68749 16.9559C7.83929 16.0048 7.78063 13.4078 7.94282 11.995C7.97183 11.7458 7.89302 11.4962 7.7262 11.3089C7.55944 11.1217 7.32061 11.0146 7.06989 11.0146C4.78796 11.0146 3.08276 14.7463 3.08276 18.0829C3.08276 19.6513 3.39829 21.1878 4.0205 22.6496C4.62202 24.0629 5.47972 25.3382 6.57003 26.4404C8.84048 28.7358 11.8342 30 14.9996 30C18.1779 30 21.1708 28.7537 23.4272 26.4909C25.6778 24.2338 26.9173 21.2478 26.9173 18.0827C26.9173 14.0444 23.7575 10.6562 21.6337 9.3641Z" fill="url(#paint0_linear_15_845)"/>
<defs>
<linearGradient id="paint0_linear_15_845" x1="15" y1="0" x2="15" y2="30" gradientUnits="userSpaceOnUse">
<stop stop-color="#A5DF6E"/>
<stop offset="1" stop-color="#479200"/>
</linearGradient>
</defs>
</svg>
