<svg width="30" height="30" viewBox="0 0 30 30" fill="none" xmlns="http://www.w3.org/2000/svg">
<rect width="30" height="30" rx="6" fill="url(#paint0_linear_73_8139)"/>
<g clip-path="url(#clip0_73_8139)">
<path fill-rule="evenodd" clip-rule="evenodd" d="M7.41964 7.43228C7.63214 7.2172 7.92182 7.09509 8.22535 7.09509H21.7748C22.0784 7.09509 22.368 7.2172 22.5805 7.43228C22.7928 7.64712 22.9108 7.93706 22.9108 8.23795V11.6665C22.9108 11.9674 22.7928 12.2573 22.5805 12.4722C22.368 12.6873 22.0784 12.8094 21.7748 12.8094H20.8221H20.7144V10.9999C20.7144 9.57979 19.563 8.42852 18.1429 8.42852H11.8572C10.4371 8.42852 9.28578 9.57979 9.28578 10.9999V12.8094H9.17804H8.22535C7.92182 12.8094 7.63214 12.6873 7.41964 12.4722C7.20738 12.2574 7.08936 11.9674 7.08936 11.6665V8.23795C7.08936 7.93706 7.20738 7.64712 7.41964 7.43228Z" fill="white"/>
<path fill-rule="evenodd" clip-rule="evenodd" d="M10.7144 10.9999C10.7144 10.3687 11.226 9.85706 11.8572 9.85706H18.1429C18.7741 9.85706 19.2858 10.3687 19.2858 10.9999V21.7142C19.2858 22.3454 18.7741 22.8571 18.1429 22.8571H11.8572C11.226 22.8571 10.7144 22.3454 10.7144 21.7142V10.9999ZM14.1429 12.5236C14.1429 12.0502 14.5267 11.6665 15.0001 11.6665C15.4733 11.6665 15.8573 12.0501 15.8573 12.5236C15.8573 12.9971 15.4733 13.3808 15.0001 13.3808C14.5267 13.3808 14.1429 12.997 14.1429 12.5236ZM13.0001 16.3571C13.0001 15.2525 13.8955 14.3571 15.0001 14.3571C16.1046 14.3571 17.0001 15.2525 17.0001 16.3571C17.0001 17.4616 16.1046 18.3571 15.0001 18.3571C13.8955 18.3571 13.0001 17.4616 13.0001 16.3571ZM15 19.3963C14.5266 19.3963 14.1429 19.78 14.1429 20.2534C14.1429 20.7268 14.5266 21.1105 15 21.1105C15.4733 21.1105 15.8572 20.7269 15.8572 20.2534C15.8572 19.7799 15.4733 19.3963 15 19.3963Z" fill="white"/>
</g>
<defs>
<linearGradient id="paint0_linear_73_8139" x1="15" y1="0" x2="15" y2="30" gradientUnits="userSpaceOnUse">
<stop stop-color="#7843FF"/>
<stop offset="1" stop-color="#610EDE"/>
</linearGradient>
<clipPath id="clip0_73_8139">
<rect width="16" height="16" fill="white" transform="translate(7 7)"/>
</clipPath>
</defs>
</svg>
