<svg width="30" height="30" viewBox="0 0 30 30" fill="none" xmlns="http://www.w3.org/2000/svg">
<rect width="30" height="30" rx="6" fill="url(#paint0_linear_73_7810)"/>
<g clip-path="url(#clip0_73_7810)">
<mask id="mask0_73_7810" style="mask-type:luminance" maskUnits="userSpaceOnUse" x="7" y="7" width="16" height="16">
<path d="M23 7H7V23H23V7Z" fill="white"/>
</mask>
<g mask="url(#mask0_73_7810)">
<path d="M19 12.3333C18.9321 12.3333 18.8638 12.335 18.7951 12.3384C18.9281 11.9046 18.9971 11.4537 19 11C19 9.93914 18.5786 8.92172 17.8284 8.17157C17.0783 7.42143 16.0609 7 15 7C13.9391 7 12.9217 7.42143 12.1716 8.17157C11.4214 8.92172 11 9.93914 11 11C11.0029 11.4537 11.0719 11.9046 11.2048 12.3384C11.1363 12.335 11.068 12.3333 11 12.3333C9.93914 12.3333 8.92172 12.7548 8.17157 13.5049C7.42143 14.255 7 15.2725 7 16.3333C7 17.3942 7.42143 18.4116 8.17157 19.1618C8.92172 19.9119 9.93914 20.3333 11 20.3333C11.8877 20.3218 12.7515 20.0443 13.4797 19.5367C13.3108 20.4649 12.9951 21.1393 12.673 21.47C12.6013 21.5433 12.4618 21.6667 12.3333 21.6667C12.1565 21.6667 11.987 21.7369 11.8619 21.8619C11.7369 21.9869 11.6667 22.1565 11.6667 22.3333C11.6667 22.5101 11.7369 22.6797 11.8619 22.8047C11.987 22.9298 12.1565 23 12.3333 23H17.6667C17.8435 23 18.0131 22.9298 18.1381 22.8047C18.2631 22.6797 18.3333 22.5101 18.3333 22.3333C18.3333 22.1565 18.2631 21.9869 18.1381 21.8619C18.0131 21.7369 17.8435 21.6667 17.6667 21.6667C17.5618 21.6667 17.4273 21.5879 17.2877 21.4447C16.9543 21.1031 16.6275 20.4316 16.4491 19.5255C17.202 20.0386 18.089 20.3194 19 20.3333C20.0609 20.3333 21.0783 19.9119 21.8284 19.1618C22.5786 18.4116 23 17.3942 23 16.3333C23 15.2725 22.5786 14.255 21.8284 13.5049C21.0783 12.7548 20.0609 12.3333 19 12.3333Z" fill="white"/>
</g>
</g>
<defs>
<linearGradient id="paint0_linear_73_7810" x1="15" y1="0" x2="15" y2="30" gradientUnits="userSpaceOnUse">
<stop stop-color="#7843FF"/>
<stop offset="1" stop-color="#610EDE"/>
</linearGradient>
<clipPath id="clip0_73_7810">
<rect width="16" height="16" fill="white" transform="translate(7 7)"/>
</clipPath>
</defs>
</svg>
