<svg width="64" height="64" viewBox="0 0 64 64" fill="none" xmlns="http://www.w3.org/2000/svg">
<rect width="64" height="64" rx="10" fill="url(#paint0_linear_73_8416)"/>
<g clip-path="url(#clip0_73_8416)">
<path fill-rule="evenodd" clip-rule="evenodd" d="M34.2666 16.8635C34.2666 15.8576 33.4511 15.0421 32.4452 15.0421C31.4392 15.0421 30.6237 15.8576 30.6237 16.8635V18.6934C30.6237 19.6994 31.4392 20.5149 32.4452 20.5149C33.4511 20.5149 34.2666 19.6994 34.2666 18.6934V16.8635ZM31.0163 22.1112C31.8874 21.6083 33.0014 21.9068 33.5044 22.7779L42.8729 39.0047C43.3758 39.8759 43.0773 40.9898 42.2062 41.4928C41.3351 41.9958 40.2211 41.6973 39.7181 40.8262L39.5836 40.593L32.0755 42.3365C32.316 43.2207 32.3241 44.1603 32.0869 45.0621C31.7311 46.4145 30.8526 47.5703 29.6447 48.2751C28.4368 48.9798 26.9984 49.1758 25.6459 48.82C24.2934 48.4643 23.1376 47.5858 22.4329 46.3779L22.4287 46.3708L21.5152 44.7886L17.9852 45.6083C17.4646 45.729 16.9262 45.4953 16.659 45.0324L15.1798 42.4705C14.9126 42.0077 14.9794 41.4246 15.3444 41.034L30.4868 24.837L30.3496 24.5994C29.8466 23.7282 30.1451 22.6142 31.0163 22.1112ZM25.2244 43.9272L28.5189 43.1622C28.632 43.4723 28.649 43.8118 28.5639 44.1353C28.4539 44.5535 28.1823 44.9108 27.8089 45.1286C27.4354 45.3465 26.9908 45.4072 26.5726 45.2972C26.1556 45.1874 25.7991 44.9171 25.5811 44.545L25.2244 43.9272ZM48.9744 31.5711C48.9744 32.5771 48.1589 33.3925 47.153 33.3925H45.323C44.3171 33.3925 43.5016 32.5771 43.5016 31.5711C43.5016 30.5652 44.3171 29.7497 45.323 29.7497H47.153C48.1589 29.7497 48.9744 30.5652 48.9744 31.5711ZM19.5695 33.3925C20.5754 33.3925 21.3909 32.5771 21.3909 31.5711C21.3909 30.5652 20.5754 29.7497 19.5695 29.7497H17.7396C16.7336 29.7497 15.9182 30.5652 15.9182 31.5711C15.9182 32.5771 16.7336 33.3925 17.7396 33.3925H19.5695ZM24.8708 23.9982C24.1594 24.7094 23.0062 24.7094 22.2949 23.9981L20.756 22.4591C20.0447 21.7478 20.0448 20.5945 20.7561 19.8832C21.4674 19.1719 22.6207 19.172 23.332 19.8833L24.8708 21.4223C25.5821 22.1336 25.5821 23.2868 24.8708 23.9982ZM44.1335 22.4591C44.8446 21.7478 44.8446 20.5945 44.1335 19.8832C43.4222 19.1719 42.2689 19.1719 41.5575 19.8832L40.0006 21.4401C39.2893 22.1514 39.2893 23.3046 40.0006 24.016C40.7119 24.7273 41.8652 24.7273 42.5766 24.016L44.1335 22.4591Z" fill="white"/>
</g>
<defs>
<linearGradient id="paint0_linear_73_8416" x1="32" y1="0" x2="32" y2="64" gradientUnits="userSpaceOnUse">
<stop stop-color="#7843FF"/>
<stop offset="1" stop-color="#610EDE"/>
</linearGradient>
<clipPath id="clip0_73_8416">
<rect width="34" height="34" fill="white" transform="translate(15 15)"/>
</clipPath>
</defs>
</svg>
