<svg width="30" height="30" viewBox="0 0 30 30" fill="none" xmlns="http://www.w3.org/2000/svg">
<g clip-path="url(#clip0_73_7792)">
<mask id="mask0_73_7792" style="mask-type:luminance" maskUnits="userSpaceOnUse" x="0" y="0" width="30" height="30">
<path d="M30 0H0V30H30V0Z" fill="white"/>
</mask>
<g mask="url(#mask0_73_7792)">
<circle cx="15.5" cy="14.5" r="10.5" fill="white"/>
<path d="M30 15C30 14.2932 29.7544 13.602 29.3092 13.0545L28.0511 11.5043L28.3649 9.53018C28.4768 8.83163 28.3434 8.1102 27.9893 7.49886C27.6347 6.8866 27.0763 6.41098 26.4182 6.16013L24.5501 5.44464L23.8383 3.58315C23.589 2.92374 23.1141 2.36504 22.4973 2.00798C21.8829 1.65619 21.162 1.52344 20.4678 1.63422L18.4941 1.9487L16.9448 0.69191C16.3987 0.24559 15.7082 0 15 0C14.2932 0 13.602 0.24559 13.0545 0.690765L11.5043 1.94893L9.53018 1.63513C8.83163 1.52321 8.1102 1.65665 7.49886 2.01073C6.8866 2.36526 6.41098 2.92374 6.16013 3.58177L5.44464 5.44991L3.58315 6.16173C2.92374 6.41098 2.36504 6.88591 2.00798 7.50275C1.65619 8.11707 1.52344 8.83804 1.63422 9.53224L1.9487 11.5059L0.69191 13.0552C0.24559 13.6013 0 14.2918 0 15C0 15.7068 0.24559 16.398 0.690765 16.9455L1.94893 18.4957L1.63513 20.4698C1.52321 21.1684 1.65665 21.8898 2.01073 22.5011C2.36526 23.1134 2.92374 23.589 3.58177 23.8399L5.44991 24.5554L6.16173 26.4169C6.41098 27.0763 6.88591 27.635 7.50275 27.992C8.11707 28.3438 8.83804 28.4766 9.53224 28.3658L11.5059 28.0513L13.0552 29.3081C13.6013 29.7544 14.2918 30 15 30C15.7068 30 16.398 29.7544 16.9455 29.3092L18.4957 28.0511L20.4698 28.3649C21.1684 28.4768 21.8898 28.3434 22.5011 27.9893C23.1134 27.6347 23.589 27.0763 23.8399 26.4182L24.5554 24.5501L26.4169 23.8383C27.0763 23.589 27.635 23.1141 27.992 22.4973C28.3438 21.8829 28.4766 21.162 28.3658 20.4678L28.0513 18.4941L29.3081 16.9448C29.7544 16.3987 30 15.7082 30 15ZM10.7011 17.8242C10.7011 18.2213 10.435 18.569 10.0518 18.6726C9.97536 18.6932 9.89845 18.7031 9.82224 18.7031C9.5153 18.7031 9.22348 18.5419 9.06303 18.2671L7.40616 15.4269V17.8242C7.40616 18.3096 7.01271 18.7031 6.52725 18.7031C6.04202 18.7031 5.64835 18.3096 5.64835 17.8242V12.1758C5.64835 11.7787 5.91476 11.431 6.29791 11.3274C6.68129 11.2237 7.08641 11.3898 7.28645 11.7329L8.94333 14.5734V12.1758C8.94333 11.6904 9.33678 11.2969 9.82224 11.2969C10.3077 11.2969 10.7011 11.6904 10.7011 12.1758V17.8242ZM15 14.1211C15.4855 14.1211 15.8789 14.5145 15.8789 15C15.8789 15.4855 15.4855 15.8789 15 15.8789H13.5253V16.9453H15.4706C15.956 16.9453 16.3495 17.3387 16.3495 17.8242C16.3495 18.3096 15.956 18.7031 15.4706 18.7031H12.6464C12.1612 18.7031 11.7675 18.3096 11.7675 17.8242V12.1758C11.7675 11.6904 12.1612 11.2969 12.6464 11.2969H15.4706C15.956 11.2969 16.3495 11.6904 16.3495 12.1758C16.3495 12.6613 15.956 13.0547 15.4706 13.0547H13.5253V14.1211H15ZM24.8083 12.3322L23.7868 17.9805C23.749 18.1895 23.5247 18.7031 22.9214 18.7031C22.554 18.7031 22.2217 18.4731 22.0951 18.1224L20.8827 14.7626L19.6674 18.1231C19.5321 18.4969 19.1634 18.7335 18.7667 18.6999C18.3705 18.6665 18.0464 18.3712 17.9759 17.9798L16.9592 12.3315C16.8732 11.8538 17.1909 11.3967 17.6685 11.3107C18.146 11.2248 18.6031 11.5423 18.6891 12.02L19.1265 14.45L20.0574 11.8767C20.1833 11.5288 20.5138 11.2969 20.8836 11.2969C21.2539 11.2969 21.5849 11.5292 21.7106 11.8774L22.6389 14.4502L23.0784 12.0193C23.1649 11.5416 23.6222 11.2246 24.0999 11.3109C24.5773 11.3974 24.8946 11.8545 24.8083 12.3322Z" fill="url(#paint0_linear_73_7792)"/>
</g>
</g>
<defs>
<linearGradient id="paint0_linear_73_7792" x1="15" y1="0" x2="15" y2="30" gradientUnits="userSpaceOnUse">
<stop stop-color="#7843FF"/>
<stop offset="1" stop-color="#610EDE"/>
</linearGradient>
<clipPath id="clip0_73_7792">
<rect width="30" height="30" fill="white"/>
</clipPath>
</defs>
</svg>
