<svg width="30" height="30" viewBox="0 0 30 30" fill="none" xmlns="http://www.w3.org/2000/svg">
<rect width="30" height="30" rx="6" fill="url(#paint0_linear_73_7766)"/>
<path d="M16.9365 23H9.94559V22.5325C9.94559 21.1936 10.2659 19.8115 10.8976 18.4247C11.3969 17.3284 12.0912 16.2264 12.9612 15.1492C13.5876 14.3737 14.2107 13.7264 14.725 13.2348C14.4464 13.2554 14.1641 13.2657 13.8788 13.2657C12.5972 13.2657 11.3633 13.0532 10.3263 12.6601V13.5815H7V7.1197H10.3263V7.72023C11.3632 7.32707 12.5971 7.11457 13.8787 7.11457C15.167 7.11457 16.1098 7.28847 16.9358 7.67845C17.5119 7.95051 18.1473 8.05658 18.7731 7.98501C19.4013 7.91329 19.9913 7.66545 20.4792 7.26831L20.809 7L23 8.48669L22.7296 8.87505C22.7151 8.89599 21.2553 11.0007 19.8162 13.7402C18.5025 16.2412 16.9365 19.7967 16.9365 22.5324V23Z" fill="white"/>
<defs>
<linearGradient id="paint0_linear_73_7766" x1="15" y1="0" x2="15" y2="30" gradientUnits="userSpaceOnUse">
<stop stop-color="#7843FF"/>
<stop offset="1" stop-color="#610EDE"/>
</linearGradient>
</defs>
</svg>
