<svg width="80" height="32" viewBox="0 0 80 32" fill="none" xmlns="http://www.w3.org/2000/svg">
<path d="M8.16685 14.82C6.66018 14.82 5.30685 14.5067 4.10685 13.88C2.90685 13.2533 1.96685 12.3867 1.28685 11.28C0.606846 10.16 0.266846 8.89999 0.266846 7.49999C0.266846 6.09999 0.606846 4.84666 1.28685 3.73999C1.96685 2.61999 2.90685 1.74666 4.10685 1.11999C5.30685 0.493326 6.66018 0.179993 8.16685 0.179993C9.67351 0.179993 11.0268 0.493326 12.2268 1.11999C13.4268 1.74666 14.3668 2.61999 15.0468 3.73999C15.7268 4.84666 16.0668 6.09999 16.0668 7.49999C16.0668 8.89999 15.7268 10.16 15.0468 11.28C14.3668 12.3867 13.4268 13.2533 12.2268 13.88C11.0268 14.5067 9.67351 14.82 8.16685 14.82ZM8.16685 11C8.75351 11 9.28018 10.86 9.74685 10.58C10.2268 10.2867 10.6068 9.87999 10.8868 9.35999C11.1668 8.82666 11.3068 8.20666 11.3068 7.49999C11.3068 6.79333 11.1668 6.17999 10.8868 5.65999C10.6068 5.12666 10.2268 4.71999 9.74685 4.43999C9.28018 4.14666 8.75351 3.99999 8.16685 3.99999C7.58018 3.99999 7.04685 4.14666 6.56685 4.43999C6.10018 4.71999 5.72685 5.12666 5.44685 5.65999C5.16685 6.17999 5.02685 6.79333 5.02685 7.49999C5.02685 8.20666 5.16685 8.82666 5.44685 9.35999C5.72685 9.87999 6.10018 10.2867 6.56685 10.58C7.04685 10.86 7.58018 11 8.16685 11Z" fill="url(#paint0_linear_18_1348)"/>
<path d="M16.98 0.499992H21.7V10.84H28.02V14.5H16.98V0.499992Z" fill="url(#paint1_linear_18_1348)"/>
<path d="M28.5237 0.499992H33.2437V14.5H28.5237V0.499992Z" fill="url(#paint2_linear_18_1348)"/>
<path d="M49.6759 0.499992L43.7559 14.5H39.1159L33.1959 0.499992H38.2759L41.6159 8.67999L45.0359 0.499992H49.6759Z" fill="url(#paint3_linear_18_1348)"/>
<path d="M60.9856 10.94V14.5H49.3456V0.499992H60.7256V4.05999H53.9856V5.69999H59.9056V9.09999H53.9856V10.94H60.9856Z" fill="url(#paint4_linear_18_1348)"/>
<path d="M68.0026 10.98H66.7226V14.5H62.0026V0.499992H68.7426C70.036 0.499992 71.1626 0.713326 72.1226 1.13999C73.0826 1.56666 73.8226 2.17999 74.3426 2.97999C74.8626 3.77999 75.1226 4.71333 75.1226 5.77999C75.1226 6.77999 74.896 7.65333 74.4426 8.39999C73.9893 9.14666 73.336 9.73999 72.4826 10.18L75.4226 14.5H70.3826L68.0026 10.98ZM70.3626 5.77999C70.3626 5.25999 70.2026 4.85999 69.8826 4.57999C69.5626 4.28666 69.0826 4.13999 68.4426 4.13999H66.7226V7.41999H68.4426C69.0826 7.41999 69.5626 7.27999 69.8826 6.99999C70.2026 6.70666 70.3626 6.29999 70.3626 5.77999Z" fill="url(#paint5_linear_18_1348)"/>
<path d="M8.72153 31.82C7.24153 31.82 5.9082 31.5133 4.72153 30.9C3.53487 30.2733 2.60153 29.4067 1.92153 28.3C1.25486 27.18 0.921532 25.9133 0.921532 24.5C0.921532 23.0867 1.25486 21.8267 1.92153 20.72C2.60153 19.6 3.53487 18.7333 4.72153 18.12C5.9082 17.4933 7.24153 17.18 8.72153 17.18C10.0815 17.18 11.2949 17.42 12.3615 17.9C13.4282 18.38 14.3082 19.0733 15.0015 19.98L12.0215 22.64C11.1549 21.5467 10.1349 21 8.96153 21C7.97487 21 7.18153 21.32 6.58153 21.96C5.98153 22.5867 5.68153 23.4333 5.68153 24.5C5.68153 25.5667 5.98153 26.42 6.58153 27.06C7.18153 27.6867 7.97487 28 8.96153 28C10.1349 28 11.1549 27.4533 12.0215 26.36L15.0015 29.02C14.3082 29.9267 13.4282 30.62 12.3615 31.1C11.2949 31.58 10.0815 31.82 8.72153 31.82Z" fill="url(#paint6_linear_18_1348)"/>
<path d="M24.909 29.06H19.589L18.649 31.5H13.849L19.969 17.5H24.609L30.729 31.5H25.849L24.909 29.06ZM23.609 25.66L22.249 22.14L20.889 25.66H23.609Z" fill="url(#paint7_linear_18_1348)"/>
<path d="M35.9023 31.82C34.7423 31.82 33.609 31.6933 32.5023 31.44C31.409 31.1733 30.509 30.82 29.8023 30.38L31.3223 26.94C31.989 27.3267 32.7356 27.64 33.5623 27.88C34.389 28.1067 35.1823 28.22 35.9423 28.22C36.5956 28.22 37.0623 28.16 37.3423 28.04C37.6223 27.9067 37.7623 27.7133 37.7623 27.46C37.7623 27.1667 37.5756 26.9467 37.2023 26.8C36.8423 26.6533 36.2423 26.4933 35.4023 26.32C34.3223 26.0933 33.4223 25.8533 32.7023 25.6C31.9823 25.3333 31.3556 24.9067 30.8223 24.32C30.289 23.72 30.0223 22.9133 30.0223 21.9C30.0223 21.02 30.269 20.22 30.7623 19.5C31.2556 18.78 31.989 18.2133 32.9623 17.8C33.949 17.3867 35.1423 17.18 36.5423 17.18C37.5023 17.18 38.4423 17.2867 39.3623 17.5C40.2956 17.7 41.1156 18 41.8223 18.4L40.4023 21.82C39.029 21.1267 37.729 20.78 36.5023 20.78C35.289 20.78 34.6823 21.0733 34.6823 21.66C34.6823 21.94 34.8623 22.1533 35.2223 22.3C35.5823 22.4333 36.1756 22.58 37.0023 22.74C38.069 22.94 38.969 23.1733 39.7023 23.44C40.4356 23.6933 41.069 24.1133 41.6023 24.7C42.149 25.2867 42.4223 26.0867 42.4223 27.1C42.4223 27.98 42.1756 28.78 41.6823 29.5C41.189 30.2067 40.449 30.7733 39.4623 31.2C38.489 31.6133 37.3023 31.82 35.9023 31.82Z" fill="url(#paint8_linear_18_1348)"/>
<path d="M43.0268 17.5H47.7468V31.5H43.0268V17.5Z" fill="url(#paint9_linear_18_1348)"/>
<path d="M63.019 17.5V31.5H59.139L53.819 25.14V31.5H49.219V17.5H53.099L58.419 23.86V17.5H63.019Z" fill="url(#paint10_linear_18_1348)"/>
<path d="M71.8333 31.82C70.3266 31.82 68.9733 31.5067 67.7733 30.88C66.5733 30.2533 65.6332 29.3867 64.9532 28.28C64.2732 27.16 63.9333 25.9 63.9333 24.5C63.9333 23.1 64.2732 21.8467 64.9532 20.74C65.6332 19.62 66.5733 18.7467 67.7733 18.12C68.9733 17.4933 70.3266 17.18 71.8333 17.18C73.3399 17.18 74.6933 17.4933 75.8932 18.12C77.0932 18.7467 78.0332 19.62 78.7132 20.74C79.3932 21.8467 79.7333 23.1 79.7333 24.5C79.7333 25.9 79.3932 27.16 78.7132 28.28C78.0332 29.3867 77.0932 30.2533 75.8932 30.88C74.6933 31.5067 73.3399 31.82 71.8333 31.82ZM71.8333 28C72.4199 28 72.9466 27.86 73.4133 27.58C73.8933 27.2867 74.2733 26.88 74.5533 26.36C74.8333 25.8267 74.9733 25.2067 74.9733 24.5C74.9733 23.7933 74.8333 23.18 74.5533 22.66C74.2733 22.1267 73.8933 21.72 73.4133 21.44C72.9466 21.1467 72.4199 21 71.8333 21C71.2466 21 70.7133 21.1467 70.2333 21.44C69.7666 21.72 69.3932 22.1267 69.1133 22.66C68.8333 23.18 68.6933 23.7933 68.6933 24.5C68.6933 25.2067 68.8333 25.8267 69.1133 26.36C69.3932 26.88 69.7666 27.2867 70.2333 27.58C70.7133 27.86 71.2466 28 71.8333 28Z" fill="url(#paint11_linear_18_1348)"/>
<defs>
<linearGradient id="paint0_linear_18_1348" x1="40" y1="0.179993" x2="40" y2="31.82" gradientUnits="userSpaceOnUse">
<stop stop-color="#A5DF6E"/>
<stop offset="1" stop-color="#479200"/>
</linearGradient>
<linearGradient id="paint1_linear_18_1348" x1="40" y1="0.179993" x2="40" y2="31.82" gradientUnits="userSpaceOnUse">
<stop stop-color="#A5DF6E"/>
<stop offset="1" stop-color="#479200"/>
</linearGradient>
<linearGradient id="paint2_linear_18_1348" x1="40" y1="0.179993" x2="40" y2="31.82" gradientUnits="userSpaceOnUse">
<stop stop-color="#A5DF6E"/>
<stop offset="1" stop-color="#479200"/>
</linearGradient>
<linearGradient id="paint3_linear_18_1348" x1="40" y1="0.179993" x2="40" y2="31.82" gradientUnits="userSpaceOnUse">
<stop stop-color="#A5DF6E"/>
<stop offset="1" stop-color="#479200"/>
</linearGradient>
<linearGradient id="paint4_linear_18_1348" x1="40" y1="0.179993" x2="40" y2="31.82" gradientUnits="userSpaceOnUse">
<stop stop-color="#A5DF6E"/>
<stop offset="1" stop-color="#479200"/>
</linearGradient>
<linearGradient id="paint5_linear_18_1348" x1="40" y1="0.179993" x2="40" y2="31.82" gradientUnits="userSpaceOnUse">
<stop stop-color="#A5DF6E"/>
<stop offset="1" stop-color="#479200"/>
</linearGradient>
<linearGradient id="paint6_linear_18_1348" x1="40" y1="0.179993" x2="40" y2="31.82" gradientUnits="userSpaceOnUse">
<stop stop-color="#A5DF6E"/>
<stop offset="1" stop-color="#479200"/>
</linearGradient>
<linearGradient id="paint7_linear_18_1348" x1="40" y1="0.179993" x2="40" y2="31.82" gradientUnits="userSpaceOnUse">
<stop stop-color="#A5DF6E"/>
<stop offset="1" stop-color="#479200"/>
</linearGradient>
<linearGradient id="paint8_linear_18_1348" x1="40" y1="0.179993" x2="40" y2="31.82" gradientUnits="userSpaceOnUse">
<stop stop-color="#A5DF6E"/>
<stop offset="1" stop-color="#479200"/>
</linearGradient>
<linearGradient id="paint9_linear_18_1348" x1="40" y1="0.179993" x2="40" y2="31.82" gradientUnits="userSpaceOnUse">
<stop stop-color="#A5DF6E"/>
<stop offset="1" stop-color="#479200"/>
</linearGradient>
<linearGradient id="paint10_linear_18_1348" x1="40" y1="0.179993" x2="40" y2="31.82" gradientUnits="userSpaceOnUse">
<stop stop-color="#A5DF6E"/>
<stop offset="1" stop-color="#479200"/>
</linearGradient>
<linearGradient id="paint11_linear_18_1348" x1="40" y1="0.179993" x2="40" y2="31.82" gradientUnits="userSpaceOnUse">
<stop stop-color="#A5DF6E"/>
<stop offset="1" stop-color="#479200"/>
</linearGradient>
</defs>
</svg>
