<svg width="64" height="64" viewBox="0 0 64 64" fill="none" xmlns="http://www.w3.org/2000/svg">
<path d="M46.1899 26.8501H49.9999C50.28 26.8514 50.5571 26.9082 50.8151 27.0172C51.0732 27.1262 51.307 27.2852 51.5032 27.4851C51.6994 27.6851 51.8541 27.9219 51.9582 28.1819C52.0623 28.4419 52.1139 28.72 52.1099 29.0001V37.2901C52.0969 37.8419 51.8692 38.3669 51.4752 38.7535C51.0812 39.14 50.5519 39.3576 49.9999 39.3601H44.4299" stroke="white" stroke-width="2" stroke-linecap="round" stroke-linejoin="round"/>
<path d="M55.7701 33.12C55.7701 33.451 55.7049 33.7787 55.5783 34.0844C55.4516 34.3901 55.266 34.6679 55.032 34.902C54.798 35.136 54.5202 35.3216 54.2145 35.4482C53.9087 35.5749 53.581 35.64 53.2501 35.64C52.8543 35.6397 52.464 35.5473 52.1101 35.37V30.87C52.464 30.6928 52.8543 30.6004 53.2501 30.6C53.4523 30.5975 53.6539 30.621 53.8501 30.67C54.3974 30.806 54.8836 31.1209 55.2315 31.5648C55.5793 32.0087 55.7689 32.5561 55.7701 33.12Z" stroke="white" stroke-width="2" stroke-linecap="round" stroke-linejoin="round"/>
<path d="M53.8501 20.75V30.34" stroke="white" stroke-width="2" stroke-linecap="round" stroke-linejoin="round"/>
<path d="M53.8501 20.75C55.2418 20.75 56.3701 19.6217 56.3701 18.23C56.3701 16.8382 55.2418 15.71 53.8501 15.71C52.4583 15.71 51.3301 16.8382 51.3301 18.23C51.3301 19.6217 52.4583 20.75 53.8501 20.75Z" stroke="white" stroke-width="2" stroke-linecap="round" stroke-linejoin="round"/>
<path d="M17.9399 32.6399C25.3958 32.6399 31.4399 26.5957 31.4399 19.1399C31.4399 11.684 25.3958 5.63989 17.9399 5.63989C10.4841 5.63989 4.43994 11.684 4.43994 19.1399C4.43994 26.5957 10.4841 32.6399 17.9399 32.6399Z" fill="#EAAE18"/>
<path d="M25.11 21.8401H14.77V39.3701H25.11V21.8401Z" stroke="white" stroke-width="2" stroke-linecap="round" stroke-linejoin="round"/>
<path d="M35.4401 21.8401H25.1001V39.3701H35.4401V21.8401Z" stroke="white" stroke-width="2" stroke-linecap="round" stroke-linejoin="round"/>
<path d="M45.7799 21.8401H35.4399V39.3701H45.7799V21.8401Z" stroke="white" stroke-width="2" stroke-linecap="round" stroke-linejoin="round"/>
<path d="M45.9199 16.4399H14.6299C13.5474 16.4399 12.6699 17.3175 12.6699 18.3999V19.8799C12.6699 20.9624 13.5474 21.8399 14.6299 21.8399H45.9199C47.0024 21.8399 47.8799 20.9624 47.8799 19.8799V18.3999C47.8799 17.3175 47.0024 16.4399 45.9199 16.4399Z" stroke="white" stroke-width="2" stroke-linecap="round" stroke-linejoin="round"/>
<path d="M41.29 12H39C38.8897 11.9959 38.7845 11.9521 38.7037 11.8769C38.623 11.8016 38.5719 11.6998 38.56 11.59C38.18 9.30001 34.63 7.51001 30.3 7.51001C25.97 7.51001 22.4 9.25001 22 11.54C21.9858 11.6506 21.9328 11.7526 21.8504 11.8277C21.7679 11.9028 21.6615 11.9462 21.55 11.95H19.26C18.0692 11.95 16.9271 12.4231 16.0851 13.2651C15.2431 14.1071 14.77 15.2492 14.77 16.44H45.77C45.7569 15.2596 45.2794 14.1319 44.4409 13.3009C43.6025 12.4699 42.4705 12.0026 41.29 12Z" stroke="white" stroke-width="2" stroke-linecap="round" stroke-linejoin="round"/>
<path d="M25.8301 15.1601C25.8327 14.7348 26.0035 14.3278 26.3052 14.0281C26.6068 13.7283 27.0148 13.5601 27.4401 13.5601H33.1101C33.5344 13.5601 33.9414 13.7286 34.2414 14.0287C34.5415 14.3287 34.7101 14.7357 34.7101 15.1601" stroke="white" stroke-width="2" stroke-linecap="round" stroke-linejoin="round"/>
<path d="M18.8899 28.73H20.9799L19.4999 32.19" stroke="white" stroke-width="2" stroke-linecap="round" stroke-linejoin="round"/>
<path d="M29.3601 28.73H31.4501L29.9701 32.19" stroke="white" stroke-width="2" stroke-linecap="round" stroke-linejoin="round"/>
<path d="M39.5601 28.73H41.6501L40.1701 32.19" stroke="white" stroke-width="2" stroke-linecap="round" stroke-linejoin="round"/>
<path d="M45.8799 39.5901L48.8799 43.8301H11.6699L14.6699 39.5901" stroke="white" stroke-width="2" stroke-linecap="round" stroke-linejoin="round"/>
<path d="M48.8799 43.8301L47.8799 57.3601H12.6699L11.6699 43.8301" stroke="white" stroke-width="2" stroke-linecap="round" stroke-linejoin="round"/>
<path d="M38.1399 56.49C38.1399 55.7606 37.8502 55.0612 37.3345 54.5454C36.8187 54.0297 36.1193 53.74 35.3899 53.74H25.1499C24.4223 53.7426 23.7254 54.0335 23.2118 54.549C22.6983 55.0644 22.4099 55.7624 22.4099 56.49" stroke="white" stroke-width="2" stroke-linecap="round" stroke-linejoin="round"/>
<path d="M16.45 49.23H44.09" stroke="white" stroke-width="2" stroke-linecap="round" stroke-linejoin="round"/>
</svg>
