<svg width="65" height="64" viewBox="0 0 65 64" fill="none" xmlns="http://www.w3.org/2000/svg">
<path d="M44.4768 58.72C51.9327 58.72 57.9768 52.6758 57.9768 45.22C57.9768 37.7641 51.9327 31.72 44.4768 31.72C37.021 31.72 30.9768 37.7641 30.9768 45.22C30.9768 52.6758 37.021 58.72 44.4768 58.72Z" fill="#EAAE18"/>
<path d="M24.8767 48.8401V50.8001" stroke="white" stroke-width="2" stroke-linecap="round" stroke-linejoin="round"/>
<path d="M32.7068 48.8401V50.8001" stroke="white" stroke-width="2" stroke-linecap="round" stroke-linejoin="round"/>
<path d="M40.5369 48.8401V50.8001" stroke="white" stroke-width="2" stroke-linecap="round" stroke-linejoin="round"/>
<path d="M24.8767 13.2V15.16" stroke="white" stroke-width="2" stroke-linecap="round" stroke-linejoin="round"/>
<path d="M32.7068 13.2V15.16" stroke="white" stroke-width="2" stroke-linecap="round" stroke-linejoin="round"/>
<path d="M40.5369 13.2V15.16" stroke="white" stroke-width="2" stroke-linecap="round" stroke-linejoin="round"/>
<path d="M42.1068 13.2H23.2968C12.9139 13.2 4.49683 21.617 4.49683 32V32.0099C4.49683 42.3929 12.9139 50.81 23.2968 50.81H42.1068C52.4898 50.81 60.9068 42.3929 60.9068 32.0099V32C60.9068 21.617 52.4898 13.2 42.1068 13.2Z" stroke="white" stroke-width="2" stroke-linecap="round" stroke-linejoin="round"/>
<path d="M41.4868 18.8301H23.9168C16.6432 18.8301 10.7468 24.7265 10.7468 32.0001C10.7468 39.2737 16.6432 45.1701 23.9168 45.1701H41.4868C48.7604 45.1701 54.6568 39.2737 54.6568 32.0001C54.6568 24.7265 48.7604 18.8301 41.4868 18.8301Z" stroke="white" stroke-width="2" stroke-linecap="round" stroke-linejoin="round"/>
<path d="M39.6269 18.8301L36.7569 21.7901H28.6469L25.7869 18.8301" stroke="white" stroke-width="2" stroke-linecap="round" stroke-linejoin="round"/>
<path d="M25.7468 45.17L28.6068 42.21H36.7268L39.5868 45.17" stroke="white" stroke-width="2" stroke-linecap="round" stroke-linejoin="round"/>
<path d="M23.0067 29.1799H18.8567V35.3299H23.0067V29.1799Z" stroke="white" stroke-width="2" stroke-linecap="round" stroke-linejoin="round"/>
<path d="M46.5467 29.1799H42.3967V35.3299H46.5467V29.1799Z" stroke="white" stroke-width="2" stroke-linecap="round" stroke-linejoin="round"/>
<path d="M34.9868 27.51H30.4168C30.0413 27.51 29.7368 27.8145 29.7368 28.19V36.32C29.7368 36.6956 30.0413 37 30.4168 37H34.9868C35.3624 37 35.6668 36.6956 35.6668 36.32V28.19C35.6668 27.8145 35.3624 27.51 34.9868 27.51Z" stroke="white" stroke-width="2" stroke-linecap="round" stroke-linejoin="round"/>
</svg>
