<svg width="169" height="73" viewBox="0 0 169 73" fill="none" xmlns="http://www.w3.org/2000/svg">
<path d="M5.926 42.0904H0V66.3494H5.926V56.5764L12.996 66.3494H19.789L10.535 53.6994L19.615 42.0894H12.996L5.926 51.4474V42.0904ZM27.482 48.1544H21.695V66.3494H27.482V48.1544ZM24.537 47.0464C26.373 47.0464 27.794 45.7294 27.794 43.9264C27.794 42.0904 26.373 40.7734 24.537 40.7734C22.7 40.7734 21.313 42.0904 21.313 43.9264C21.313 45.7294 22.7 47.0464 24.537 47.0464ZM41.4831 66.3494H47.2711V56.2644C47.2711 52.5564 46.7161 47.7044 41.0331 47.7044C38.7451 47.7044 37.1511 48.9514 36.458 50.0264V48.1534H30.808V66.3484H36.5971V55.5024C36.5971 54.0464 37.4981 52.9024 39.0921 52.9024C40.4781 52.9024 41.4831 53.8034 41.4831 55.5024V66.3494ZM62.9701 65.4134C62.9701 67.6314 60.8211 68.1164 58.6731 68.1164C56.2121 68.1164 54.1671 67.2504 53.6471 67.0084L51.9491 71.4434C53.5781 72.2754 56.1081 73.0034 58.6731 73.0034C64.0791 73.0034 68.7581 70.8894 68.7581 64.1664V48.1534H63.3511V49.5754C62.8321 48.9854 61.0991 47.7034 58.4301 47.7034C53.1971 47.7034 49.5231 51.6534 49.5231 57.2334C49.5231 62.8834 52.8511 66.7984 58.1181 66.7984C60.8911 66.7984 62.5891 65.4124 62.9701 64.9624V65.4134ZM63.1441 57.2004C63.1441 60.0764 61.5151 61.7054 59.2271 61.7054C56.8701 61.7054 55.3111 59.8684 55.3111 57.2004C55.3111 54.4974 56.8701 52.7994 59.1931 52.7994C61.6881 52.7994 63.1441 54.7754 63.1441 57.2004ZM87.9231 55.5024C87.9231 53.9424 88.7891 52.9024 90.1411 52.9024C91.5271 52.9024 92.3591 53.8724 92.3591 55.5024V66.3494H98.1461V54.2544C98.1461 50.4074 96.1711 47.7044 91.9771 47.7044C89.6211 47.7044 87.9231 48.6744 86.8131 50.0954C85.8431 48.6054 84.2491 47.7044 82.1001 47.7044C79.6741 47.7044 78.2191 48.9174 77.5951 50.0264V48.1534H71.9461V66.3484H77.7331V55.5024C77.7331 53.8384 78.6001 52.9024 79.9521 52.9024C81.3381 52.9024 82.1351 53.8724 82.1351 55.5024V66.3494H87.9231V55.5024ZM100.364 60.7004C100.364 64.6504 103.552 66.8004 107.122 66.8004C108.993 66.8004 110.31 66.2804 111.246 65.3444L111.558 66.3494H116.722V55.0864C116.722 50.9274 115.127 47.7044 108.855 47.7044C105.84 47.7044 103.379 48.6744 101.439 49.9574L103.587 53.8384C105.008 53.1454 106.568 52.6944 108.162 52.6944C110.033 52.6944 110.934 53.5614 110.934 54.6704V55.3284C110.275 55.0514 109.028 54.6704 107.434 54.6704C103.136 54.6704 100.364 57.0614 100.364 60.7004ZM106.152 60.4924C106.152 59.3144 107.191 58.5524 108.578 58.5524C109.964 58.5524 111.038 59.2444 111.038 60.4924C111.038 61.7054 109.998 62.3634 108.612 62.3634C107.261 62.3634 106.152 61.7054 106.152 60.4924ZM137.03 48.1544H130.549L125.628 55.4674V41.2934H119.841V66.3494H125.628V57.8594L130.723 66.3494H137.515L131.173 56.4724L137.03 48.1544ZM156.16 58.7594C156.195 58.3434 156.195 57.9624 156.195 57.6164C156.195 51.4124 153.041 47.7044 147.254 47.7044C141.917 47.7044 138.312 51.9674 138.312 57.3044C138.312 62.6754 141.986 66.7994 147.982 66.7994C152.695 66.7994 155.19 63.8544 155.71 62.7794L151.898 59.8344C151.551 60.3544 150.269 61.7744 148.086 61.7744C145.937 61.7744 144.377 60.3884 144.239 58.7594H156.16ZM147.358 52.3824C149.16 52.3824 150.234 53.6304 150.304 55.0864H144.412C144.551 53.8044 145.452 52.3824 147.358 52.3824ZM168.983 47.7044C166.731 47.7044 165.032 48.8134 164.166 50.5814V48.1534H158.517V66.3484H164.304V58.3084C164.304 55.5704 165.24 53.5254 168.047 53.5254C168.463 53.5254 168.74 53.5604 168.983 53.5954V47.7044Z" fill="#EDE9F2"/>
<path fill-rule="evenodd" clip-rule="evenodd" d="M106.284 11.2458C106.208 11.4868 106.31 11.3158 106.117 11.5508L102.957 14.7048C101.847 15.8468 100.672 16.9248 98.4906 16.9318C95.2166 16.9418 94.0346 14.7258 92.5296 12.7558C91.9896 12.0488 91.6196 11.4818 91.1296 10.8428C90.1296 9.53481 89.2076 8.28981 88.2306 6.99381C88.0546 6.76081 87.5356 6.12481 87.5106 5.98181C87.4982 5.91706 87.5059 5.85008 87.5326 5.78981C87.8753 5.39867 88.1141 4.92749 88.2267 4.41975C88.3393 3.91202 88.3222 3.38409 88.177 2.88471C88.0317 2.38532 87.763 1.93057 87.3956 1.56243C87.0283 1.1943 86.5741 0.924633 86.075 0.778336C85.576 0.632039 85.0481 0.613824 84.5401 0.725371C84.0321 0.836918 83.5604 1.07463 83.1686 1.41657C82.7767 1.75851 82.4773 2.19366 82.298 2.68184C82.1187 3.17003 82.0652 3.69552 82.1426 4.20981C82.1806 4.58981 82.2776 4.84981 82.4126 5.08781C82.5356 5.34581 82.6946 5.58481 82.8826 5.79781L82.9666 5.92881C82.9946 6.09081 79.4036 10.7318 79.1756 11.0408L76.3056 14.8538C74.2046 17.2708 71.0896 17.6358 68.5256 15.7068L65.1796 12.3718C64.9076 12.1058 64.2946 11.5938 64.1286 11.2458C64.1529 11.1977 64.181 11.1515 64.2126 11.1078C64.6612 10.6876 64.9745 10.1433 65.1127 9.54439C65.2509 8.94545 65.2077 8.31892 64.9886 7.74463C64.7695 7.17033 64.3844 6.67426 63.8823 6.31961C63.3803 5.96496 62.784 5.76777 62.1695 5.75318C61.555 5.73859 60.95 5.90725 60.4317 6.23768C59.9134 6.5681 59.5052 7.04534 59.259 7.60859C59.0129 8.17184 58.94 8.79561 59.0496 9.40043C59.1592 10.0053 59.4464 10.5638 59.8746 11.0048C59.9746 11.1148 60.0746 11.2018 60.1746 11.2758C60.4496 11.4948 60.7626 11.6668 61.1026 11.7818L61.1656 11.8208C61.2816 12.7168 63.2106 20.3648 63.5656 21.6578C64.4496 24.8778 64.2706 25.9388 65.4806 26.2618H101.027L101.581 26.2608L102.045 26.2618H104.609C105.42 26.1578 105.886 25.8018 106.159 24.7468L107.369 19.8218C107.802 18.3538 108.874 14.1238 109.213 12.4718C109.315 11.9768 109.254 11.8698 109.376 11.7688C110.063 11.5244 110.642 11.0453 111.01 10.4158C111.379 9.78641 111.514 9.04705 111.391 8.32808C111.267 7.60911 110.895 6.95667 110.337 6.48574C109.78 6.0148 109.075 5.7556 108.346 5.75381C107.789 5.75339 107.243 5.90308 106.764 6.18713C106.285 6.47117 105.892 6.87905 105.626 7.36781L105.623 7.37381L105.62 7.37881C105.365 7.83495 105.231 8.34894 105.231 8.87157C105.231 9.39421 105.366 9.90801 105.622 10.3638C105.734 10.5628 105.82 10.6938 105.947 10.8328L106.284 11.2458ZM66.3606 29.4768H104.196C105.051 29.4768 105.752 30.1768 105.752 31.0328V34.4448C105.752 35.2998 105.052 35.9998 104.196 35.9998H66.3606C65.9484 35.9985 65.5535 35.8341 65.2621 35.5425C64.9708 35.251 64.8066 34.856 64.8056 34.4438V31.0338C64.8056 30.1778 65.5056 29.4768 66.3606 29.4768Z" fill="#FF6B01"/>
<path fill-rule="evenodd" clip-rule="evenodd" d="M106.284 10.5954C106.208 10.8364 106.31 10.6654 106.117 10.9004L102.957 14.0544C101.847 15.1964 100.672 16.2744 98.4906 16.2804C95.2166 16.2914 94.0346 14.0754 92.5296 12.1054C91.9896 11.3984 91.6196 10.8314 91.1296 10.1934C90.1296 8.88342 89.2076 7.63942 88.2306 6.34342C88.0546 6.10942 87.5356 5.47342 87.5106 5.33042C87.4984 5.26599 87.5061 5.19939 87.5326 5.13942C87.8753 4.74828 88.1141 4.2771 88.2267 3.76936C88.3393 3.26162 88.3222 2.7337 88.177 2.23432C88.0317 1.73493 87.763 1.28018 87.3956 0.912044C87.0283 0.543906 86.5741 0.274242 86.075 0.127945C85.576 -0.0183513 85.0481 -0.0365669 84.5401 0.07498C84.0321 0.186527 83.5604 0.424242 83.1686 0.766182C82.7767 1.10812 82.4773 1.54327 82.298 2.03145C82.1187 2.51964 82.0652 3.04513 82.1426 3.55942C82.1806 3.93942 82.2776 4.19942 82.4126 4.43742C82.5356 4.69642 82.6946 4.93442 82.8826 5.14742C82.9096 5.18942 82.9386 5.23242 82.9666 5.27942C82.9946 5.44042 79.4036 10.0814 79.1756 10.3894L76.3056 14.2034C74.2046 16.6204 71.0896 16.9844 68.5256 15.0574L65.1796 11.7204C64.9076 11.4554 64.2946 10.9434 64.1286 10.5954C64.1516 10.5494 64.1796 10.5044 64.2126 10.4574C64.6612 10.0372 64.9745 9.49294 65.1127 8.894C65.2509 8.29506 65.2077 7.66853 64.9886 7.09424C64.7695 6.51994 64.3844 6.02387 63.8823 5.66922C63.3803 5.31456 62.784 5.11738 62.1695 5.10279C61.555 5.0882 60.95 5.25686 60.4317 5.58729C59.9134 5.91771 59.5052 6.39495 59.259 6.9582C59.0129 7.52145 58.94 8.14521 59.0496 8.75004C59.1592 9.35487 59.4464 9.91338 59.8746 10.3544C59.9746 10.4644 60.0746 10.5524 60.1746 10.6254C60.4496 10.8444 60.7626 11.0164 61.1026 11.1314L61.1656 11.1704C61.2816 12.0664 63.2106 19.7144 63.5656 21.0064C64.4496 24.2284 64.2706 25.2884 65.4806 25.6114H101.027L101.581 25.6104L102.045 25.6114H104.609C105.42 25.5064 105.886 25.1514 106.159 24.0964L107.369 19.1714C107.802 17.7034 108.874 13.4734 109.213 11.8214C109.315 11.3264 109.254 11.2194 109.376 11.1184C110.063 10.874 110.642 10.3949 111.01 9.76546C111.379 9.13601 111.514 8.39666 111.391 7.67769C111.267 6.95872 110.895 6.30628 110.337 5.83535C109.78 5.36441 109.075 5.10521 108.346 5.10342C107.789 5.103 107.243 5.25269 106.764 5.53674C106.285 5.82078 105.892 6.22866 105.626 6.71742L105.623 6.72242L105.62 6.72842C105.364 7.18453 105.231 7.69853 105.231 8.22118C105.231 8.74383 105.366 9.25765 105.622 9.71342C105.734 9.91242 105.82 10.0434 105.947 10.1824L106.284 10.5954ZM66.3606 28.8264H104.196C105.051 28.8264 105.752 29.5264 105.752 30.3824V33.7934C105.752 34.6494 105.052 35.3494 104.196 35.3494H66.3606C65.9484 35.3481 65.5535 35.1837 65.2621 34.8922C64.9708 34.6006 64.8066 34.2056 64.8056 33.7934V30.3834C64.8056 29.5274 65.5056 28.8264 66.3606 28.8264Z" fill="url(#paint0_linear_24_8)"/>
<path fill-rule="evenodd" clip-rule="evenodd" d="M106.13 10.8843L106.117 10.9004L102.957 14.0543C101.847 15.1963 100.672 16.2744 98.4915 16.2804C95.2175 16.2914 94.0355 14.0754 92.5315 12.1054C91.9915 11.3984 91.6205 10.8313 91.1315 10.1933C90.1295 8.88335 89.2085 7.63935 88.2315 6.34335C88.1005 6.16935 87.7785 5.77235 87.6135 5.52235C87.5874 5.55443 87.5607 5.58611 87.5335 5.61735C87.5075 5.67746 87.5002 5.74402 87.5125 5.80835C87.5365 5.95235 88.0555 6.58835 88.2325 6.82135C89.2085 8.11735 90.1295 9.36135 91.1315 10.6714C91.6205 11.3094 91.9915 11.8764 92.5315 12.5834C94.0355 14.5534 95.2175 16.7694 98.4915 16.7584C100.672 16.7524 101.847 15.6744 102.957 14.5324L106.117 11.3784C106.31 11.1434 106.207 11.3143 106.284 11.0733L106.13 10.8843ZM88.2905 3.33835C88.3239 2.91267 88.269 2.48467 88.129 2.08126C87.989 1.67785 87.7672 1.30775 87.4773 0.994227C87.1874 0.680701 86.8358 0.430526 86.4446 0.259426C86.0534 0.0883258 85.631 0 85.204 0C84.777 0 84.3546 0.0883258 83.9634 0.259426C83.5722 0.430526 83.2206 0.680701 82.9307 0.994227C82.6409 1.30775 82.419 1.67785 82.279 2.08126C82.1391 2.48467 82.0841 2.91267 82.1175 3.33835C82.1785 2.56158 82.5301 1.83637 83.1022 1.30743C83.6744 0.778484 84.4249 0.484701 85.204 0.484701C85.9832 0.484701 86.7337 0.778484 87.3058 1.30743C87.8779 1.83637 88.2295 2.56158 88.2905 3.33835ZM82.8145 5.54335C82.1295 6.56035 79.3755 10.1214 79.1765 10.3904L76.3065 14.2034C74.2055 16.6193 71.0905 16.9844 68.5265 15.0574L65.1805 11.7204C64.9695 11.5154 64.5535 11.1604 64.3005 10.8504C64.272 10.8792 64.243 10.9075 64.2135 10.9354C64.1819 10.9791 64.1538 11.0252 64.1295 11.0733C64.2955 11.4213 64.9085 11.9333 65.1805 12.1983L68.5275 15.5344C71.0915 17.4624 74.2065 17.0974 76.3075 14.6814L79.1775 10.8684C79.4055 10.5594 82.9965 5.91835 82.9685 5.75735C82.941 5.71274 82.913 5.66841 82.8845 5.62435C82.8607 5.59812 82.8374 5.57045 82.8145 5.54335ZM65.1825 8.43735C65.2159 8.01167 65.1609 7.58367 65.021 7.18026C64.881 6.77685 64.6591 6.40675 64.3693 6.09323C64.0794 5.7797 63.7278 5.52953 63.3366 5.35843C62.9454 5.18733 62.523 5.099 62.096 5.099C61.669 5.099 61.2466 5.18733 60.8554 5.35843C60.4642 5.52953 60.1126 5.7797 59.8227 6.09323C59.5329 6.40675 59.311 6.77685 59.171 7.18026C59.0311 7.58367 58.9761 8.01167 59.0095 8.43735C59.0705 7.66058 59.4221 6.93537 59.9942 6.40643C60.5663 5.87748 61.3168 5.5837 62.096 5.5837C62.8752 5.5837 63.6257 5.87748 64.1978 6.40643C64.7699 6.93537 65.1215 7.66058 65.1825 8.43735ZM111.431 8.43735C111.486 7.73104 111.296 7.02743 110.895 6.44394C110.493 5.86044 109.903 5.43235 109.224 5.2311C108.545 5.02986 107.817 5.06762 107.163 5.3381C106.508 5.60858 105.966 6.09541 105.626 6.71735L105.622 6.72235L105.619 6.72835C105.326 7.25882 105.194 7.86377 105.24 8.46835C105.275 8.02035 105.408 7.59035 105.62 7.20635L105.622 7.20035L105.625 7.19535C105.944 6.60819 106.445 6.13996 107.051 5.86063C107.658 5.58131 108.339 5.5059 108.993 5.64566C109.646 5.78542 110.237 6.13286 110.676 6.63604C111.116 7.13923 111.381 7.77114 111.431 8.43735ZM66.3605 28.8274H104.195C105.05 28.8274 105.751 29.5274 105.751 30.3824V30.8604C105.751 30.0044 105.051 29.3044 104.195 29.3044H66.3615C65.5065 29.3044 64.8065 30.0044 64.8065 30.8604V30.3824C64.8065 29.5264 65.5065 28.8264 66.3615 28.8264L66.3605 28.8274Z" fill="white"/>
<defs>
<linearGradient id="paint0_linear_24_8" x1="67.7556" y1="2.71742" x2="102.683" y2="32.6354" gradientUnits="userSpaceOnUse">
<stop stop-color="#FCE224"/>
<stop offset="0.451" stop-color="#FDDC27"/>
<stop offset="0.6" stop-color="#FFD62A"/>
<stop offset="1" stop-color="#FF6B01"/>
</linearGradient>
</defs>
</svg>
