<svg width="30" height="30" viewBox="0 0 30 30" fill="none" xmlns="http://www.w3.org/2000/svg">
<path d="M17.6627 26H8.05019V25.3572C8.05019 23.5162 8.49058 21.6158 9.35919 19.7089C10.0457 18.2016 11.0004 16.6863 12.1966 15.2051C13.0579 14.1388 13.9147 13.2488 14.6219 12.5729C14.2388 12.6012 13.8506 12.6154 13.4583 12.6154C11.6961 12.6154 9.99951 12.3232 8.57368 11.7826V13.0496H4V4.16459H8.57364V4.99032C9.99938 4.44972 11.696 4.15754 13.4582 4.15754C15.2296 4.15754 16.526 4.39664 17.6617 4.93287C18.4538 5.30695 19.3276 5.4528 20.188 5.35439C21.0518 5.25577 21.863 4.91499 22.5339 4.36893L22.9874 4L26 6.0442L25.6282 6.57819C25.6082 6.60698 23.6011 9.50095 21.6223 13.2678C19.816 16.7066 17.6627 21.5955 17.6627 25.3571V26H17.6627Z" fill="url(#paint0_linear_19_823)"/>
<defs>
<linearGradient id="paint0_linear_19_823" x1="15" y1="4" x2="15" y2="26" gradientUnits="userSpaceOnUse">
<stop stop-color="#A5DF6E"/>
<stop offset="1" stop-color="#479200"/>
</linearGradient>
</defs>
</svg>
