<svg width="26" height="27" viewBox="0 0 26 27" fill="none" xmlns="http://www.w3.org/2000/svg">
<g clip-path="url(#clip0_26_1239)">
<path d="M4.16002 5.67967C5.491 5.47045 10.9525 5.23534 13 5.2653C14.7611 5.24854 19.0465 5.39733 21.059 5.59588C20.4166 3.77995 18.7799 2.3342 16.9163 2.09553C15.6056 1.93202 13.8186 1.79795 11.3715 1.83147C8.92432 1.86498 7.13428 2.05389 5.81955 2.25245C3.64814 2.59471 1.70627 4.5051 1.33557 6.69225C1.32643 6.74709 1.31729 6.80956 1.30713 6.8776C2.13994 6.25858 3.11799 5.82491 4.16002 5.67967Z" fill="#B5E051"/>
<path d="M25.7842 10.7939C25.5364 8.86067 23.8144 7.225 21.7989 6.95738C18.2477 6.60547 13 6.57602 13 6.58871C10.7306 6.56535 5.41783 6.78168 4.20112 6.95738C2.96865 7.11582 1.85502 7.79578 1.11006 8.73067C0.634241 9.32988 0.311272 10.0347 0.216311 10.7924C0.0720922 11.9604 -0.0421657 13.5579 0.015725 15.7425C0.0736156 17.9271 0.278264 19.5268 0.482912 20.6998C0.838381 22.6402 2.5817 24.3444 4.52459 24.6709C5.70119 24.8969 10.8164 25.2087 13 25.1691C15.1836 25.2087 20.2988 24.8969 21.4759 24.6724C23.4188 24.3459 25.1646 22.6412 25.5176 20.7013C25.7207 19.5283 25.9238 17.9282 25.9847 15.7441C26.0457 13.56 25.9284 11.9629 25.7842 10.7939ZM21.4632 17.6798C21.107 17.6798 20.7589 17.5742 20.4627 17.3763C20.1666 17.1785 19.9358 16.8972 19.7995 16.5681C19.6632 16.2391 19.6276 15.877 19.6971 15.5277C19.7666 15.1783 19.9382 14.8575 20.1901 14.6057C20.442 14.3539 20.7629 14.1824 21.1122 14.113C21.4615 14.0436 21.8236 14.0793 22.1526 14.2157C22.4817 14.352 22.7629 14.5829 22.9607 14.8791C23.1585 15.1753 23.264 15.5235 23.2639 15.8796C23.2639 16.1161 23.2173 16.3502 23.1268 16.5687C23.0363 16.7871 22.9037 16.9856 22.7364 17.1528C22.5692 17.3199 22.3707 17.4525 22.1522 17.543C21.9338 17.6334 21.6996 17.6799 21.4632 17.6798Z" fill="#B5E051"/>
</g>
<defs>
<clipPath id="clip0_26_1239">
<rect width="26" height="26" fill="white" transform="translate(0 0.5)"/>
</clipPath>
</defs>
</svg>
