<svg width="46" height="18" viewBox="0 0 46 18" fill="none" xmlns="http://www.w3.org/2000/svg">
<path fill-rule="evenodd" clip-rule="evenodd" d="M5.9202 3.16302C6.75181 3.22791 7.58342 2.77373 8.10318 2.1979C8.61427 1.60584 8.95212 0.811031 8.86549 0C8.12917 0.0324413 7.21959 0.454178 6.69984 1.04623C6.22339 1.55718 5.81625 2.38443 5.9202 3.16302ZM15.8129 13.6091V0.965147H20.8806C23.4967 0.965147 25.3245 2.65209 25.3245 5.11762C25.3245 7.58316 23.462 9.28632 20.8113 9.28632H17.9093V13.6091H15.8129ZM8.85677 3.31713C8.12414 3.27765 7.45564 3.52341 6.91568 3.72192C6.5682 3.84967 6.27395 3.95784 6.05009 3.95784C5.79887 3.95784 5.49247 3.84388 5.14845 3.71593C4.69768 3.54827 4.18232 3.35659 3.64188 3.36579C2.40313 3.38201 1.251 4.03895 0.618627 5.08518C-0.680765 7.17764 0.280785 10.2758 1.53686 11.9789C2.15191 12.8224 2.88823 13.747 3.85845 13.7145C4.28528 13.6995 4.59232 13.5775 4.91008 13.4512C5.2759 13.3059 5.65594 13.1549 6.24933 13.1549C6.82215 13.1549 7.18556 13.302 7.53441 13.4431C7.86611 13.5773 8.18465 13.7062 8.65753 13.6983C9.6624 13.6821 10.2948 12.8549 10.9098 12.0114C11.5735 11.1061 11.8652 10.2226 11.9095 10.0885L11.9147 10.073C11.9141 10.0725 11.9113 10.0711 11.9064 10.069C11.9026 10.0673 11.8974 10.0651 11.8911 10.0624L11.891 10.0623L11.8909 10.0623C11.6691 9.96721 9.97319 9.24034 9.95693 7.29118C9.94059 5.65515 11.3021 4.82623 11.5164 4.69575C11.5294 4.68781 11.5382 4.68245 11.5422 4.67966C10.6759 3.47934 9.32456 3.34957 8.85677 3.31713ZM29.1534 13.7064C30.4702 13.7064 31.6916 13.0819 32.246 12.0924H32.2893V13.609H34.2297V7.31545C34.2297 5.49063 32.6705 4.31464 30.2709 4.31464C28.0446 4.31464 26.3987 5.50685 26.3381 7.14513H28.2265C28.3825 6.36654 29.1534 5.8556 30.2103 5.8556C31.4923 5.8556 32.2113 6.41521 32.2113 7.44522V8.1427L29.5952 8.28869C27.161 8.42656 25.8443 9.35925 25.8443 10.9813C25.8443 12.6196 27.2043 13.7064 29.1534 13.7064ZM29.7164 12.206C28.5989 12.206 27.8886 11.7032 27.8886 10.9327C27.8886 10.1379 28.5729 9.67561 29.881 9.60262L32.2112 9.46475V10.1785C32.2112 11.3626 31.1371 12.206 29.7164 12.206ZM40.666 14.1038C39.8257 16.3179 38.8642 17.0478 36.8198 17.0478C36.6639 17.0478 36.1441 17.0316 36.0228 16.9992V15.4826C36.1528 15.4988 36.4733 15.515 36.6379 15.515C37.5648 15.515 38.0845 15.15 38.405 14.2011L38.5956 13.6415L35.044 4.43632H37.2356L39.7044 11.9059H39.7478L42.2166 4.43632H44.3476L40.666 14.1038ZM17.9091 2.61961H20.326C22.1451 2.61961 23.1846 3.52797 23.1846 5.1257C23.1846 6.72343 22.1451 7.63989 20.3173 7.63989H17.9091V2.61961Z" fill="#58627F"/>
</svg>
