<svg width="295" height="109" viewBox="0 0 295 109" fill="none" xmlns="http://www.w3.org/2000/svg">
<path fill-rule="evenodd" clip-rule="evenodd" d="M13.8127 19.8C17.6127 18.1 29.1127 13 39.6127 8.4C50.1127 3.8 58.8127 0.1 59.1127 0C59.4127 0 64.8127 2.3 71.1127 5C77.4127 7.8 89.0127 12.9 111.113 22.5V36L7.61268 35.5L7.11268 23L13.8127 19.8ZM142.113 24L149.413 23.8C153.313 23.6 157.413 23.8 158.413 24.3C159.313 24.7 160.913 26.2 161.913 27.6C163.513 30.1 163.513 30.4 161.913 33.1C160.213 35.9 160.213 36.1 162.113 38.8C163.313 40.3 164.213 42.5 164.113 43.8C164.113 45 162.813 47.3 161.213 49C158.413 51.8 157.813 52 142.113 52V24ZM217.113 52C215.213 52 215.113 51.3 215.013 37.6C214.913 24.1 215.013 23.2 216.713 23.4C218.313 23.6 218.713 24.8 219.613 37.2L222.213 34.1C224.113 31.8 225.613 31 231.013 31L223.613 38.9L226.713 43.2C228.413 45.6 230.313 48.5 230.913 49.8C232.013 51.8 231.913 52 229.613 52C227.713 52 226.513 51 224.613 47.5C223.213 45 221.413 43 220.613 43C219.513 43 219.113 44.2 219.113 47.5C219.113 51.3 218.813 52 217.113 52ZM170.313 33.4C171.613 32.2 173.313 31 174.113 30.7C174.913 30.4 176.313 30.1 177.113 30.1C177.913 30 180.113 30.4 181.913 31C184.013 31.6 185.313 32.8 185.613 34.3C185.813 35.5 186.113 40 186.313 44.2C186.613 51.1 186.413 52 184.913 52C183.913 52 182.913 51.5 182.613 51C182.279 50.3333 181.446 50.3333 180.113 51C179.013 51.5 176.613 52 174.913 52C173.113 52 170.813 51.2 169.813 50.2C168.813 49.3 168.013 47.4 168.013 46C168.013 44.6 168.813 42.8 169.813 41.8C170.813 40.9 173.713 39.9 176.413 39.6C180.213 39.1 181.113 38.6 181.113 37C181.113 35.8 180.313 34.8 179.113 34.5C178.013 34.2 176.213 34.2 175.113 34.5C174.013 34.8 173.113 35.5 173.113 36C173.113 36.5 172.013 37 170.613 37C169.213 37 168.113 36.7 168.113 36.3C168.113 35.8 169.113 34.5 170.313 33.4ZM194.813 31.2C196.413 31.6 198.313 31.5 199.113 30.9C199.913 30.4 201.713 30.2 203.113 30.6C204.513 30.9 206.413 31.9 207.413 32.8C208.813 34.2 209.213 36.1 209.113 43.3C209.113 51.3 208.913 52 207.113 52C205.313 52 205.113 51.3 205.113 44C205.113 36.5 204.913 35.9 202.613 34.8C200.513 33.7 199.913 33.8 198.113 35.5C196.513 37.1 196.013 39 195.813 44.5C195.613 50.3 195.313 51.5 193.913 51.7C192.313 52 192.113 50.9 192.113 30.5L194.813 31.2ZM15.9127 43.9C13.9127 42.5 13.8127 42.1 15.0127 40.6C16.0127 39.3 18.3127 39 25.5127 39C32.8127 38.9 34.9127 39.2 36.1127 40.6C37.4127 42.1 37.4127 42.4 35.3127 43.9C33.0127 45.5 33.0127 45.8 33.0127 64.4999V64.5C33.1127 82.3 33.2127 83.6 35.1127 85.3C36.7127 86.7 36.9127 87.3 35.8127 88.5C34.9127 89.7 32.5127 90.1 25.6127 90.1C18.7127 90.1 16.3127 89.7 15.3127 88.5C14.3127 87.3 14.5127 86.7 16.1127 85.3C18.0127 83.6 18.1127 82.3 18.2127 64.5C18.2127 45.8 18.2127 45.5 15.9127 43.9ZM47.9127 41.6C47.8127 40.8 48.4127 39.9 49.1127 39.6C49.9127 39.4 54.9127 39.2 60.1127 39.3C68.8127 39.5 69.6127 39.7 69.9127 41.5C70.1127 42.8 69.5127 43.8 68.2127 44.3C66.2127 45 66.1127 45.7 66.1127 63.5C66.1127 73.7 66.3127 82.7 66.6127 83.5C66.9127 84.3 67.8127 85 68.6127 85C69.6127 85 70.0127 85.8 69.8127 87.3C69.6127 89.4 69.1127 89.5 60.1127 89.8C52.1127 90.1 50.4127 89.9 49.1127 88.4C47.7127 86.9 47.8127 86.6 49.9127 85.1C52.2127 83.5 52.2127 83.2 52.1127 64.3C52.1127 46 52.0127 44.9 50.1127 44C49.0127 43.5 48.0127 42.4 47.9127 41.6ZM83.9127 43.9C81.9127 42.5 81.8127 42.1 83.0127 40.6C84.0127 39.3 86.2127 39 93.7127 39C101.113 39 103.313 39.3 103.813 40.5C104.313 41.4 103.913 42.7 102.913 43.8C101.413 45.3 101.113 47.9 101.113 64.8C101.113 81.3 101.313 84.1 102.713 84.7C103.613 85.2 104.113 86.4 103.913 87.5C103.613 89.3 102.713 89.5 94.1127 89.8C86.1127 90.1 84.4127 89.9 83.1127 88.4C81.7127 86.9 81.8127 86.6 83.9127 85.1C86.2127 83.5 86.2127 83.2 86.2127 64.5002V64.5V64.4998C86.2127 45.8 86.2127 45.5 83.9127 43.9ZM140.313 73.5C139.413 73.1 139.413 72.6 140.213 71.5C141.213 70.2 143.413 70 152.013 70.2C160.613 70.4 162.613 70.8 162.613 72C162.613 73 161.213 73.7 153.613 74.5L153.313 86.7C153.113 98.2 153.013 99 151.113 99C149.213 99 149.113 98.3 148.613 74.5L145.113 74.2C143.213 74.1 141.013 73.7 140.313 73.5ZM247.913 75.8C247.813 74.6 248.613 72.8 249.613 71.8C250.613 70.8 252.813 70 254.713 70C256.613 70 258.113 70.3 258.113 70.7C258.113 71.2 257.713 72 257.313 72.6C256.913 73.3 255.713 73.9 254.713 74.1C253.613 74.3 252.613 75.1 252.413 75.7C252.213 76.4 253.013 77.2 254.113 77.5C255.313 77.8 256.113 78.8 256.113 80C256.113 81.3333 255.446 82 254.113 82C252.313 82 252.113 82.7 252.113 90.5C252.113 98.3 251.913 99 250.113 99C248.313 99 248.113 98.3 248.113 90.5C248.113 83.8 247.813 81.9 246.613 81.5C245.813 81.2 245.113 80.3 245.113 79.5C245.113 78.7 245.813 78 246.613 78C247.513 78 248.013 77.2 247.913 75.8ZM166.313 89.6C166.213 84.7 166.213 80.1 166.513 79.4C166.713 78.7 168.913 78.2 172.413 78.1C175.413 78.1 177.913 78.4 178.013 78.8C178.013 79.2 177.713 80.2 177.213 81C176.713 81.8 175.913 82.2 175.513 81.8C175.013 81.4 173.913 81.5 173.113 82C172.113 82.7 171.413 85.3 171.113 90.7C170.713 97.7 170.413 98.5 168.613 98.5C166.813 98.5 166.613 97.7 166.313 89.6ZM179.913 83C179.813 82.5 180.813 81.2 182.113 80C183.813 78.6 185.913 78 189.513 78C193.113 77.9 195.113 78.4 196.313 79.7C197.513 81 198.013 83.9 198.313 90.3C198.613 98 198.413 99 196.813 99C195.913 99 194.913 98.5 194.613 98C194.279 97.3333 193.446 97.3333 192.113 98C191.013 98.5 188.613 99 186.813 99C185.113 99 182.813 98.2 181.813 97.2C180.813 96.3 180.013 94.4 180.013 93C180.013 91.6 180.813 89.7 181.813 88.8C182.813 87.8 185.713 86.7 188.413 86.3C191.913 85.7 193.113 85.1 193.113 83.7C193.113 82.7 192.113 81.8 190.613 81.5C189.213 81.2 187.413 81.2 186.613 81.5C185.813 81.8 185.113 82.5 185.113 83C185.113 83.5 184.013 84 182.613 84C181.213 84 180.013 83.6 179.913 83ZM206.113 99C204.213 99 204.113 98.3 204.013 88.6L203.813 78.3L210.713 78.2C215.913 78.1 218.013 78.5 219.413 79.8C220.813 81.2 221.213 83.1 221.113 90.2C221.113 98.3 220.913 99 219.113 99C217.313 99 217.113 98.3 217.113 91.5C217.113 86.2 216.713 83.6 215.613 82.5C214.813 81.7 213.813 81 213.313 81C212.913 81 211.613 81.7 210.313 82.5C208.413 83.8 208.113 84.8 208.113 91.5C208.113 98.3 207.913 99 206.113 99ZM226.013 84.3C225.913 82.8 226.613 80.8 227.613 79.8C228.913 78.5 231.013 77.9 234.113 77.9C237.413 77.9 239.213 78.4 240.713 79.9C242.313 81.6 242.413 82.2 241.413 83.2C240.413 84.2 239.513 84.1 237.113 82.7C235.513 81.7 233.313 81.2 232.213 81.4C231.113 81.7 230.313 82.5 230.513 83.2C230.713 83.9 232.813 85.1 235.313 85.9C237.913 86.8 240.713 88.1 241.613 88.9C242.513 89.8 243.213 91.3 243.213 92.4C243.213 93.5 242.313 95.5 241.213 96.7C239.613 98.4 238.113 98.9 234.713 98.9C231.513 98.9 229.613 98.4 228.213 96.9C227.113 95.8 226.213 94.3 226.213 93.4C226.213 92.6 226.713 91.7 227.413 91.3C228.113 90.9 229.313 91.6 230.213 92.9C231.313 94.6 232.513 95 235.213 94.8C237.413 94.6 238.713 93.9 238.713 93C238.713 92.1 237.013 91.1 234.713 90.4C232.513 89.8 229.613 88.7 228.413 88.1C227.013 87.4 226.113 85.9 226.013 84.3ZM259.113 88.6C259.013 84.5 259.413 82.6 261.113 80.6C262.913 78.5 264.113 77.9 267.713 77.9C270.213 77.9 272.913 78.3 273.813 78.7C274.713 79.1 276.013 80.7 276.813 82.2C277.513 83.7 278.213 85.8 278.213 86.9C278.213 88.8 277.513 88.9 271.213 88.9C265.813 88.9 264.013 89.3 263.713 90.4C263.413 91.3 263.713 92.6 264.413 93.5C265.113 94.3 267.013 95 268.713 95C270.313 95 272.313 94.3 273.213 93.4C274.013 92.6 275.213 91.9 275.913 91.9C276.613 91.9 277.413 92.4 277.713 92.9C277.913 93.5 277.113 95.1 275.713 96.4C273.813 98.4 272.213 98.9 268.713 98.9C265.213 98.9 263.613 98.4 261.713 96.4C259.613 94.4 259.113 92.9 259.113 88.6ZM284.413 99C283.513 98.9 283.113 96.1 283.013 88.6L282.813 78.3L288.313 78.2C291.313 78.1 293.913 78.3 294.013 78.7C294.113 79.1 293.813 80 293.413 80.7C293.013 81.4 292.013 81.7 291.213 81.4C290.313 81.1 287.3 81.2 286.5 82.2C285.922 82.7783 286.016 84.3598 286.141 86.4418C286.232 87.96 286.339 89.7445 286.213 91.6C285.813 96.6 285.213 99 284.413 99ZM7.71268 98.2C7.41268 97.2 7.41268 95.6 7.71268 94.7C8.31268 93 11.4127 92.9 110.713 93.4V99.4L59.4127 99.7C11.4127 99.9 8.21268 99.8 7.71268 98.2ZM0.0126793 106.5C-0.0873207 105.2 0.412676 103.9 1.21268 103.6C2.01268 103.3 28.6127 103.2 117.713 103.4L118.213 108.9H0.212676L0.0126793 106.5ZM146.313 32C146.113 30.6 146.213 28.9 146.513 28.3C146.813 27.5 148.913 27 151.313 27C154.313 26.9 156.113 27.5 157.213 28.8C158.113 29.9 158.613 31.5 158.413 32.4C158.313 33.3 157.113 34.3 155.813 34.6C154.613 34.9 152.013 35 150.113 34.8C147.213 34.6 146.513 34.1 146.313 32ZM146.113 48L146.213 43.5V38.9L151.813 39.2C156.013 39.4 157.713 40 158.713 41.5C159.913 43.2 159.813 43.8 158.613 45.8C157.313 47.6 156.213 48 146.113 48ZM172.513 46.8C172.113 46.1 172.713 45 173.713 44.3C174.813 43.6 176.813 43.1 178.413 43.1C179.913 43.1 181.213 43.6 181.213 44.3C181.213 45 180.613 46.1 180.013 46.8C179.313 47.5 177.513 48.1 176.013 48.1C174.413 48.1 172.913 47.5 172.513 46.8ZM263.013 84.5C262.913 83.7 263.913 82.6 265.213 82.1C265.913 81.85 266.563 81.6 267.051 81.4125C267.538 81.225 267.863 81.1 267.913 81.1C268.013 81.1 269.413 81.5 270.913 82C272.513 82.6 273.513 83.6 273.413 84.5C273.213 85.7 271.913 86.1 268.213 86.1C264.413 86.1 263.113 85.7 263.013 84.5ZM184.813 91.8C185.313 91.3 187.213 90.6 189.013 90.2C191.513 89.7 192.513 89.8 192.813 90.7C193.013 91.5 192.613 92.7 191.913 93.6C191.213 94.4 189.413 95.1 187.913 95.1C186.413 95.1 184.913 94.5 184.513 93.8C184.213 93.1 184.313 92.2 184.813 91.8Z" fill="#58627F"/>
</svg>
