<svg width="62" height="14" viewBox="0 0 62 14" fill="none" xmlns="http://www.w3.org/2000/svg">
<g clip-path="url(#clip0_23_610)">
<path fill-rule="evenodd" clip-rule="evenodd" d="M4.91579 13.7926C8.38535 14.7225 11.8954 12.4367 12.7558 8.68704C13.6147 4.94462 11.5095 1.15703 8.04924 0.218516C8.04438 0.21707 8.03941 0.215734 8.03451 0.214415L8.03162 0.213637C4.56221 -0.716224 1.05217 1.56971 0.191806 5.31953C-0.668557 9.06919 1.44638 12.8629 4.91579 13.7926ZM6.23095 6.3398C6.71743 6.48062 7.75781 6.78177 7.94208 5.98511H7.93597C8.12373 5.16971 7.09464 4.92582 6.6006 4.80874C6.54632 4.79588 6.4985 4.78454 6.45946 4.77415L6.10559 6.3043C6.14122 6.31382 6.18344 6.32604 6.23095 6.3398ZM5.67615 8.80472C6.25582 8.97026 7.52125 9.33165 7.72161 8.45771C7.92667 7.56486 6.70638 7.26731 6.10596 7.12091C6.03736 7.10418 5.97685 7.08943 5.92748 7.07598L5.5372 8.76572C5.57707 8.77642 5.62381 8.78977 5.67615 8.80472ZM7.92388 4.23431C8.81177 4.56656 9.46709 5.06706 9.33966 5.99833L9.33952 5.9988C9.24049 6.68959 8.89652 7.01098 8.43139 7.12682C9.06851 7.48535 9.39413 8.03401 9.08467 8.98717C8.70036 10.1718 7.79223 10.2705 6.57873 10.0233L6.28543 11.2955L5.5755 11.1053L5.86268 9.83959C5.67803 9.79143 5.48973 9.73902 5.29838 9.6822L5.00712 10.9435L4.29719 10.7512L4.59049 9.47681L4.08487 9.33469L3.16058 9.08758L3.51256 8.21313C3.51256 8.21313 4.03041 8.3617 4.03041 8.35084H4.03055C4.167 8.39774 4.31263 8.31669 4.35603 8.16937L4.81926 6.15604L4.89412 6.17791C4.87067 6.16642 4.84621 6.15777 4.8213 6.15163L5.15304 4.71545C5.16862 4.4973 5.02212 4.3045 4.8213 4.27822C4.83135 4.2694 4.30549 4.1383 4.30549 4.1383L4.49364 3.31845L5.47459 3.58302L5.92763 3.69225L6.21888 2.43093L6.92881 2.62326L6.64572 3.86491C6.8359 3.91087 7.02799 3.95903 7.2141 4.00924L7.49719 2.78065L8.21513 2.97298L7.92388 4.23431Z" fill="#58627F"/>
<path d="M16.8516 11.8046C17.2297 11.8058 17.6016 11.7018 17.9317 11.5029C18.2715 11.3071 18.5703 11.0375 18.8096 10.7115C19.0589 10.3668 19.2549 9.98075 19.3901 9.56823C19.5326 9.14202 19.605 8.69235 19.6044 8.23923C19.6271 7.77949 19.5363 7.32149 19.3414 6.91227C19.1675 6.59529 18.8438 6.43365 18.3746 6.43365C18.1701 6.4412 17.9668 6.47126 17.7678 6.5232C17.5206 6.58285 17.292 6.71097 17.1043 6.8948L16.0323 11.739L16.2043 11.7739C16.2554 11.7874 16.3077 11.7962 16.36 11.8002C16.4271 11.8091 16.4947 11.8128 16.5623 11.811L16.8515 11.8044L16.8516 11.8046ZM18.9814 4.23239C19.4496 4.22074 19.9145 4.32399 20.3406 4.53411C20.7105 4.72471 21.0355 5.00345 21.2912 5.34955C21.5531 5.70745 21.7456 6.1184 21.8576 6.5583C21.9802 7.04338 22.0406 7.54419 22.0376 8.04705C22.037 9.61151 21.4759 11.1147 20.4721 12.242C19.9854 12.7815 19.4064 13.2134 18.7671 13.5142C18.0967 13.833 17.3717 13.9956 16.6393 13.9907H16.1215C15.84 13.9808 15.5589 13.9547 15.28 13.912C14.9394 13.8587 14.6018 13.7858 14.2688 13.6934C13.9196 13.6039 13.5806 13.4734 13.2576 13.3044L16.0993 0.437718L18.6377 0.000488281L17.6265 4.567C17.8371 4.46407 18.0557 4.38144 18.2798 4.32006C18.5108 4.25931 18.748 4.22909 18.9857 4.2305L18.9816 4.23271L18.9814 4.23239Z" fill="#58627F"/>
<path d="M25.8399 3.29428C25.5091 3.29774 25.1865 3.18316 24.9216 2.96864C24.6409 2.72862 24.4891 2.35325 24.5171 1.96748C24.5159 1.72683 24.5634 1.4887 24.6566 1.27009C24.7458 1.05714 24.8712 0.864336 25.0268 0.701752C25.1821 0.542159 25.3621 0.413414 25.5587 0.321341C25.7632 0.226435 25.9835 0.178116 26.2059 0.179218C26.5344 0.178116 26.8539 0.293325 27.1161 0.507061C27.3963 0.747553 27.5479 1.12261 27.5206 1.50822C27.5224 1.7495 27.4755 1.98826 27.3831 2.20766C27.2939 2.41951 27.1691 2.61137 27.015 2.77379C26.8601 2.93402 26.6801 3.06276 26.483 3.1542C26.2786 3.24911 26.0582 3.2968 25.8359 3.29412H25.8399V3.29428ZM24.6608 13.7412H22.2336L24.2845 4.42875H26.7258L24.6607 13.7412H24.6608Z" fill="#58627F"/>
<path d="M28.8495 2.10956L31.3878 1.68555L30.7568 4.42901H33.4754L32.9856 6.58872H30.2895L29.5695 9.83709C29.5072 10.0858 29.4686 10.3407 29.4542 10.5981C29.4393 10.8061 29.4679 11.0152 29.537 11.2098C29.6047 11.3845 29.7301 11.5257 29.889 11.6055C30.1176 11.7148 30.3672 11.7645 30.6171 11.7499C30.8731 11.7508 31.1286 11.7236 31.3796 11.669C31.6323 11.6156 31.8812 11.5426 32.1239 11.4503L32.306 13.4701C31.9575 13.6055 31.6014 13.7174 31.24 13.8046C30.7933 13.907 30.3374 13.9547 29.8808 13.9467C29.1264 13.9467 28.5438 13.8243 28.1272 13.5838C27.7375 13.3696 27.4253 13.0201 27.2414 12.5913C27.0618 12.1362 26.9835 11.642 27.0129 11.1485C27.0401 10.5694 27.1166 9.99432 27.2414 9.43024L28.8494 2.10074V2.10956H28.8495Z" fill="#58627F"/>
<path d="M33.3864 10.0227C33.3813 9.25022 33.503 8.48247 33.7463 7.75596C33.9745 7.06895 34.3251 6.43703 34.7778 5.89576C35.2344 5.35891 35.7895 4.93159 36.408 4.64074C37.0825 4.32596 37.8111 4.16872 38.5458 4.17974C38.9893 4.17407 39.432 4.2246 39.8646 4.33036C40.2282 4.42354 40.5819 4.55685 40.9203 4.72824L40.077 6.77652C39.8586 6.68035 39.632 6.59757 39.3974 6.52076C39.1176 6.43656 38.828 6.39752 38.5378 6.40492C37.8044 6.37628 37.099 6.71136 36.6223 7.31432C36.149 7.91602 35.9115 8.72485 35.9104 9.7408C35.8881 10.2561 36.0139 10.766 36.2703 11.2012C36.5102 11.5728 36.9528 11.7584 37.5971 11.7584C37.906 11.7587 38.2139 11.7228 38.5155 11.6514C38.7844 11.5893 39.048 11.5009 39.3023 11.3868L39.4823 13.4942C39.1514 13.6296 38.8139 13.745 38.4711 13.8394C38.0358 13.9455 37.5904 13.9955 37.1442 13.9883C36.552 14.0069 35.9625 13.899 35.4088 13.6711C34.9687 13.4794 34.5725 13.1864 34.2479 12.8123C33.9399 12.4496 33.7123 12.0159 33.5825 11.5442C33.4452 11.0478 33.377 10.532 33.3802 10.014L33.3864 10.0228V10.0227Z" fill="#58627F"/>
<path d="M45.362 6.41383C45.0198 6.40863 44.6853 6.5262 44.4113 6.74828C44.1336 6.98059 43.9006 7.26972 43.7257 7.59866C43.5334 7.94885 43.3889 8.32753 43.297 8.72258C43.208 9.10126 43.1617 9.49002 43.1595 9.88082C43.1377 10.3579 43.2275 10.8329 43.4205 11.2624C43.5966 11.5924 43.912 11.7586 44.3711 11.7586C44.7139 11.7649 45.0489 11.6464 45.3218 11.422C45.6001 11.1897 45.8335 10.9005 46.0094 10.5719C46.199 10.2213 46.34 9.84273 46.4283 9.44799C46.5162 9.06853 46.5625 8.67883 46.5656 8.28724C46.5883 7.81051 46.4982 7.33503 46.3046 6.90567C46.1287 6.57783 45.8111 6.41162 45.354 6.41162L45.3621 6.41383H45.362ZM44.1485 13.9904C43.6331 14.0033 43.1206 13.9067 42.6396 13.7062C42.2349 13.5337 41.8735 13.2614 41.5838 12.9104C41.299 12.5569 41.0845 12.1441 40.9528 11.6973C40.8098 11.1963 40.7414 10.6737 40.7506 10.1496C40.7522 9.42785 40.8592 8.71062 41.0683 8.02487C41.2712 7.33472 41.5879 6.68989 42.0025 6.12093C42.419 5.55212 42.937 5.07932 43.5255 4.7307C44.159 4.36256 44.8693 4.17653 45.5886 4.19069C46.1009 4.18062 46.6106 4.27726 47.0894 4.47494C47.4945 4.64461 47.858 4.91327 48.1512 5.25969C48.4343 5.61413 48.6483 6.02681 48.7803 6.47285C48.9243 6.97429 48.9926 7.49762 48.9826 8.02267C48.9805 8.74383 48.8761 9.46058 48.6731 10.1474C48.4737 10.8385 48.1628 11.4859 47.7548 12.0602C47.3444 12.6314 46.8284 13.1042 46.2398 13.4484C45.5966 13.8184 44.877 14.0051 44.1485 13.9904Z" fill="#58627F"/>
<path d="M52.8153 3.29433C52.485 3.2981 52.1627 3.18352 51.8992 2.96869C51.6182 2.72867 51.4665 2.35329 51.4946 1.96753C51.4934 1.72688 51.5409 1.48875 51.634 1.27013C51.7208 1.05829 51.8427 0.865797 51.994 0.701797C52.1504 0.542675 52.3309 0.41393 52.528 0.321385C52.7319 0.226636 52.9515 0.178318 53.1734 0.179262C53.5043 0.176114 53.8274 0.291638 54.0917 0.507105C54.3719 0.747597 54.5234 1.12266 54.4963 1.50826C54.4967 1.74986 54.4484 1.98862 54.3544 2.2077C54.2668 2.41971 54.1424 2.61188 53.9885 2.77384C53.8335 2.93406 53.6535 3.0628 53.4565 3.15425C53.2538 3.24821 53.0356 3.2959 52.8152 3.29417L52.8153 3.29433ZM51.6383 13.7412H49.2112L51.2581 4.42879H53.7014L51.6383 13.7412Z" fill="#58627F"/>
<path d="M55.4487 4.85299C55.6327 4.79617 55.8371 4.72613 56.0555 4.6498C56.2739 4.57331 56.5288 4.50327 56.8097 4.43118C57.118 4.36052 57.4292 4.30732 57.7423 4.27159C58.1313 4.22721 58.5223 4.20596 58.9134 4.20816C60.1917 4.20816 61.0735 4.60951 61.559 5.41267C61.8497 5.89365 61.9968 6.4804 62.0003 7.17308V7.22297C61.9981 7.67342 61.9359 8.1681 61.8139 8.70684L60.6994 13.7345H58.2642L59.3462 8.81151C59.4109 8.5057 59.4636 8.20839 59.502 7.91769C59.5441 7.66602 59.5441 7.40837 59.502 7.15702C59.4618 6.94691 59.3544 6.75898 59.1987 6.62583C58.9829 6.47285 58.726 6.40139 58.4685 6.42248C58.1444 6.42311 57.8211 6.459 57.5037 6.52967L55.9139 13.7433H53.4644L55.4487 4.85299Z" fill="#58627F"/>
</g>
<defs>
<clipPath id="clip0_23_610">
<rect width="62" height="14" fill="white"/>
</clipPath>
</defs>
</svg>
