<svg width="192" height="44" viewBox="0 0 192 44" fill="none" xmlns="http://www.w3.org/2000/svg">
<path d="M39.1 8.90001L33.7 14C30 10.1 25.9 8.20001 21.4 8.20001C17.5 8.20001 14.3 9.50001 11.7 12.2C9.1 14.8 7.7 18.1 7.7 22C7.7 24.7 8.3 27.1 9.5 29.2C10.7 31.3 12.3 32.9 14.5 34.1C16.6 35.3 19 35.9 21.6 35.9C23.8 35.9 25.9 35.5 27.7 34.7C29.5 33.9 31.6 32.4 33.8 30.2L39 35.6C36 38.5 33.2 40.5 30.5 41.7C27.8 42.8 24.8 43.4 21.4 43.4C15.1 43.4 10 41.4 6 37.4C2 33.4 0 28.3 0 22.1C0 18.1 0.9 14.5 2.7 11.4C4.6 8.00001 7.2 5.50001 10.6 3.60001C14 1.70001 17.6 0.700012 21.6 0.700012C24.9 0.700012 28.1 1.40001 31.2 2.80001C34.3 4.20001 36.9 6.30001 39.1 8.90001Z" fill="#58627F"/>
<path d="M54.1 1.79999H61.9L77.4 42.2H69.4L66.2 33.9H49.8L46.5 42.2H38.5L54.1 1.79999ZM58 12.5L52.6 26.4H63.4L58 12.5Z" fill="#58627F"/>
<path d="M100.5 7.30001L94.8 12.3C92.8 9.50001 90.8 8.10001 88.7 8.10001C87.7 8.10001 86.9 8.40001 86.2 8.90001C85.6 9.40001 85.2 10 85.2 10.7C85.2 11.4 85.4 12 85.9 12.6C86.5 13.4 88.4 15.1 91.5 17.8C94.4 20.3 96.2 21.8 96.8 22.4C98.4 24 99.5 25.5 100.1 26.9C100.8 28.3 101.1 29.9 101.1 31.6C101.1 34.9 100 37.6 97.7 39.8C95.4 42 92.4 43 88.7 43C85.8 43 83.3 42.3 81.2 40.9C79.1 39.5 77.2 37.3 75.7 34.3L82.2 30.4C84.1 34 86.4 35.8 88.9 35.8C90.2 35.8 91.3 35.4 92.2 34.6C93.1 33.8 93.5 32.9 93.5 31.9C93.5 31 93.2 30.1 92.5 29.2C91.8 28.3 90.3 26.9 88 25C83.6 21.4 80.8 18.6 79.5 16.7C78.2 14.8 77.6 12.8 77.6 10.9C77.6 8.10001 78.7 5.70001 80.8 3.70001C82.9 1.70001 85.6 0.700012 88.7 0.700012C90.7 0.700012 92.6 1.20001 94.5 2.10001C96.4 3.00001 98.4 4.80001 100.5 7.30001Z" fill="#58627F"/>
<path d="M104.5 1.79999H112.3V17H125.8V1.79999H133.6V42.2H125.8V24.5H112.3V42.2H104.5V1.79999Z" fill="#58627F"/>
<path d="M139 0.799988H146.5V42.2H139V0.799988Z" fill="#707DA3"/>
<path d="M154.6 0C155.9 0 157 0.5 158 1.4C158.9 2.4 159.4 3.5 159.4 4.9C159.4 6.2 158.9 7.4 158 8.3C157.1 9.2 156 9.7 154.7 9.7C153.4 9.7 152.2 9.2 151.3 8.3C150.4 7.3 149.9 6.2 149.9 4.8C149.9 3.5 150.4 2.4 151.3 1.4C152.1 0.5 153.3 0 154.6 0ZM150.8 12.3H158.3V42.2H150.8V12.3Z" fill="#707DA3"/>
<path d="M168.6 0.799988V15.6C170 14.2 171.4 13.2 173 12.6C174.6 11.9 176.3 11.6 178 11.6C181.9 11.6 185.2 13.1 187.9 16C190.6 18.9 192 22.7 192 27.3C192 31.7 190.6 35.5 187.8 38.5C185 41.5 181.6 43 177.8 43C176.1 43 174.5 42.7 173 42.1C171.5 41.5 170 40.5 168.6 39.1V42.3H161.2V0.799988H168.6ZM176.5 18.4C174.1 18.4 172.2 19.2 170.6 20.8C169 22.4 168.3 24.5 168.3 27.1C168.3 29.8 169.1 31.9 170.6 33.5C172.2 35.1 174.1 36 176.5 36C178.8 36 180.7 35.2 182.3 33.5C183.9 31.8 184.6 29.7 184.6 27.1C184.6 24.5 183.8 22.4 182.3 20.8C180.8 19.3 178.8 18.4 176.5 18.4Z" fill="#707DA3"/>
</svg>
