<svg width="70" height="16" viewBox="0 0 70 16" fill="none" xmlns="http://www.w3.org/2000/svg">
<g clip-path="url(#clip0_23_568)">
<path fill-rule="evenodd" clip-rule="evenodd" d="M36.7692 6.27147H35.2443V3.32178C36.157 3.32178 37.3649 3.19674 38.0097 3.64297C38.8496 4.22418 38.8966 6.27144 36.7692 6.27144L36.7692 6.27147ZM32.2421 2.53827V10.8804C32.2421 11.2951 32.405 11.8192 32.6105 12.0449C33.4279 12.9425 35.2443 12.7009 35.2443 10.8343V8.71418H37.3411C40.0599 8.71418 41.8206 7.3034 41.8206 4.65836C41.8206 4.00152 41.6215 3.34613 41.3891 2.90953C41.2684 2.68288 40.881 2.17135 40.6569 2.00454C39.5682 1.19408 38.687 0.833008 36.8169 0.833008H34.3865C33.0131 0.833008 32.2421 1.20012 32.2421 2.5383L32.2421 2.53827Z" fill="#58627F"/>
<path fill-rule="evenodd" clip-rule="evenodd" d="M44.9657 8.06925C44.9657 7.30269 45.3125 6.58512 45.9196 6.2265C46.4674 5.90296 47.4685 5.89828 48.076 6.48978C49.1141 7.5004 48.7254 10.0972 46.9671 10.0972C46.2986 10.0972 45.8766 9.98861 45.4517 9.48886C45.1916 9.183 44.9657 8.61373 44.9657 8.06925ZM46.2047 12.586C48.2049 12.586 48.4566 11.7595 48.8257 11.6642C49.0768 12.7069 51.6373 13.2462 51.6373 10.7424V5.48826C51.6373 3.30063 49.8895 3.48265 49.3143 3.88683C49.1318 4.01502 48.8867 4.20696 48.8256 4.42823C48.3412 4.11444 48.0443 3.6855 47.0506 3.56401C42.9491 3.0627 40.5778 7.61442 42.7535 10.7157L43.3564 11.423C43.5599 11.6197 43.8575 11.8463 44.1045 11.99C44.6408 12.3019 45.3436 12.586 46.2046 12.586H46.2047Z" fill="#58627F"/>
<path fill-rule="evenodd" clip-rule="evenodd" d="M7.84307 5.62624H8.17664C8.9834 5.62624 9.84453 6.31106 9.84453 7.10107H6.07985C6.2699 6.31212 6.92816 5.62624 7.84307 5.62624ZM3.07764 8.06895C3.07764 8.78188 3.26954 9.50191 3.52183 9.98988C4.87138 12.6001 8.13172 13.2054 10.8869 12.1189C13.1552 11.2244 12.7733 9.4516 11.4648 9.4516C11.0392 9.4516 10.3067 9.77654 9.98126 9.90642C9.28914 10.1827 8.8854 10.2812 8.08136 10.2812C7.13972 10.2812 6.14765 9.67957 6.12755 8.80637H11.1312C11.9457 8.80637 12.7515 8.38789 12.7515 7.46978C12.7515 6.8501 12.5381 6.28999 12.3071 5.87161C11.8029 4.95828 10.9928 4.34328 10.0517 3.90495C8.56442 3.2122 6.38142 3.42305 5.07869 4.33535C3.98513 5.10117 3.07764 6.45455 3.07764 8.06895ZM24.3791 8.25332V7.88462C24.3791 6.89719 25.0865 5.94889 26.0946 5.94889H26.4282C27.3741 5.94889 28.1438 6.91236 28.1438 7.83852V8.29942C28.1438 9.25259 27.4027 10.189 26.4282 10.189C25.7333 10.189 25.3073 10.088 24.8957 9.59721C24.6274 9.27722 24.3791 8.81735 24.3791 8.25332ZM21.3292 7.93071C21.3292 9.91355 22.2275 11.3345 24.0131 12.2022C25.4521 12.9014 27.8952 12.7853 29.2746 11.7897L29.8964 11.285C32.2679 8.94106 31.3506 4.30957 27.4418 3.58599C27.3057 3.5608 27.0749 3.51438 26.904 3.50691C26.6464 3.49559 26.5364 3.46872 26.3315 3.4583C25.8948 3.4361 24.7426 3.6289 24.3034 3.80165C23.7163 4.03258 23.2262 4.3179 22.8183 4.71594C22.3941 5.12994 22.0656 5.46364 21.789 6.02492C21.5571 6.4957 21.3292 7.25827 21.3292 7.93071Z" fill="#58627F"/>
<path fill-rule="evenodd" clip-rule="evenodd" d="M52.0186 4.79675C52.0186 5.45993 52.1679 5.69056 52.527 6.37903C52.6384 6.59263 52.7015 6.76569 52.8124 6.97863L54.2589 9.95809C55.0997 11.7868 55.2529 11.3073 54.719 12.34C54.1674 13.407 53.1192 14.7918 53.9821 15.6182C54.3095 15.9317 54.5832 15.9881 54.9241 15.9964H55.3067C56.1572 15.9964 56.8761 13.9562 57.244 13.2151C57.31 13.082 57.354 13.0113 57.42 12.8783C58.4539 10.7952 59.4644 8.54754 60.5175 6.42585C60.8648 5.72617 61.4462 4.62887 60.7294 3.97667C60.4178 3.69308 60.0504 3.64453 59.5956 3.64453C58.5515 3.64453 58.1851 4.94116 57.7915 5.86335C57.6432 6.21079 56.6617 8.38441 56.5934 8.66823L55.6717 6.60996C55.3533 5.92315 55.0731 5.12739 54.7508 4.50483C54.4208 3.86756 54.1573 3.64456 53.3529 3.64456C52.6905 3.64456 52.0186 4.17504 52.0186 4.79678L52.0186 4.79675ZM61.4065 4.88893C61.4065 5.73579 62.0839 6.09238 62.978 6.08834C63.8835 6.08422 64.7897 6.08724 65.6954 6.08724C65.5369 6.31611 65.3353 6.53629 65.1355 6.74412C65.0356 6.84798 64.9517 6.95497 64.8523 7.06939L63.1219 9.03687C63.0302 9.15172 62.9448 9.2446 62.8431 9.36635C62.7433 9.48578 62.6647 9.55982 62.5571 9.68897C62.4579 9.80813 62.3786 9.88266 62.2712 10.0116C61.9242 10.4281 61.3111 10.9211 61.3111 11.5719C61.3111 12.2486 62.0782 12.4015 62.7884 12.4015H68.221C69.0612 12.4015 69.9842 12.1209 69.9842 11.3414C69.9842 10.8796 69.9425 10.4951 69.4217 10.2263C69.0997 10.0601 68.7084 10.003 68.2212 10.0047C67.2683 10.0082 66.3147 10.0048 65.3618 10.0048L69.1889 5.64068C69.6935 5.06195 70.197 4.08412 69.1156 3.83945C68.3192 3.6593 64.2952 3.73675 63.265 3.73675C62.3321 3.73675 61.4064 3.99293 61.4064 4.88897L61.4065 4.88893Z" fill="#58627F"/>
<path fill-rule="evenodd" clip-rule="evenodd" d="M13.0374 7.83861C13.0374 9.28689 13.3009 10.2813 14.3598 11.3068C15.1322 12.0548 16.2724 12.5858 17.4216 12.5858C18.6103 12.5858 19.9602 12.5788 20.8898 11.6999C21.6894 10.9439 21.1948 9.77437 20.0902 9.77437C19.3731 9.77437 19.4067 10.1431 17.9934 10.1431C15.2966 10.1431 15.5376 5.90288 17.8028 5.90288C19.4286 5.90288 19.118 6.27159 20.1379 6.27159C20.7156 6.27159 21.2815 5.84159 21.2815 5.30371C21.2815 4.55774 21.004 4.18345 20.1589 3.85463C18.8882 3.36026 17.2827 3.42234 15.9974 3.83416C15.7331 3.91884 15.4174 4.0681 15.1833 4.19908C13.9288 4.90102 13.0374 6.3657 13.0374 7.83864L13.0374 7.83861Z" fill="#58627F"/>
<path fill-rule="evenodd" clip-rule="evenodd" d="M2.60104 11.0648C2.48709 10.652 -0.140723 8.20442 2.72319 4.63827C3.73001 3.38457 5.30986 2.56977 6.79536 1.93987C8.27012 1.31455 10.8044 0.832023 12.5608 0.833019L14.801 0.87868C16.346 0.916477 19.0696 1.67291 20.249 2.24636C20.9597 2.59187 21.7782 3.01032 22.3886 3.49547C22.6197 3.67908 22.802 3.85595 23.0447 4.01314C22.974 3.757 22.0395 2.94744 21.7718 2.7554C21.5061 2.56473 21.3058 2.41573 21.0244 2.23382C20.2419 1.72796 18.8676 1.10264 17.9738 0.851868C17.7661 0.793596 17.634 0.753078 17.4636 0.700117C17.1366 0.598474 16.7938 0.532073 16.44 0.445662C15.3809 0.186959 14.146 0.0428406 12.8791 0.00341797H11.4243C9.89523 0.050307 8.39886 0.243471 7.18558 0.565921C5.84656 0.921786 4.61328 1.37027 3.5213 1.9996C2.48521 2.59672 1.46898 3.39546 0.818065 4.36277C0.356341 5.04892 0.0881318 5.79586 0.02771 6.55109V7.20572C0.102886 8.14005 0.502404 9.06399 1.25443 9.87832C1.37332 10.007 1.4089 10.075 1.54004 10.2012L2.39377 10.9426C2.51814 11.0388 2.43312 11.0214 2.60104 11.0647V11.0648ZM2.60104 11.0648V11.1108L2.65662 11.0724L2.60104 11.0648ZM23.0924 4.05924V4.10533L23.1479 4.0669L23.0924 4.05924Z" fill="#58627F"/>
</g>
<defs>
<clipPath id="clip0_23_568">
<rect width="70" height="16" fill="white"/>
</clipPath>
</defs>
</svg>
