<svg width="48" height="22" viewBox="0 0 48 22" fill="none" xmlns="http://www.w3.org/2000/svg">
<path fill-rule="evenodd" clip-rule="evenodd" d="M22.1379 17.2198V11.4525H25.1315C26.3582 11.4525 27.3936 11.0438 28.2376 10.2378L28.4402 10.0334C29.982 8.36453 29.8807 5.76472 28.2376 4.22072C27.4161 3.40331 26.2906 2.96055 25.1315 2.98325H20.3259V17.2198H22.1379ZM22.1381 9.7042V4.73162H25.1772C25.83 4.73162 26.4491 4.98139 26.9106 5.43551C27.8899 6.38915 27.9124 7.97856 26.9669 8.96626C26.5054 9.45444 25.8525 9.7269 25.1772 9.7042H22.1381ZM36.8922 8.23967C36.1156 7.52444 35.0577 7.16115 33.7185 7.16115C31.9966 7.16115 30.7024 7.79691 29.847 9.05708L31.4451 10.0675C32.0304 9.20467 32.8294 8.77326 33.8423 8.77326C34.4838 8.77326 35.1027 9.01167 35.5867 9.44308C36.0594 9.85179 36.3295 10.4421 36.3295 11.0665V11.4866C35.6317 11.1006 34.7539 10.8963 33.6735 10.8963C32.413 10.8963 31.4001 11.1914 30.6461 11.7931C29.8921 12.3948 29.5094 13.1895 29.5094 14.1999C29.4869 15.1195 29.8808 15.9937 30.5786 16.5841C31.2876 17.2198 32.1879 17.5377 33.2458 17.5377C34.495 17.5377 35.4854 16.9814 36.2394 15.8688H36.3182V17.2198H38.0513V11.2141C38.0513 9.95396 37.6687 8.95491 36.8922 8.23967ZM31.9744 15.426C31.603 15.1535 31.3778 14.7108 31.3778 14.234C31.3778 13.7004 31.6255 13.2576 32.1095 12.9057C32.6047 12.5537 33.2238 12.3721 33.9555 12.3721C34.9685 12.3607 35.7564 12.5878 36.3192 13.0419C36.3192 13.8139 36.0153 14.4837 35.4187 15.0514C34.8785 15.5963 34.1468 15.9028 33.3814 15.9028C32.8749 15.9142 32.3796 15.7439 31.9744 15.426ZM41.9453 21.4999L48.0001 7.47905H46.0306L43.2283 14.4724H43.1945L40.3247 7.47905H38.3552L42.3279 16.5954L40.0771 21.4999H41.9453Z" fill="#58627F"/>
<path d="M15.8824 10.2039C15.8824 9.64762 15.8373 9.09133 15.7473 8.54639H8.10571V11.6911H12.4836C12.3035 12.7016 11.7183 13.6098 10.863 14.1774V16.221H13.474C15.0045 14.8018 15.8824 12.7016 15.8824 10.2039Z" fill="#58627F"/>
<path d="M8.10607 18.1963C10.2894 18.1963 12.1351 17.4697 13.4743 16.2209L10.8634 14.1773C10.1318 14.6769 9.19773 14.9607 8.10607 14.9607C5.99029 14.9607 4.20087 13.5189 3.55938 11.5889H0.869629V13.7005C2.24264 16.4593 5.04493 18.1963 8.10607 18.1963Z" fill="#58627F"/>
<path d="M3.5597 11.5892C3.22203 10.5787 3.22203 9.47752 3.5597 8.45576V6.35547H0.869525C-0.289842 8.66011 -0.289842 11.3848 0.869525 13.6894L3.5597 11.5892Z" fill="#58627F"/>
<path d="M8.10607 5.08373C9.26526 5.06102 10.3794 5.50379 11.2122 6.30984L13.5306 3.97114C12.0563 2.58609 10.1206 1.82544 8.10607 1.84815C5.04493 1.84815 2.24264 3.5965 0.869629 6.35525L3.55938 8.4669C4.20087 6.52555 5.99029 5.08373 8.10607 5.08373Z" fill="#58627F"/>
</svg>
