<svg width="22" height="17" viewBox="0 0 22 17" fill="none" xmlns="http://www.w3.org/2000/svg">
<path fill-rule="evenodd" clip-rule="evenodd" d="M0.664185 0.146973H11.4425C18.7666 0.146973 21.5811 3.85851 21.5811 8.54989C21.5811 14.1617 17.6472 16.9825 11.4425 16.9825H0.664185V0.146973ZM1.68754 1.15657V16.0324H11.4424C17.3272 16.0324 20.5255 13.4789 20.5255 8.57964C20.5255 3.53195 17.0714 1.15657 11.4424 1.15657H1.68754ZM4.5661 8.84685C5.64359 8.84685 6.51706 8.03594 6.51706 7.03562C6.51706 6.03531 5.64359 5.2244 4.5661 5.2244C3.48861 5.2244 2.61514 6.03531 2.61514 7.03562C2.61514 8.03594 3.48861 8.84685 4.5661 8.84685ZM2.99903 9.61882H6.13337V14.7853H2.99903V9.61882Z" fill="#58627F"/>
<path fill-rule="evenodd" clip-rule="evenodd" d="M16.9755 5.37276H17.871V7.86691H19.1824C18.8305 3.32399 14.9606 2.31445 11.4425 2.31445H7.70044V5.37276H8.24416C9.26761 5.37276 9.87529 5.9963 9.87529 7.03553C9.87529 8.07476 9.26761 8.6983 8.27614 8.6983H7.70044V14.7852H11.4425C17.1674 14.7852 19.1184 12.3208 19.2143 8.6983H16.9755V5.37276ZM12.6578 7.86692V8.6983H10.419V5.37276H12.5938V6.20415H11.3145V6.59015H12.5299V7.42153H11.3465V7.86692H12.6578ZM13.0415 8.6983L14.1289 5.37276H15.4083L16.4957 8.6983H15.5682L15.3763 8.07476H14.1929L14.001 8.6983H13.0415ZM14.4588 7.21363H14.4488V7.24332L14.4588 7.21363ZM14.4588 7.21363H15.0885L14.8006 6.29317H14.7687L14.4588 7.21363ZM7.70044 7.86687V6.2041H8.24415C8.59596 6.2041 8.97976 6.29317 8.97976 7.03548C8.97976 7.77779 8.62795 7.86687 8.24415 7.86687H7.70044Z" fill="#58627F"/>
</svg>
