<?xml version="1.0" standalone="no"?>
<!DOCTYPE svg PUBLIC "-//W3C//DTD SVG 20010904//EN"
 "http://www.w3.org/TR/2001/REC-SVG-20010904/DTD/svg10.dtd">
<svg version="1.0" xmlns="http://www.w3.org/2000/svg"
 width="2000.000000pt" height="1493.000000pt" viewBox="0 0 2000.000000 1493.000000"
 preserveAspectRatio="xMidYMid meet">

<g transform="translate(0.000000,1493.000000) scale(0.100000,-0.100000)"
fill="#58627F" stroke="none">
<path d="M9770 11863 c-1175 -69 -2254 -715 -2891 -1730 -102 -162 -252 -467
-318 -645 -334 -901 -306 -1895 79 -2774 57 -130 99 -203 148 -256 l26 -28
719 0 719 0 -94 103 c-502 545 -727 1284 -618 2030 64 430 248 850 526 1197
353 440 880 760 1436 874 258 53 180 51 2608 51 l2265 0 5 -438 5 -438 1255
1026 c690 565 1257 1029 1259 1031 5 5 -7050 2 -7129 -3z"/>
<path d="M10015 10078 c-2 -13 -12 -86 -20 -163 -22 -194 -18 -181 -67 -189
-75 -12 -246 -74 -346 -126 -196 -100 -344 -246 -432 -425 -73 -149 -94 -233
-94 -390 -1 -158 20 -235 92 -346 122 -187 299 -299 717 -454 158 -59 252
-112 320 -180 65 -65 85 -108 85 -187 0 -137 -98 -245 -272 -300 -63 -20 -94
-23 -233 -23 -248 0 -452 47 -665 154 l-98 49 -58 -151 c-31 -84 -79 -208
-105 -277 -26 -69 -45 -129 -42 -134 9 -14 163 -82 248 -109 115 -36 257 -65
402 -82 69 -8 128 -16 130 -18 3 -3 -21 -208 -32 -269 l-4 -28 233 0 234 0 6
28 c3 15 13 90 22 168 l17 141 61 12 c94 19 255 75 343 119 300 152 498 409
552 716 14 77 14 260 0 328 -16 79 -91 225 -147 288 -106 118 -271 216 -557
330 -340 135 -481 230 -501 337 -16 83 24 188 89 237 93 70 193 96 367 96 222
0 376 -35 621 -143 l36 -16 103 270 c56 149 100 272 98 274 -1 2 -41 19 -88
38 -133 55 -317 96 -502 112 -92 8 -86 -11 -59 198 l17 137 -233 0 -233 0 -5
-22z"/>
<path d="M11766 10078 c10 -13 53 -59 94 -103 319 -338 545 -841 611 -1355 16
-124 16 -459 1 -580 -97 -739 -486 -1370 -1100 -1784 -225 -151 -550 -291
-816 -351 -285 -63 -94 -59 -2628 -62 l-2308 -3 -2 439 -3 440 -185 -152
c-102 -84 -667 -546 -1255 -1027 l-1069 -875 3540 -3 c3080 -2 3560 -1 3699
13 1170 109 2198 759 2810 1776 260 432 421 902 492 1434 21 164 25 675 5 835
-19 155 -59 378 -88 494 -83 334 -232 706 -333 834 l-41 52 -722 0 -721 0 19
-22z"/>


</g>
</svg>
