<svg width="299" height="48" viewBox="0 0 299 48" fill="none" xmlns="http://www.w3.org/2000/svg">
<path d="M127.2 46.7C124 45.7 123.9 45.6 124.6 41.1C125 38.6 125.4 36.3 125.6 36.1C125.9 35.8 128.3 36.2 131 36.9C137.3 38.5 140.2 37.7 139.8 34.3C139.6 32.5 138.2 31 134.5 29C131.8 27.5 128.3 25.1 126.9 23.7C120.6 17.6 122.9 4.4 130.8 1.1C132.4 0.4 137.2 0 142.1 0.2L150.5 0.5L150.4 5.8C150.3 8.7 150.1 11.3 149.9 11.5C149.7 11.6 147.3 11.4 144.5 11C134.1 9.4 132.9 14.1 142.4 19.4C150 23.7 152.4 26.9 152.4 33.1C152.4 39.5 150.5 43.3 146.1 45.8C141.8 48.2 133.1 48.6 127.2 46.7ZM62 23.5V0H74V47H62V23.5ZM84 23.5V0H95L97.4 5.3C98.7 8.1 100.9 13.2 102.2 16.4C106 25.9 107 24.9 107 11.6V0H117V47H111.2C105.7 47 105.4 46.9 104.1 43.8C98.9 31.8 95.6 25 94.8 25C94.4 25 94 30 94 36V47H84V23.5ZM164 29V11H155V0H186V3.9C186 10 185.3 11 180.9 11H177V47H164V29ZM188 44.9C188 43.8 188.4 41 188.9 38.7C189.4 36.4 190.3 32 190.8 29C191.4 26 192.9 18.2 194.1 11.7L196.4 0H214.6L215.9 6.8C219.9 28.2 221.2 34.9 222.1 38.7C223.9 46.8 223.7 47 217.1 47H211.1L210.8 43.8C210.5 40.6 210.4 40.5 205.4 40.2L200.2 39.9L199.6 43.5L198.9 47H193.5C188.6 47 188 46.8 188 44.9ZM208.6 29.6C208.3 28.3 207.6 24.2 207.1 20.5C205.6 10.3 205.1 10.5 203.1 22.1C201.5 32 201.5 32 205.6 32C208.9 32 209.2 31.8 208.6 29.6ZM229 23.5V0H240.8L245.5 11.5C248.1 17.8 250.7 23 251.1 23C251.6 23 252 17.8 252 11.5V0H263V47H250.9L248.1 40.8C241.8 26.7 240.9 25 240 25C239.4 25 239 29.5 239 36V47H229V23.5ZM277 29V11H267V0H283.1C297.4 0 299.1 0.2 298.6 1.6C298.3 2.5 298 4.9 298 7.1V11H289V47H277V29Z" fill="#4C5676"/>
<path fill-rule="evenodd" clip-rule="evenodd" d="M0 45V42H49V48H0V45ZM0 28.5V21H3.8C5.9 21 8.1 21.5 8.8 22.2C10.4 23.8 10.4 27 8.8 27C7.9 27 7.9 27.3 8.8 28.2C10.3 29.7 10.3 33.3 8.8 34.8C8.1 35.5 5.9 36 3.8 36H0V28.5ZM12.6 32.8C13 31 13.6 27.7 13.9 25.5C14.4 22.1 14.9 21.5 17.2 21.2C19.4 20.9 20 21.4 20.8 24.2C22.6 30.1 23 36 21.5 36C20.8 36 20 35.3 19.6 34.5C19.3 33.7 18.4 31.9 17.5 31.9C16.6 31.9 15.7 33.7 15.4 34.5C15 35.3 14.1 36 13.3 36C12.2 36 12 35.3 12.6 32.8ZM26 28.5C26 22.7 26.3 21 27.4 21C28.2 21 29.4 22.6 30.1 24.5C30.8 26.4 31.8 28 32.2 28C32.6 28 33 26.4 33 24.5C33 22.1 33.5 21 34.5 21C35.7 21 36 22.5 36 28.6C36 35.2 35.8 36.1 34.3 35.8C33.3 35.6 31.9 34 31.1 32.2C29.2 28 28 28.1 28 32.5C28 34.4 27.6 36 27 36C26.4 36 26 32.8 26 28.5ZM39 28.5C39 22.5 39.3 21 40.5 21C41.6 21 42 22.1 42 24.8C42.1 28.3 42.2 28.4 43.5 26.6C44.0569 25.8343 44.3644 24.8158 44.6397 23.9037L44.6397 23.9037C44.7599 23.5055 44.874 23.1277 45 22.8C45.5 21.5 45.7 21 47 21C47.0558 21 47.1104 21 47.1636 20.9999C48.0521 20.999 48.581 20.9985 48.7854 21.2558C49.086 21.6342 48.6847 22.5702 47.6931 24.8828C47.6626 24.9539 47.6316 25.0263 47.6 25.1C47.5435 25.1957 47.4884 25.2888 47.4348 25.3795C46.2132 27.4452 45.7444 28.2379 45.846 28.9492C45.9093 29.3921 46.1938 29.8035 46.6555 30.471C46.9164 30.8482 47.2339 31.3072 47.6 31.9C47.6344 31.9803 47.6682 32.059 47.7013 32.1362C48.7076 34.4832 49.103 35.4054 48.8089 35.7673C48.6186 36.0015 48.1394 36.001 47.35 36.0001C47.3012 36.0001 47.2512 36 47.2 36C46.2 36 44.9 34.7 44 32.8L42.7 29.5L42.3 32.8C42 34.7 41.3 36 40.4 36C39.3 36 39 34.4 39 28.5ZM0 12.6C0 9.90002 0.5 9.10002 2.8 8.20002C4.3 7.70002 9.8 5.70002 15 3.80002L24.5 0.400024L32.5 3.30002C33.974 3.82122 35.3174 4.294 36.5416 4.72485C46.2421 8.13885 48.4617 8.92002 48.9238 10.2928C49.0609 10.7001 49.0433 11.1595 49.0205 11.7552C49.0107 12.0097 49 12.2892 49 12.6V16H0V12.6ZM4 31.5C4 30.7 4.5 30 5 30C5.6 30 6 30.7 6 31.5C6 32.3 5.6 33 5 33C4.5 33 4 32.3 4 31.5ZM4 25.5C4 24.7 4.5 24 5 24C5.6 24 6 24.7 6 25.5C6 26.3 5.6 27 5 27C4.5 27 4 26.3 4 25.5ZM17.2446 29C17.7446 29 18.5 28.3 18.5 27.5C18.5 26.7 17.7446 25 17.2446 25C16.6446 25 16 26.7 16 27.5C16 28.3 16.6446 29 17.2446 29Z" fill="#58627F"/>
</svg>
