<svg width="24" height="26" viewBox="0 0 24 26" fill="none" xmlns="http://www.w3.org/2000/svg">
<path fill-rule="evenodd" clip-rule="evenodd" d="M23.5918 22.8833C23.5918 23.407 23.3884 23.9092 23.0265 24.2795C22.6646 24.6499 22.1737 24.8579 21.6618 24.8579H2.34255C2.08892 24.8582 1.83772 24.8073 1.60331 24.7082C1.36891 24.6091 1.15589 24.4637 0.976445 24.2803C0.797 24.0969 0.654645 23.8792 0.557519 23.6394C0.460393 23.3997 0.4104 23.1428 0.4104 22.8833V3.11769C0.4104 2.85819 0.460393 2.60124 0.557519 2.36152C0.654645 2.1218 0.797 1.90402 0.976445 1.72063C1.15589 1.53724 1.36891 1.39183 1.60331 1.29273C1.83772 1.19363 2.08892 1.14277 2.34255 1.14307H21.6605C22.1723 1.14307 22.6632 1.35111 23.0252 1.72142C23.3871 2.09174 23.5904 2.59399 23.5904 3.11769L23.5918 22.8833Z" fill="#58627F"/>
<path d="M13.3539 13.2564V9.00965L14.4377 8.74712V9.30315C14.4377 9.30315 14.718 8.57119 15.3689 8.40111C15.5694 8.3495 15.6702 8.38046 15.6702 8.38046V9.46382C15.4752 9.46654 15.2825 9.50768 15.1027 9.58499C14.7009 9.747 14.4991 10.1015 14.4991 10.6401V12.9849L13.3539 13.2564ZM7.64252 14.6373C7.64252 14.6373 7.46707 14.3681 7.46707 13.4113V11.2971L6.90914 11.4317V10.5615L7.46751 10.4269V9.47728L8.61978 9.19904V10.1464L9.43386 9.94895V10.8196L8.61978 11.0175V13.1716C8.61978 14.1504 8.87374 14.3385 8.87374 14.3385L7.64252 14.6373ZM9.55405 12.1112C9.55405 11.3559 9.65932 10.8052 9.88477 10.3825C10.1528 9.88073 10.5936 9.55402 11.2349 9.40458C12.4985 9.11063 12.9543 9.87624 12.9363 10.9022C12.9306 11.2688 12.9319 11.4479 12.9319 11.4479L10.7054 11.9833V12.0201C10.7054 12.7381 10.8528 13.0778 11.2967 12.9809C11.6801 12.8983 11.7867 12.6524 11.8169 12.349C11.8222 12.2992 11.8239 12.1749 11.8239 12.1749L12.8674 11.9191C12.8674 11.9191 12.8701 12.0066 12.8674 12.104C12.8578 12.5119 12.742 13.5235 11.2923 13.8735C9.91942 14.207 9.55273 13.3489 9.55273 12.1112H9.55405ZM11.2796 10.1953C10.9107 10.281 10.7173 10.6513 10.7094 11.2648L11.8296 10.9919C11.8318 10.9641 11.8318 10.9022 11.8318 10.807C11.8296 10.3443 11.6897 10.1002 11.28 10.1953H11.2796ZM19.5679 9.62762C19.524 8.33424 19.8521 7.30743 21.2623 6.97982C22.1623 6.77069 22.5032 7.00944 22.676 7.24057C22.8422 7.46136 22.9062 7.7589 22.9062 8.17582V8.25301L21.8018 8.52228V8.36476C21.8018 7.8711 21.6702 7.68261 21.3193 7.77237C20.9022 7.87963 20.7337 8.28443 20.7337 9.09043V9.46606C20.7337 10.2851 20.8434 10.6603 21.3237 10.557C21.7413 10.4673 21.7983 10.0939 21.8062 9.7654C21.8062 9.71379 21.8092 9.54864 21.8092 9.54864L22.912 9.28296V9.45843C22.9089 10.5319 22.3558 11.2087 21.3189 11.4555C19.892 11.7984 19.6122 10.9533 19.5683 9.62762H19.5679ZM15.7531 11.438C15.7531 10.4543 16.3172 10.1433 17.1651 9.78469C17.927 9.46202 17.9432 9.30181 17.9467 9.02177C17.9507 8.78616 17.8441 8.58376 17.4642 8.68294C17.1155 8.7727 17.023 9.03209 17.0045 9.23853C16.9981 9.31103 16.9958 9.38386 16.9975 9.45664L15.9286 9.71468C15.9214 9.49671 15.9462 9.27887 16.0023 9.06844C16.1733 8.48009 16.6808 8.08427 17.5555 7.87738C18.6924 7.60812 19.0718 8.11972 19.0735 8.91406V10.7949C19.0735 11.7046 19.2385 11.8374 19.2385 11.8374L18.1888 12.0919C18.1308 11.9677 18.0835 11.8385 18.0476 11.7059C18.0476 11.7059 17.8182 12.2979 17.026 12.489C16.1926 12.6892 15.754 12.1623 15.754 11.4384L15.7531 11.438ZM17.9406 10.0952C17.7636 10.2222 17.5767 10.334 17.3818 10.4296C17.0309 10.6051 16.8734 10.8205 16.8734 11.1526C16.8734 11.4402 17.0488 11.6296 17.3647 11.5488C17.7046 11.4618 17.9406 11.1373 17.9406 10.6872V10.0952ZM1.61931 17.6141C1.49953 17.6138 1.38203 17.5805 1.27917 17.5177C1.17632 17.4549 1.09193 17.3649 1.03487 17.2571C0.977807 17.1494 0.950195 17.0279 0.954938 16.9054C0.959681 16.7829 0.996604 16.6641 1.06182 16.5613L1.06884 16.5518L1.08156 16.5487L2.64745 16.1704V17.3879L2.62289 17.3937C2.2676 17.4813 1.84301 17.5804 1.75529 17.5988C1.71037 17.6091 1.66446 17.6142 1.61843 17.6141H1.61931ZM1.61931 19.1718C1.44333 19.1718 1.27453 19.1004 1.14989 18.9733C1.02525 18.8462 0.954936 18.6737 0.954355 18.4937C0.953654 18.3623 0.991052 18.2336 1.06182 18.1239L1.06884 18.1118L1.08156 18.1091L2.64745 17.7308V18.9483L2.62289 18.955C2.2676 19.0421 1.84301 19.1431 1.75529 19.1606C1.71021 19.1696 1.66437 19.1741 1.61843 19.174L1.61931 19.1718ZM1.61931 20.7322C1.44291 20.7321 1.27378 20.6603 1.14909 20.5326C1.0244 20.405 0.954355 20.2319 0.954355 20.0514C0.953654 19.92 0.991052 19.7913 1.06182 19.6816L1.06884 19.6691L2.64789 19.2885V20.506L2.62333 20.5123C2.2483 20.6048 1.83117 20.7012 1.75572 20.7187C1.71061 20.7276 1.6648 20.7321 1.61887 20.7322" fill="#050E28"/>
<path d="M1.43501 16.1221L1.43457 9.3101L2.64825 9.0166V15.8282L1.43501 16.1221Z" fill="#050E28"/>
<path d="M4.45848 15.5425C4.45375 15.3425 4.37276 15.1523 4.23282 15.0126C4.09288 14.8728 3.90508 14.7946 3.70952 14.7946C3.51397 14.7946 3.32617 14.8728 3.18623 15.0126C3.04629 15.1523 2.9653 15.3425 2.96057 15.5425V21.9098C2.9615 22.4597 3.17538 22.9868 3.55536 23.3756C3.93534 23.7645 4.45046 23.9834 4.9879 23.9845C5.5546 23.9845 7.10734 23.9818 7.10734 23.9818V18.3636C7.10762 18.1984 7.06801 18.0357 6.99202 17.89C6.91603 17.7443 6.80602 17.6201 6.67178 17.5284L4.78218 16.2153V19.1969C4.78332 19.2193 4.78001 19.2416 4.77245 19.2626C4.76488 19.2835 4.75323 19.3027 4.73819 19.3189C4.72315 19.3351 4.70504 19.348 4.68497 19.3569C4.66489 19.3657 4.64327 19.3702 4.62143 19.3702C4.59958 19.3702 4.57796 19.3657 4.55789 19.3569C4.53782 19.348 4.51971 19.3351 4.50467 19.3189C4.48963 19.3027 4.47797 19.2835 4.47041 19.2626C4.46284 19.2416 4.45953 19.2193 4.46067 19.1969C4.46067 19.1651 4.45672 15.9361 4.45672 15.5425H4.45848ZM5.46995 10.7922C5.24047 10.8465 5.02513 10.9507 4.83862 11.0979C4.65211 11.245 4.49881 11.4316 4.38918 11.6449V11.1678L3.29656 11.4326V14.4901C3.4882 14.4128 3.69701 14.3911 3.89995 14.4274C4.10289 14.4638 4.29207 14.5568 4.44664 14.6961V12.7215C4.44664 12.2489 4.67735 11.8711 5.00544 11.797C5.25327 11.7414 5.45942 11.832 5.45942 12.2822V15.1629L6.60994 14.8864V11.8397C6.60994 11.1005 6.33273 10.5831 5.46951 10.7922H5.46995ZM22.1969 6.43232C22.0561 6.43241 21.9185 6.38978 21.8014 6.30982C21.6842 6.22986 21.5929 6.11616 21.539 5.9831C21.485 5.85005 21.4708 5.7036 21.4982 5.5623C21.5256 5.42099 21.5933 5.29116 21.6928 5.18924C21.7923 5.08731 21.9191 5.01786 22.0572 4.98967C22.1953 4.96148 22.3384 4.97581 22.4685 5.03086C22.5986 5.0859 22.7099 5.17919 22.7882 5.29892C22.8665 5.41865 22.9083 5.55945 22.9084 5.70351C22.908 5.89641 22.833 6.08131 22.6996 6.21767C22.5662 6.35403 22.3855 6.43074 22.1969 6.43098V6.43232ZM22.1969 5.06624C22.0739 5.06624 21.9535 5.10358 21.8512 5.17353C21.7488 5.24349 21.6691 5.34292 21.6219 5.45925C21.5748 5.57559 21.5625 5.70361 21.5865 5.82713C21.6104 5.95065 21.6697 6.06412 21.7567 6.1532C21.8437 6.24227 21.9545 6.30296 22.0752 6.32758C22.1959 6.35221 22.3211 6.33966 22.4348 6.29153C22.5486 6.2434 22.6458 6.16184 22.7142 6.05718C22.7827 5.95251 22.8193 5.82944 22.8193 5.70351C22.8191 5.53464 22.7535 5.37276 22.6368 5.25331C22.5202 5.13386 22.362 5.0666 22.1969 5.06624Z" fill="#050E28"/>
<path d="M21.9377 5.27051H22.2448C22.3672 5.27051 22.4641 5.33289 22.4641 5.49849C22.4641 5.61382 22.4141 5.70268 22.3193 5.71794C22.4071 5.72692 22.4509 5.77538 22.4549 5.90059C22.4549 5.95669 22.4575 6.0267 22.4601 6.0801C22.4601 6.09536 22.4639 6.11037 22.4711 6.12372C22.4783 6.13707 22.4887 6.14831 22.5014 6.1564H22.3452C22.3295 6.13338 22.3212 6.10593 22.3215 6.07786C22.3163 6.02446 22.3172 5.97464 22.3154 5.91002C22.3154 5.81308 22.2843 5.77045 22.1886 5.77045H22.0785V6.1564H21.9395L21.9377 5.27051ZM22.1873 5.66633C22.2062 5.66812 22.2252 5.66558 22.243 5.65891C22.2608 5.65224 22.2769 5.6416 22.2902 5.62776C22.3034 5.61393 22.3135 5.59724 22.3197 5.57892C22.3259 5.56059 22.328 5.54109 22.3259 5.52182C22.3259 5.42713 22.2865 5.37777 22.1943 5.37777H22.0785V5.66633H22.1873Z" fill="#050E28"/>
</svg>
