<svg width="59" height="15" viewBox="0 0 59 15" fill="none" xmlns="http://www.w3.org/2000/svg">
<path fill-rule="evenodd" clip-rule="evenodd" d="M3.39744 14.582H0.5V0H3.39744V14.582ZM10.6312 0H7.79658C7.79658 2.68346 6.7284 5.14645 4.86603 6.75782L3.74301 7.72923L8.09435 14.5826H11.672L7.66818 8.27644C9.56605 6.0936 10.6312 3.15689 10.6312 0ZM15.2526 14.578H12.5163V0.00279672H15.2526V14.578ZM23.5198 4.49572V5.14068C22.7815 4.55892 21.8903 4.21704 20.9292 4.21704C18.3853 4.21704 16.3232 6.59889 16.3232 9.53707C16.3232 12.4753 18.3853 14.8571 20.9292 14.8571C21.8903 14.8571 22.7815 14.5152 23.5198 13.9336V14.578H26.1334V4.49572H23.5198ZM23.5119 9.53739C23.5119 10.97 22.4516 12.1315 21.1437 12.1315C19.8359 12.1315 18.7756 10.97 18.7756 9.53739C18.7756 8.10475 19.8359 6.94359 21.1437 6.94359C22.4516 6.94359 23.5119 8.10475 23.5119 9.53739ZM51.0917 5.14068V4.49572H53.7051V14.578H51.0917V13.9336C50.3534 14.5152 49.4622 14.8571 48.5009 14.8571C45.9571 14.8571 43.8949 12.4753 43.8949 9.53707C43.8949 6.59889 45.9571 4.21704 48.5009 4.21704C49.4622 4.21704 50.3534 4.55892 51.0917 5.14068ZM48.7155 12.1315C50.0234 12.1315 51.0836 10.97 51.0836 9.53739C51.0836 8.10475 50.0234 6.94359 48.7155 6.94359C47.4076 6.94359 46.3474 8.10475 46.3474 9.53739C46.3474 10.97 47.4076 12.1315 48.7155 12.1315ZM39.2508 4.2248C38.2068 4.2248 37.2188 4.59916 36.5582 5.63201V4.49657H33.956V14.5782H36.5901V9.27997C36.5901 7.74679 37.4803 6.99601 38.552 6.99601C39.7006 6.99601 40.361 7.78854 40.361 9.2591V14.5782H42.9713V8.16672C42.9713 5.82044 41.3562 4.2248 39.2508 4.2248ZM30.1763 4.49574V5.80889C30.7002 5.02121 31.6764 4.49633 32.7377 4.49633V7.4301L32.729 7.42979L32.7231 7.42945C32.7177 7.42911 32.7122 7.42878 32.7066 7.42878C31.6725 7.42878 30.1823 8.28245 30.1823 9.8706V14.5779H27.5005V4.49574H30.1763ZM54.8394 12.8961C54.8394 11.8498 55.5736 11.0017 56.4794 11.0017C57.3851 11.0017 58.1195 11.8498 58.1195 12.8961C58.1195 13.9421 57.3851 14.7903 56.4794 14.7903C55.5736 14.7903 54.8394 13.9421 54.8394 12.8961Z" fill="#58627F"/>
</svg>
