<svg width="30" height="22" viewBox="0 0 30 22" fill="none" xmlns="http://www.w3.org/2000/svg">
<g clip-path="url(#clip0_23_512)">
<path d="M5.43739 21.9517V20.4917C5.43739 19.9332 5.0771 19.5674 4.45861 19.5674C4.14936 19.5674 3.81309 19.6638 3.58191 19.9814C3.40176 19.7149 3.14356 19.5674 2.75625 19.5674C2.49804 19.5674 2.23984 19.6411 2.03567 19.9076V19.6156H1.49524V21.9517H2.03567V20.6618C2.03567 20.2478 2.26686 20.0522 2.62714 20.0522C2.98743 20.0522 3.16758 20.2705 3.16758 20.6618V21.9517H3.70801V20.6618C3.70801 20.2478 3.96622 20.0522 4.29948 20.0522C4.65977 20.0522 4.83991 20.2705 4.83991 20.6618V21.9517H5.43739ZM13.4538 19.6156H12.5771V18.9097H12.0367V19.6156H11.5473V20.0777H12.0367V21.1494C12.0367 21.6852 12.2679 21.9999 12.8864 21.9999C13.1175 21.9999 13.3757 21.9262 13.5559 21.8298L13.3998 21.3904C13.2436 21.4868 13.0635 21.5123 12.9344 21.5123C12.6762 21.5123 12.5741 21.3649 12.5741 21.1239V20.0777H13.4508V19.6156H13.4538ZM18.0415 19.5646C17.7322 19.5646 17.5251 19.712 17.396 19.9048V19.6128H16.8555V21.9489H17.396V20.6334C17.396 20.245 17.5761 20.0239 17.9124 20.0239C18.0145 20.0239 18.1436 20.0494 18.2486 20.0721L18.4048 19.5844C18.2967 19.5646 18.1436 19.5646 18.0415 19.5646ZM11.1089 19.8084C10.8507 19.6383 10.4904 19.5646 10.1031 19.5646C9.48463 19.5646 9.0733 19.8566 9.0733 20.3187C9.0733 20.7071 9.38255 20.9283 9.92298 20.9991L10.1812 21.0247C10.4634 21.0728 10.6195 21.1466 10.6195 21.2685C10.6195 21.4386 10.4124 21.5605 10.0521 21.5605C9.6918 21.5605 9.40657 21.4386 9.22642 21.3167L8.96822 21.7051C9.25044 21.9007 9.63775 21.9971 10.0251 21.9971C10.7456 21.9971 11.16 21.6796 11.16 21.243C11.16 20.829 10.8237 20.6107 10.3103 20.537L10.0521 20.5115C9.8209 20.486 9.64076 20.4378 9.64076 20.2932C9.64076 20.1231 9.8209 20.0267 10.1061 20.0267C10.4154 20.0267 10.7246 20.1486 10.8807 20.2223L11.1089 19.8084ZM25.4874 19.5646C25.1782 19.5646 24.971 19.712 24.8419 19.9048V19.6128H24.3015V21.9489H24.8419V20.6334C24.8419 20.245 25.0221 20.0239 25.3583 20.0239C25.4604 20.0239 25.5895 20.0494 25.6946 20.0721L25.8507 19.5901C25.7456 19.5646 25.5925 19.5646 25.4874 19.5646ZM18.5819 20.7837C18.5819 21.4896 19.0983 21.9999 19.897 21.9999C20.2572 21.9999 20.5155 21.9262 20.7737 21.7334L20.5155 21.3195C20.3083 21.4669 20.1041 21.5378 19.8699 21.5378C19.4316 21.5378 19.1223 21.2458 19.1223 20.7837C19.1223 20.3442 19.4316 20.0522 19.8699 20.0296C20.1011 20.0296 20.3083 20.1033 20.5155 20.2479L20.7737 19.8339C20.5155 19.6383 20.2572 19.5674 19.897 19.5674C19.0983 19.5646 18.5819 20.0777 18.5819 20.7837ZM23.5809 20.7837V19.6156H23.0405V19.9076C22.8603 19.6893 22.6021 19.5674 22.2659 19.5674C21.5693 19.5674 21.0289 20.0777 21.0289 20.7837C21.0289 21.4896 21.5693 21.9999 22.2659 21.9999C22.6261 21.9999 22.8844 21.878 23.0405 21.6597V21.9517H23.5809V20.7837ZM21.5963 20.7837C21.5963 20.3698 21.8785 20.0296 22.3439 20.0296C22.7823 20.0296 23.0915 20.3471 23.0915 20.7837C23.0915 21.1976 22.7823 21.5378 22.3439 21.5378C21.8815 21.5123 21.5963 21.1948 21.5963 20.7837ZM15.1291 19.5646C14.4086 19.5646 13.8922 20.0522 13.8922 20.7808C13.8922 21.5123 14.4086 21.9971 15.1562 21.9971C15.5165 21.9971 15.8767 21.9007 16.162 21.6796L15.9038 21.3138C15.6966 21.4613 15.4384 21.5576 15.1832 21.5576C14.8469 21.5576 14.5137 21.4102 14.4356 20.9991H16.2641C16.2641 20.9254 16.2641 20.8772 16.2641 20.8035C16.2881 20.0522 15.8227 19.5646 15.1291 19.5646ZM15.1291 20.004C15.4654 20.004 15.6966 20.1997 15.7476 20.5625H14.4596C14.5107 20.2478 14.7418 20.004 15.1291 20.004ZM28.5559 20.7837V18.6914H28.0155V19.9076C27.8353 19.6893 27.5771 19.5674 27.2408 19.5674C26.5443 19.5674 26.0038 20.0777 26.0038 20.7837C26.0038 21.4896 26.5443 21.9999 27.2408 21.9999C27.6011 21.9999 27.8593 21.878 28.0155 21.6597V21.9517H28.5559V20.7837ZM26.5713 20.7837C26.5713 20.3698 26.8535 20.0296 27.3189 20.0296C27.7572 20.0296 28.0665 20.3471 28.0665 20.7837C28.0665 21.1976 27.7572 21.5378 27.3189 21.5378C26.8535 21.5123 26.5713 21.1948 26.5713 20.7837ZM8.47883 20.7837V19.6156H7.93839V19.9076C7.75825 19.6893 7.50004 19.5674 7.16377 19.5674C6.46722 19.5674 5.92678 20.0777 5.92678 20.7837C5.92678 21.4896 6.46722 21.9999 7.16377 21.9999C7.52406 21.9999 7.78227 21.878 7.93839 21.6597V21.9517H8.47883V20.7837ZM6.47022 20.7837C6.47022 20.3698 6.75244 20.0296 7.21782 20.0296C7.65617 20.0296 7.96541 20.3471 7.96541 20.7837C7.96541 21.1976 7.65617 21.5378 7.21782 21.5378C6.75244 21.5123 6.47022 21.1948 6.47022 20.7837Z" fill="#58627F"/>
<path d="M19.0472 1.87402H10.9287V15.6467H19.0472V1.87402Z" fill="#4C5676"/>
<path d="M11.4692 8.76031C11.4692 5.96211 12.8623 3.47861 15 1.87397C13.4267 0.705928 11.4422 0 9.27742 0C4.14932 0 0 3.91804 0 8.76031C0 13.6026 4.14932 17.5206 9.27742 17.5206C11.4422 17.5206 13.4267 16.8147 15 15.6467C12.8593 14.0647 11.4692 11.5585 11.4692 8.76031Z" fill="#626D8E"/>
<path d="M30 8.76031C30 13.6026 25.8507 17.5206 20.7226 17.5206C18.5578 17.5206 16.5733 16.8147 15 15.6467C17.1647 14.0392 18.5308 11.5585 18.5308 8.76031C18.5308 5.96211 17.1377 3.47861 15 1.87397C16.5703 0.705928 18.5548 0 20.7196 0C25.8507 0 30 3.94356 30 8.76031Z" fill="#58627F"/>
</g>
<defs>
<clipPath id="clip0_23_512">
<rect width="30" height="22" fill="white"/>
</clipPath>
</defs>
</svg>
