<svg width="62" height="14" viewBox="0 0 62 14" fill="none" xmlns="http://www.w3.org/2000/svg">
<path fill-rule="evenodd" clip-rule="evenodd" d="M0 1.8457V13.744H3.30669V5.84689C3.41894 5.93069 5.10841 9.30801 5.31599 9.73112C5.42008 9.9432 5.51986 10.1092 5.61476 10.3041C5.93409 10.9602 6.92599 13.0394 7.48884 13.4837C7.64085 13.6037 7.7973 13.7456 7.98012 13.8255C9.32297 14.4118 10.5056 13.3415 10.5056 12.0593V0.23118H7.19895V7.35615C7.09961 7.28197 6.01189 5.03761 5.80919 4.63068C5.34525 3.69929 4.91312 2.80295 4.45486 1.8691C3.85892 0.654597 3.51075 0.158703 2.21027 0.014628C1.0621 -0.112586 0 0.628298 0 1.8457ZM25.5578 9.11103C25.5578 7.44115 27.0448 6.71203 28.1189 7.23837C29.9328 8.12729 29.353 11.0414 27.3833 11.0414C26.3639 11.0414 25.5578 10.1422 25.5578 9.11103ZM22.63 8.7952C22.63 9.72514 22.6806 10.3385 23.0888 11.1706C23.4588 11.9248 23.9985 12.5996 24.6623 13.0771C28.1038 15.5531 32.1366 12.6025 32.1366 9.21635C32.1366 8.21978 32.0416 7.8014 31.6794 6.97967C31.5427 6.6695 31.2226 6.1378 30.9913 5.8908C30.8841 5.77623 30.8326 5.69306 30.7159 5.57484C29.9526 4.80156 28.8251 4.12711 27.3489 4.12711C26.5784 4.12711 26.0244 4.32844 25.4689 4.56311C24.7472 4.868 24.0256 5.53175 23.5599 6.16284L23.2261 6.70014C22.9159 7.26379 22.6299 8.00637 22.6299 8.79526L22.63 8.7952ZM12.0211 9.04082C12.0211 9.79114 12.2028 10.5142 12.4349 11.0411C12.6899 11.6201 12.8852 11.8751 13.2509 12.3155C14.9606 14.3753 17.9655 14.5282 20.0576 12.8075C20.2646 12.6371 20.4398 12.4871 20.6244 12.2969C20.725 12.1932 20.7604 12.1227 20.865 12.0156C20.9467 11.9319 21.0507 11.7993 21.1147 11.7085C21.3106 11.4302 21.8649 10.604 21.8722 10.2694C21.6176 10.2089 19.9148 9.23176 19.7022 9.1813C19.5154 9.54111 19.3609 9.88809 19.0571 10.2086C18.074 11.246 16.8867 11.7361 15.7009 10.7316C15.4709 10.5368 15.1728 9.97875 15.0818 9.67764C14.9431 9.21824 14.932 8.71165 15.045 8.22626C15.1496 7.77673 15.3387 7.3961 15.5949 7.10191C16.115 6.50479 16.9084 6.37619 17.6061 6.61401C17.7967 6.67893 17.9761 6.71876 18.0144 6.86485C17.8925 6.898 17.5358 7.16753 17.3961 7.25259C17.1958 7.37439 17.0015 7.5179 16.7951 7.65808C16.3771 7.94201 15.9761 8.20153 15.5689 8.47943C15.7682 8.78268 15.9372 9.09077 16.1402 9.40648C16.2432 9.56659 16.3207 9.70092 16.4231 9.85531C16.4874 9.95239 16.6805 10.2438 16.7055 10.3396C16.8501 10.3003 18.7979 8.89448 18.9858 8.7672C19.1756 8.6386 21.1416 7.22025 21.2867 7.1808C21.2829 7.00823 21.0809 6.72455 20.9837 6.57701C19.9822 5.05643 18.7247 4.12724 16.7056 4.12724C14.2406 4.12724 12.0212 6.43904 12.0212 9.041L12.0211 9.04082ZM40.7822 9.56729C40.7822 10.8686 41.1329 12.0523 41.7553 12.7174C41.8419 12.8099 41.8851 12.8989 41.9821 12.9776C42.0895 13.0647 42.1604 13.1309 42.2679 13.2129C42.4755 13.3713 42.6551 13.4925 42.9057 13.6159C43.9837 14.1467 45.5115 14.0941 46.6136 13.614C47.0587 13.4201 47.4459 13.0687 47.7663 12.7179C47.8881 12.5846 48.0876 12.2884 48.1767 12.1181C48.5811 11.3449 48.739 10.537 48.739 9.56729V4.37273H45.8112V9.56729C45.8112 11.4153 44.3197 11.2535 43.9262 10.5754C43.7487 10.2694 43.7101 9.96535 43.7101 9.49707V4.37273H40.7823V9.56729H40.7822ZM56.5923 3.60064V13.744H59.6578V7.11047H62V4.37279C62 4.29189 61.976 4.26748 61.8966 4.26748H59.6578C59.6578 2.91022 60.2351 3.07411 61.2422 3.07411C61.568 3.07411 62 3.14111 62 2.96879V0.231118C60.8986 0.231118 59.6241 0.120828 58.6883 0.50681C58.4397 0.609361 58.3222 0.663845 58.1093 0.794267L57.6162 1.1693C57.0455 1.72943 56.5922 2.47698 56.5922 3.60058L56.5923 3.60064ZM33.1356 6.97004C33.1356 8.18096 33.5246 8.83194 34.3064 9.39213C34.4494 9.49456 34.6554 9.6163 34.8379 9.69293L36.0097 10.2187C36.4205 10.3922 36.4767 10.4999 36.4767 10.7607C36.4767 11.2475 35.5176 11.1117 34.8923 11.1117L33.4455 11.1116C33.2767 11.1106 33.0322 11.057 33.0322 11.217V13.7441H36.7522C37.5493 13.7441 38.3835 13.3845 38.7938 12.9815C39.7543 12.0378 39.8769 10.2339 39.1713 9.41893L38.9814 9.19131C37.9014 8.19644 36.0633 7.76025 36.0633 7.35627C36.0633 7.09757 36.3243 6.90002 36.58 6.90002H39.06V4.37292H35.8911C34.9258 4.37292 33.823 4.96929 33.3877 5.85821C33.2417 6.15624 33.1356 6.53731 33.1356 6.97017V6.97004ZM50.1856 13.744H53.2167V10.0236C53.2167 9.58402 53.2539 9.23333 53.2508 8.82986C53.2477 8.43161 53.3134 8.07526 53.4771 7.8321C53.8736 7.24328 54.8364 7.21578 55.5245 7.21578V4.37286C52.9266 4.37286 53.1353 5.69514 52.8378 5.91716V4.37286H50.1856V13.7441V13.744Z" fill="#58627F"/>
</svg>
