<svg width="66" height="12" viewBox="0 0 66 12" fill="none" xmlns="http://www.w3.org/2000/svg">
<path d="M64.7941 0.912148C63.9531 0.305898 62.6801 0.000145828 61.0116 0.000145828H56.6419L55.0174 9.27919H49.293L49.6609 7.17397H53.1092L53.5178 4.80947L50.0715 4.81469L50.4405 2.71887H53.9924L54.465 0.000687473H47.2518L45.7096 8.80243H43.0625L44.6152 0.000224528H40.8446L39.3024 8.80197H36.7237L38.2778 0.000224528H34.5092L32.8827 9.27926H27.1171L27.4816 7.17404H30.9438L31.3529 4.82298L27.894 4.81933L28.261 2.71934H31.8527L32.3223 0H9.84479L8.56542 7.35296L6.01758 0H2.10552L0 12H3.73606L5.01048 4.44427L7.48286 12H20.8726L22.5006 2.71818H24.5947L22.9667 12H58.1977L59.2192 6.14097L60.8715 12H64.6095L62.8973 7.21245L63.289 7.12376C64.1518 6.92915 64.8248 6.51123 65.2934 5.88464C65.7615 5.2523 66 4.44046 66 3.46529C66 2.32998 65.6053 1.49469 64.793 0.911451L64.7941 0.912148ZM17.6214 9.27919H11.9025L12.2719 7.17397H15.859L16.2657 4.80276H12.7131L13.0552 2.71946H18.7658L17.6203 9.27916L17.6214 9.27919ZM61.7141 5.23721C61.3382 5.51373 60.7932 5.64833 60.0479 5.64833H59.309L59.8758 2.42808H60.4193C61.0382 2.42808 61.4894 2.53243 61.8008 2.74529C62.0438 2.91225 62.3329 3.24252 62.3329 3.86703C62.332 4.62251 61.9957 5.02842 61.7131 5.23712L61.7141 5.23721Z" fill="#58627F"/>
</svg>
