<?xml version="1.0" standalone="no"?>
<!DOCTYPE svg PUBLIC "-//W3C//DTD SVG 20010904//EN"
 "http://www.w3.org/TR/2001/REC-SVG-20010904/DTD/svg10.dtd">
<svg version="1.0" xmlns="http://www.w3.org/2000/svg"
 width="900.000000pt" height="500.000000pt" viewBox="0 0 900.000000 500.000000"
 preserveAspectRatio="xMidYMid meet">

<g transform="translate(0.000000,500.000000) scale(0.100000,-0.100000)"
fill="#58627F" stroke="none">
<path d="M5928 4089 c-17 -9 -18 -43 -18 -484 0 -260 3 -481 6 -490 18 -46
211 -92 344 -82 142 11 218 55 267 155 28 56 28 60 28 238 l0 180 -30 59 c-55
108 -168 156 -324 138 l-81 -9 0 143 0 143 -26 10 c-33 13 -144 12 -166 -1z
m345 -480 c62 -17 72 -43 72 -189 0 -103 -3 -131 -17 -153 -24 -35 -81 -51
-152 -43 l-56 7 0 185 c0 204 -7 182 65 197 35 8 49 7 88 -4z"/>
<path d="M1491 4050 c-40 -9 -77 -36 -105 -74 -19 -25 -21 -44 -24 -246 l-3
-220 26 -26 c26 -26 29 -26 131 -22 140 5 138 3 144 166 l5 127 424 3 c304 1
428 -1 437 -9 20 -16 21 -1737 1 -1744 -6 -3 -267 -4 -578 -3 l-566 3 319 490
c175 270 328 508 340 530 43 82 26 166 -46 219 -27 21 -35 21 -866 21 -835 0
-839 0 -867 -21 -15 -11 -38 -36 -51 -54 l-22 -33 2 -1073 3 -1073 21 -28 c12
-15 36 -37 55 -48 33 -19 55 -20 604 -23 314 -2 593 0 622 3 57 7 104 34 137
78 19 26 21 44 24 243 5 279 13 264 -147 264 -142 0 -144 -1 -151 -109 l-5
-76 -432 -3 -433 -2 -5 22 c-3 13 -4 385 -3 828 l3 805 583 3 c320 1 582 0
582 -4 0 -3 -149 -236 -331 -517 -183 -282 -336 -525 -340 -542 -22 -77 3
-146 67 -182 l39 -23 816 0 816 0 34 23 c18 12 44 38 56 56 l23 34 -2 1071 -3
1071 -23 33 c-50 70 -21 67 -682 69 -327 1 -610 -2 -629 -7z m-537 -2871 c57
-27 55 -115 -4 -139 -60 -25 -125 41 -98 97 11 24 49 52 70 53 4 0 18 -5 32
-11z"/>
<path d="M3270 4054 c-39 -16 -40 -23 -40 -499 0 -401 2 -463 16 -483 13 -20
24 -22 95 -22 124 0 119 -7 119 174 l0 154 163 4 c184 5 225 16 294 85 59 59
85 123 91 219 10 174 -58 291 -200 346 -47 18 -80 21 -288 24 -129 2 -242 1
-250 -2z m449 -229 c34 -17 54 -60 53 -114 -1 -51 -15 -77 -55 -101 -27 -17
-51 -20 -144 -20 l-113 0 0 125 0 125 115 0 c82 0 124 -4 144 -15z"/>
<path d="M4315 3804 c-109 -28 -178 -73 -211 -136 -21 -41 -10 -63 43 -88 80
-37 103 -37 141 4 77 82 212 49 212 -53 l0 -36 -113 -1 c-122 -1 -176 -12
-227 -46 -61 -42 -75 -71 -79 -164 -5 -120 21 -174 100 -214 109 -56 410 -47
505 15 l25 16 -3 262 c-3 289 -5 300 -71 367 -49 50 -108 71 -212 75 -49 2
-99 2 -110 -1z m185 -539 l0 -65 -87 0 c-100 0 -123 12 -123 66 0 50 28 64
127 64 l83 0 0 -65z"/>
<path d="M4855 3757 c-4 -13 -5 -129 -3 -258 3 -213 5 -238 24 -279 49 -106
128 -145 297 -145 l107 0 0 -51 c0 -63 -26 -100 -75 -110 -56 -10 -102 4 -138
41 -19 19 -44 35 -56 35 -12 0 -48 -14 -81 -30 -76 -38 -86 -65 -43 -118 69
-86 156 -117 307 -110 118 6 183 32 235 95 59 71 62 96 59 543 l-3 405 -88 3
c-57 2 -94 -1 -103 -9 -11 -9 -14 -58 -14 -255 l0 -244 -84 0 c-82 0 -85 1
-110 31 l-26 31 0 212 c0 152 -3 215 -12 224 -8 8 -45 12 -100 12 -84 0 -88
-1 -93 -23z"/>
<path d="M6690 3759 c-8 -15 -11 -91 -8 -253 3 -215 5 -235 27 -282 28 -63 61
-96 126 -126 43 -19 66 -23 168 -23 l117 0 0 -38 c0 -56 -26 -104 -62 -116
-65 -23 -119 -9 -167 43 -30 32 -52 32 -117 2 -56 -26 -84 -57 -77 -85 9 -37
65 -90 121 -117 75 -36 227 -45 316 -20 72 21 135 77 167 149 24 51 24 56 27
449 2 279 0 403 -8 418 -10 19 -19 21 -103 18 l-92 -3 -5 -250 -5 -250 -70 -3
c-147 -6 -149 -4 -155 283 l-5 220 -92 3 c-85 3 -93 1 -103 -19z"/>
<path d="M5690 2743 c-8 -3 -18 -11 -22 -17 -4 -6 -8 -232 -8 -503 0 -434 2
-493 16 -507 18 -18 126 -22 168 -6 l26 10 0 130 0 130 44 0 c63 0 87 -25 142
-153 53 -124 58 -127 164 -127 81 0 100 6 100 31 0 27 -157 337 -185 365 l-23
23 99 135 c54 75 99 145 99 156 0 26 -31 33 -124 28 -52 -2 -80 -8 -93 -20
-11 -10 -55 -69 -99 -132 -61 -89 -84 -115 -101 -116 l-23 0 0 278 c0 203 -3
281 -12 290 -12 12 -139 16 -168 5z"/>
<path d="M3270 2704 c-39 -16 -40 -22 -40 -505 0 -420 2 -469 16 -484 15 -15
46 -16 283 -13 302 5 326 9 407 81 64 57 84 103 84 203 0 68 -4 89 -27 135
-18 34 -42 63 -65 78 l-38 24 34 37 c44 49 61 100 60 185 -2 123 -65 209 -182
246 -39 13 -504 23 -532 13z m455 -229 c18 -17 25 -35 25 -64 0 -86 -26 -101
-180 -101 l-110 0 0 95 0 95 120 0 c115 0 122 -1 145 -25z m14 -380 c34 -17
41 -32 41 -91 0 -34 -6 -51 -25 -69 -23 -24 -29 -25 -160 -25 l-135 0 0 100 0
100 125 0 c91 0 134 -4 154 -15z"/>
<path d="M4297 2441 c-68 -23 -117 -58 -147 -106 -33 -54 -22 -77 51 -109 75
-32 80 -32 110 0 35 38 72 54 123 54 60 0 95 -30 103 -88 l6 -42 -89 0 c-169
-1 -283 -41 -317 -112 -42 -90 -29 -214 30 -279 53 -58 115 -74 283 -73 146 0
225 16 274 55 l27 21 -3 252 c-3 230 -5 255 -24 296 -48 103 -121 143 -269
147 -77 2 -113 -1 -158 -16z m241 -523 l-3 -63 -79 -3 c-100 -4 -126 10 -126
68 0 52 15 59 123 60 l88 0 -3 -62z"/>
<path d="M5103 2451 c-92 -15 -191 -50 -208 -73 -13 -19 -15 -69 -15 -334 0
-362 -7 -339 104 -339 116 0 106 -25 106 279 0 301 -9 276 100 276 122 0 129
-18 130 -333 l0 -207 28 -11 c41 -16 153 -5 169 17 20 28 18 460 -2 539 -32
123 -119 183 -271 190 -49 2 -112 0 -141 -4z"/>

</g>
</svg>
