<svg width="48" height="14" viewBox="0 0 48 14" fill="none" xmlns="http://www.w3.org/2000/svg">
<path fill-rule="evenodd" clip-rule="evenodd" d="M6.62855 0.561523H3.07286C2.82954 0.561523 2.6226 0.74205 2.58466 0.987173L1.14655 10.295C1.11797 10.4787 1.2573 10.6442 1.4398 10.6442H3.13732C3.38064 10.6442 3.58758 10.4637 3.62552 10.2181L4.0134 7.70768C4.05081 7.46182 4.25826 7.28154 4.50108 7.28154H5.62668C7.96894 7.28154 9.32065 6.12445 9.67385 3.83164C9.83289 2.82855 9.68059 2.04037 9.22031 1.48823C8.71505 0.882294 7.81857 0.561523 6.62855 0.561523ZM7.03878 3.96108C6.84437 5.26357 5.8695 5.26357 4.92689 5.26357H4.39033L4.76675 2.831C4.7891 2.68412 4.91388 2.57581 5.05946 2.57581H5.30538C5.94748 2.57581 6.55324 2.57581 6.86627 2.94939C7.05273 3.17241 7.10999 3.50349 7.03878 3.96108ZM17.2574 3.91932H15.5546C15.4096 3.91932 15.2842 4.02764 15.2618 4.17476L15.1865 4.66083L15.0674 4.48472C14.6988 3.93848 13.8769 3.75599 13.0565 3.75599C11.1747 3.75599 9.56775 5.21076 9.25472 7.25158C9.09207 8.2694 9.32329 9.24277 9.88895 9.92165C10.4079 10.5458 11.1504 10.8059 12.0337 10.8059C13.5497 10.8059 14.3906 9.81063 14.3906 9.81063L14.3146 10.2938C14.286 10.4785 14.4253 10.644 14.6067 10.644H16.1405C16.3845 10.644 16.5902 10.4635 16.6287 10.2179L17.549 4.26859C17.5781 4.0856 17.4393 3.91932 17.2574 3.91932ZM14.8838 7.30241C14.7195 8.29543 13.9474 8.96204 12.9629 8.96204C12.4684 8.96204 12.0731 8.80018 11.8195 8.4934C11.5679 8.18884 11.4721 7.75509 11.5522 7.27221C11.7057 6.28754 12.4908 5.59932 13.4604 5.59932C13.9438 5.59932 14.337 5.76315 14.5958 6.07262C14.8552 6.38529 14.9582 6.8215 14.8838 7.30241ZM24.6148 3.91908H26.3259C26.5656 3.91908 26.7054 4.19343 26.5692 4.39409L20.8782 12.7799C20.7861 12.9157 20.6342 12.9965 20.4721 12.9965H18.7631C18.5225 12.9965 18.382 12.7199 18.5213 12.5188L20.2933 9.96537L18.4087 4.31918C18.3435 4.12293 18.4854 3.91908 18.6899 3.91908H20.3713C20.5897 3.91908 20.7824 4.06546 20.8455 4.2789L21.8457 7.68901L24.2057 4.14037C24.2981 4.00185 24.4516 3.91908 24.6148 3.91908Z" fill="#58627F"/>
<path fill-rule="evenodd" clip-rule="evenodd" d="M43.1667 10.2955L44.626 0.817455C44.6483 0.670332 44.7732 0.562015 44.9183 0.561523H46.5611C46.7425 0.561523 46.8819 0.727558 46.8532 0.911278L45.4142 10.2186C45.3766 10.4642 45.1697 10.6447 44.926 10.6447H43.4588C43.2774 10.6447 43.1381 10.4792 43.1667 10.2955ZM31.991 0.562015H28.4346C28.1919 0.562015 27.985 0.742542 27.9469 0.987665L26.5089 10.2955C26.4802 10.4792 26.6195 10.6447 26.8012 10.6447H28.6259C28.7956 10.6447 28.9406 10.5185 28.9671 10.3466L29.3752 7.70817C29.4127 7.46231 29.6201 7.28203 29.8629 7.28203H30.9879C33.3307 7.28203 34.6821 6.12494 35.0356 3.83213C35.1951 2.82904 35.0418 2.04086 34.5818 1.48872C34.0768 0.882786 33.181 0.562015 31.991 0.562015ZM32.4012 3.96157C32.2073 5.26406 31.2324 5.26406 30.2892 5.26406H29.7531L30.1302 2.83149C30.1525 2.68462 30.2762 2.5763 30.4223 2.5763H30.6682C31.3098 2.5763 31.9162 2.5763 32.2289 2.94988C32.4157 3.1729 32.4724 3.50399 32.4012 3.96157ZM42.6189 3.91981H40.9173C40.771 3.91981 40.6469 4.02813 40.625 4.17525L40.5497 4.66132L40.4301 4.48522C40.0615 3.93897 39.2401 3.75648 38.4196 3.75648C36.5379 3.75648 34.9314 5.21126 34.6184 7.25207C34.4562 8.26989 34.6865 9.24326 35.2521 9.92214C35.7721 10.5462 36.5136 10.8064 37.3968 10.8064C38.9129 10.8064 39.7535 9.81112 39.7535 9.81112L39.6777 10.2942C39.6491 10.479 39.7884 10.6445 39.971 10.6445H41.5042C41.7469 10.6445 41.9538 10.464 41.9919 10.2184L42.9126 4.26908C42.9408 4.08609 42.8015 3.91981 42.6189 3.91981ZM40.2456 7.30291C40.0822 8.29593 39.3091 8.96253 38.3244 8.96253C37.8309 8.96253 37.4348 8.80067 37.181 8.49389C36.9293 8.18933 36.8348 7.75558 36.9139 7.2727C37.0682 6.28803 37.8523 5.59982 38.8219 5.59982C39.3055 5.59982 39.6984 5.76364 39.9576 6.07311C40.2179 6.38578 40.3209 6.82199 40.2456 7.30291Z" fill="#58627F"/>
</svg>
