<svg width="50" height="20" viewBox="0 0 50 20" fill="none" xmlns="http://www.w3.org/2000/svg">
<path d="M47.6953 5.42565C48.4568 5.42565 49.0741 4.81958 49.0741 4.07196C49.0741 3.32433 48.4568 2.71826 47.6953 2.71826C46.9338 2.71826 46.3165 3.32433 46.3165 4.07196C46.3165 4.81958 46.9338 5.42565 47.6953 5.42565Z" fill="#58627F"/>
<path d="M47.6953 9.66345C48.4568 9.66345 49.0741 9.05738 49.0741 8.30975C49.0741 7.56213 48.4568 6.95605 47.6953 6.95605C46.9338 6.95605 46.3165 7.56213 46.3165 8.30975C46.3165 9.05738 46.9338 9.66345 47.6953 9.66345Z" fill="#58627F"/>
<path fill-rule="evenodd" clip-rule="evenodd" d="M4.43618 6.22962H3.09839V9.50862H0.925903V0.533246H4.43618C6.52958 0.533246 7.52339 1.72977 7.52339 3.31642C7.52339 5.15003 6.19799 6.22962 4.43618 6.22962ZM4.11031 2.09369H3.09839V4.66824H4.19797C4.95834 4.66824 5.45858 4.17429 5.4138 3.28554C5.3795 2.61291 4.79635 2.09369 4.11031 2.09369ZM13.5168 9.50768H11.3967H11.3958V9.21299C10.9727 9.474 10.4191 9.66298 9.90931 9.66298C8.61726 9.66298 7.63488 8.70688 7.63488 7.56835C7.63488 6.40269 8.47528 5.14068 11.3967 5.34462V4.90212C11.3967 4.39507 10.9593 4.22574 10.4696 4.22574C9.78068 4.22574 8.97267 4.52511 8.58867 4.69444L8.00553 3.511C8.64108 3.12089 9.67492 2.71768 10.986 2.71768C12.5496 2.71768 13.5168 3.39406 13.5168 4.88996V9.50768ZM9.75305 7.53093C9.75305 8.01179 10.1113 8.31115 10.6411 8.31115C10.9727 8.31115 11.2776 8.19421 11.4748 8.05108V6.65903C10.1914 6.4504 9.75305 6.98459 9.75305 7.53093ZM34.6051 2.87392V2.60074C34.6051 1.0272 35.5056 0 37.215 0C37.5999 0 37.9305 0.052389 38.2221 0.130037V1.6119C38.0506 1.56045 37.7991 1.52115 37.5999 1.52115C36.9501 1.52115 36.7119 1.93746 36.7119 2.5231V2.87392H38.1688V4.29216H36.7119V9.50768H34.6051V4.29216H33.4789V2.87392H34.6051ZM27.3606 3.51194C27.9962 3.12183 29.03 2.71862 30.3411 2.71862C31.9048 2.71862 32.8719 3.395 32.8709 4.88996V9.50768H30.7509V9.21393C30.3278 9.47494 29.7742 9.66391 29.2644 9.66391C27.9724 9.66391 26.99 8.70781 26.99 7.56929C26.99 6.40363 27.8304 5.14161 30.7518 5.34556V4.90306C30.7518 4.39601 30.3145 4.22668 29.8247 4.22668C29.1358 4.22668 28.3278 4.52604 27.9438 4.69537L27.3606 3.51194ZM29.9171 8.31115C30.2487 8.31115 30.5527 8.19421 30.7518 8.05108H30.7509V6.65903C29.4674 6.4504 29.0291 6.98459 29.0291 7.53093C29.0291 8.01179 29.3873 8.31115 29.9171 8.31115ZM21.0538 2.87485L17.6302 11.3694H15.613L16.5049 9.19615L13.6473 2.87485H15.8169L17.4901 6.83865L18.948 2.87485H21.0538ZM44.9387 6.08929V6.60757V6.60944H40.5461C40.5795 6.94997 40.6681 7.22782 40.8015 7.4486C40.8024 7.44954 40.8024 7.45047 40.8034 7.45141C40.8253 7.48602 40.8482 7.5197 40.872 7.55151C40.8863 7.57116 40.9006 7.58893 40.9158 7.60764C40.9188 7.61112 40.9217 7.61469 40.9247 7.61829C40.9313 7.62632 40.9381 7.63451 40.9453 7.64226C40.9711 7.67219 40.9987 7.70119 41.0273 7.72832L41.0301 7.73113C41.1007 7.79755 41.1797 7.85743 41.2674 7.90982C41.2683 7.91025 41.269 7.91048 41.2695 7.9107C41.2702 7.91095 41.2707 7.91119 41.2712 7.91169C41.3103 7.93508 41.3522 7.95659 41.3951 7.97717C41.4037 7.98092 41.4113 7.98466 41.4189 7.9884C41.4446 8.00056 41.4723 8.01179 41.4999 8.02208C41.5246 8.03142 41.5494 8.03983 41.5741 8.04825L41.5742 8.04827C41.5923 8.05389 41.6114 8.0595 41.6304 8.06511C41.6657 8.07447 41.7009 8.08382 41.7372 8.09224C41.7433 8.09365 41.7495 8.09481 41.7557 8.09598C41.7619 8.09715 41.7681 8.09832 41.7743 8.09973C41.8096 8.10721 41.8448 8.11282 41.881 8.11844L41.8852 8.11919C41.8941 8.12079 41.9025 8.1223 41.9115 8.12311C41.9563 8.12873 42.002 8.1334 42.0478 8.13621C42.0592 8.13715 42.0697 8.13715 42.0811 8.13808C42.1297 8.14089 42.1783 8.14276 42.2288 8.14276C42.8043 8.14276 43.4466 7.98372 44.0802 7.63103L44.671 8.92018C43.7362 9.55633 42.5233 9.66485 41.9106 9.66485C39.7114 9.66485 38.3336 8.32425 38.3336 6.23056C38.3336 4.18832 39.7915 2.71862 41.6724 2.71862C43.5533 2.71862 44.9387 4.14435 44.9387 6.08929ZM42.7986 5.51489C42.7186 4.63082 42.2555 4.17522 41.6724 4.17522C41.0892 4.17522 40.6261 4.62988 40.5461 5.51489H42.7986ZM23.3139 8.15492C23.9371 8.15492 24.3077 7.9725 24.3077 7.60858C24.3077 7.21974 23.8018 7.05016 23.1937 6.8463C22.2772 6.5391 21.1285 6.15406 21.1291 4.82354C21.1291 3.41932 22.4001 2.71675 23.9771 2.71675C24.8385 2.71675 25.6865 2.97682 26.243 3.24999L25.6465 4.61585C25.2225 4.43436 24.6393 4.23884 24.0829 4.23884C23.5531 4.23884 23.2348 4.43343 23.2348 4.74589C23.2348 5.08958 23.7073 5.24466 24.285 5.43423C25.1931 5.73229 26.3611 6.11563 26.3611 7.45141C26.3611 8.88276 25.0367 9.66298 23.4997 9.66298C22.6384 9.66298 21.7112 9.46839 20.9166 9.05208L21.5921 7.71242C22.0686 7.94724 22.6784 8.15492 23.3139 8.15492ZM30.9062 13.9514V13.0777H30.5241V12.8325H31.5808L31.6198 13.0777H31.2587V13.9514H30.9062ZM32.8357 13.9514L32.7928 13.1413L32.7632 13.2504C32.6998 13.4842 32.6366 13.7175 32.5698 13.9514H32.2601L32.0372 13.1413L31.9943 13.9514H31.6789C31.7132 13.58 31.7437 13.2049 31.7732 12.8335H32.2163L32.4183 13.6268L32.4206 13.6176L32.4206 13.6174C32.4846 13.3549 32.5478 13.096 32.6156 12.8335H33.0586L33.1492 13.9514H32.8357ZM0.93541 13.1618V18.1537H2.14362V16.3304H2.88779C3.86826 16.3304 4.60481 15.7298 4.60481 14.7101C4.60481 13.8269 4.05216 13.1618 2.88779 13.1618H0.93541ZM3.43377 14.7531C3.43377 15.2087 3.16125 15.4622 2.7563 15.4622H2.14457V14.03H2.7563C3.19079 14.03 3.43377 14.3265 3.43377 14.7531ZM6.91165 17.785L6.97835 18.1536V18.1546H8.05411V15.5866C8.05411 14.754 7.5167 14.3779 6.64676 14.3779C5.91688 14.3779 5.34231 14.6024 4.98881 14.8195L5.31278 15.4781C5.52621 15.3836 5.97595 15.217 6.359 15.217C6.63151 15.217 6.87449 15.3106 6.87449 15.5931V15.8392C5.30515 15.8102 4.78204 16.3378 4.78204 17.1339C4.78204 17.8721 5.37185 18.2406 5.95404 18.2406C6.4257 18.2406 6.70488 18.0096 6.91165 17.785ZM6.7794 16.5593C6.80986 16.5627 6.84121 16.5662 6.87544 16.5689V17.3425C6.76491 17.4221 6.5953 17.4876 6.4114 17.4876C6.11698 17.4876 5.91783 17.321 5.91783 17.0535C5.91783 16.7504 6.13889 16.5474 6.61055 16.5474C6.67194 16.5474 6.72423 16.5532 6.7794 16.5593ZM9.19656 19.7234L9.81591 18.1536H9.4624C9.32567 17.7313 9.18984 17.309 9.05401 16.8869L9.05375 16.886L9.05369 16.8859C8.79399 16.0786 8.53432 15.2715 8.26849 14.4639H9.4624L10.1694 17.1984L10.965 14.4639H12.137C11.7975 15.4277 11.4625 16.3918 11.1283 17.3535L11.1281 17.354L11.128 17.3544L11.1279 17.3546L11.1277 17.3553L11.1274 17.3561L11.1271 17.357L11.1267 17.358C10.8519 18.1488 10.5777 18.9381 10.3019 19.7243H9.19656V19.7234ZM14.2666 13.1618V18.1537H17.4129V17.293H15.4748V13.1618H14.2666ZM19.9408 18.1536L19.8741 17.785C19.6673 18.0096 19.3882 18.2406 18.9165 18.2406C18.3343 18.2406 17.7445 17.8721 17.7445 17.1339C17.7445 16.3378 18.2676 15.8102 19.837 15.8392V15.5931C19.837 15.3106 19.594 15.217 19.3215 15.217C18.9384 15.217 18.4887 15.3836 18.2752 15.4781L17.9513 14.8195C18.3048 14.6024 18.8793 14.3779 19.6092 14.3779C20.4792 14.3779 21.0166 14.754 21.0166 15.5866V18.1546H19.9408V18.1536ZM19.8379 16.5689C19.8037 16.5662 19.7723 16.5627 19.7419 16.5593C19.6867 16.5532 19.6344 16.5474 19.573 16.5474C19.1014 16.5474 18.8803 16.7504 18.8803 17.0535C18.8803 17.321 19.0794 17.4876 19.3739 17.4876C19.5578 17.4876 19.7274 17.4221 19.8379 17.3425V16.5689ZM21.9894 17.1482C21.9894 18.1108 22.6898 18.1539 23.0433 18.1539V18.1557H23.8837V17.3811H23.5597C23.3015 17.3811 23.1614 17.2651 23.1614 16.889V15.2538H23.8837V14.4651H23.1614V13.3649L21.9894 13.7625V14.4642H21.4149V15.2528H21.9894V17.1482ZM27.6265 17.8785C27.3911 18.0526 26.7785 18.2406 26.1744 18.2406C24.9509 18.2406 24.1848 17.495 24.1848 16.3303C24.1848 15.1945 24.9957 14.3769 26.0419 14.3769C26.8452 14.3769 27.6408 14.8035 27.6408 16.1057V16.5398H25.4159C25.475 17.1479 25.8504 17.3939 26.3516 17.3939C26.728 17.3939 27.1548 17.2424 27.2949 17.1554L27.6265 17.8785ZM26.5584 15.9327C26.5584 15.4331 26.3373 15.1871 26.0276 15.1871C25.7037 15.1871 25.4607 15.4406 25.4159 15.9327H26.5584ZM28.1201 14.4639V18.1536H29.2987V15.7661C29.5055 15.5631 29.8371 15.4406 30.1468 15.4406H30.1468C30.2202 15.4406 30.3745 15.4406 30.4412 15.4546V14.3769C29.9333 14.3769 29.4836 14.6809 29.2406 15.1365V14.4639H28.1201Z" fill="#58627F"/>
</svg>
