<svg width="76" height="12" viewBox="0 0 76 12" fill="none" xmlns="http://www.w3.org/2000/svg">
<g clip-path="url(#clip0_23_606)">
<path d="M10.826 1.14502H0.647515C0.305701 1.14502 0.0145264 1.40321 0.0145264 1.71752V2.73903C0.0145264 3.05334 0.305701 3.31153 0.647515 3.31153H10.826C11.1804 3.31153 11.459 3.05334 11.4716 2.73903V1.72874C11.4716 1.4032 11.1804 1.14502 10.826 1.14502ZM10.826 6.81387H0.647515C0.482938 6.81387 0.318361 6.87 0.204423 6.98225C0.0778253 7.09451 0.0145264 7.22921 0.0145264 7.38636V8.40788C0.0145264 8.72219 0.305701 8.98038 0.647515 8.98038H10.826C11.1804 8.98038 11.459 8.73342 11.4716 8.40788V7.38636C11.459 7.06083 11.1804 6.81387 10.826 6.81387ZM6.38239 9.64268H0.647515C0.482938 9.64268 0.318361 9.69881 0.204423 9.81106C0.090485 9.92332 0.0145264 10.058 0.0145264 10.2152V11.2367C0.0145264 11.551 0.305701 11.8092 0.647515 11.8092H6.36973C6.72421 11.8092 7.00272 11.551 7.00272 11.2479V10.2264C7.01538 9.88964 6.73687 9.63145 6.38239 9.64268ZM11.4716 3.97383H0.647515C0.482938 3.97383 0.318361 4.02996 0.204423 4.14221C0.090485 4.25447 0.0145264 4.38917 0.0145264 4.54633V5.56785C0.0145264 5.88216 0.305701 6.14034 0.647515 6.14034H11.459C11.8134 6.14034 12.092 5.88216 12.092 5.56785V4.54633C12.1046 4.23202 11.8134 3.98506 11.4716 3.97383Z" fill="#58627F"/>
<path d="M23.3086 3.43499C22.9921 3.14313 22.6249 2.91862 22.2072 2.76146C21.7894 2.6043 21.3463 2.52572 20.8906 2.52572C20.4475 2.5145 20.017 2.6043 19.6119 2.77268C19.3461 2.88494 19.1055 3.0421 18.903 3.23293V3.05332C18.903 2.96352 18.865 2.87371 18.8017 2.80636C18.7384 2.73901 18.6371 2.69411 18.5232 2.69411H17.1179C17.0167 2.69411 16.9154 2.72778 16.8521 2.80636C16.7761 2.87371 16.7382 2.96352 16.7508 3.05332V11.45C16.7508 11.5398 16.7888 11.6296 16.8521 11.6969C16.928 11.7643 17.0167 11.7979 17.1179 11.7979H18.5612C18.6624 11.7979 18.7511 11.7643 18.827 11.6969C18.903 11.6408 18.9536 11.551 18.941 11.45V8.57624C19.1435 8.7783 19.4094 8.92423 19.7005 9.01403C20.0803 9.13751 20.4728 9.20486 20.8779 9.20486C21.3337 9.20486 21.7894 9.12629 22.2072 8.96913C22.6249 8.81197 23.0047 8.58746 23.3212 8.2956C23.6504 7.99252 23.9036 7.6333 24.0808 7.24041C24.2834 6.80262 24.372 6.33115 24.3593 5.85968C24.372 5.38821 24.2707 4.91674 24.0808 4.46773C23.8909 4.09729 23.6377 3.73807 23.3086 3.43499ZM22.0173 6.47708C21.9413 6.65669 21.8274 6.81384 21.6755 6.95978C21.3843 7.24041 20.9665 7.39757 20.5361 7.39757C20.3209 7.39757 20.1057 7.36389 19.9031 7.27409C19.7132 7.19551 19.536 7.09448 19.384 6.95978C19.2321 6.82507 19.1182 6.65669 19.0422 6.47708C18.8777 6.09542 18.8777 5.68008 19.0422 5.29841C19.1182 5.1188 19.2448 4.96165 19.384 4.82694C19.536 4.69224 19.7132 4.57998 19.9031 4.5014C20.1057 4.42283 20.3209 4.37792 20.5361 4.37792C20.764 4.37792 20.9665 4.4116 21.1817 4.5014C21.3716 4.57998 21.5489 4.68101 21.6881 4.81571C21.84 4.95042 21.9413 5.10758 22.0299 5.28718C22.1819 5.68008 22.1692 6.09542 22.0173 6.47708ZM32.0945 2.70533H30.6639C30.5626 2.70533 30.4614 2.73901 30.3981 2.80636C30.3221 2.87371 30.2841 2.96352 30.2841 3.06455V3.2217C30.1069 3.03087 29.879 2.88494 29.6385 2.78391C29.246 2.61553 28.8156 2.53695 28.3851 2.53695C27.461 2.53695 26.5875 2.86249 25.9292 3.43499C25.5873 3.73807 25.3215 4.09729 25.1442 4.49018C24.9417 4.92797 24.8404 5.39944 24.8531 5.88213C24.8404 6.3536 24.9417 6.82507 25.1442 7.27409C25.3341 7.66698 25.5873 8.02619 25.9292 8.32928C26.5748 8.913 27.461 9.23854 28.3725 9.23854C28.8029 9.24976 29.2334 9.15996 29.6258 8.99158C29.8663 8.87933 30.1069 8.7334 30.2841 8.55379V8.72217C30.2841 8.81197 30.3221 8.90178 30.3981 8.96913C30.474 9.02526 30.5626 9.07016 30.6639 9.07016H32.0945C32.1957 9.07016 32.297 9.03648 32.3603 8.96913C32.4363 8.90178 32.4743 8.81197 32.4743 8.72217V3.07577C32.4743 2.98597 32.4363 2.89616 32.373 2.82881C32.297 2.75023 32.1957 2.70533 32.0945 2.70533ZM30.1575 6.47708C30.0816 6.65669 29.9676 6.81384 29.8157 6.95978C29.6638 7.09448 29.4992 7.20673 29.3093 7.28531C28.9042 7.45369 28.4358 7.45369 28.0307 7.28531C27.8408 7.20673 27.6635 7.09448 27.5116 6.95978C27.3597 6.82507 27.2458 6.65669 27.1698 6.47708C27.0179 6.09542 27.0179 5.68008 27.1698 5.29841C27.2458 5.1188 27.3597 4.97287 27.5116 4.82694C27.6635 4.69224 27.8281 4.57998 28.0307 4.5014C28.4358 4.33302 28.9042 4.33302 29.2967 4.5014C29.4865 4.57998 29.6638 4.68101 29.803 4.81571C29.9423 4.95042 30.0562 5.10758 30.1449 5.28718C30.3221 5.68008 30.3221 6.09542 30.1575 6.47708ZM46.3494 5.71375C46.1468 5.55659 45.9063 5.42189 45.6531 5.33209C45.3872 5.23106 45.0961 5.1637 44.8175 5.10758L43.7288 4.91674C43.4503 4.87184 43.2477 4.80449 43.1464 4.72591C43.0578 4.66979 42.9945 4.57998 42.9945 4.47895C42.9945 4.37792 43.0578 4.28812 43.1971 4.20954C43.387 4.11974 43.5895 4.07484 43.8048 4.08606C44.0833 4.08606 44.3618 4.14219 44.615 4.23199C44.8682 4.33302 45.1087 4.43405 45.3366 4.56876C45.6531 4.74836 45.9316 4.71469 46.1215 4.51263L46.6405 3.98503C46.7418 3.89523 46.7925 3.78298 46.8051 3.6595C46.7925 3.52479 46.7165 3.41254 46.6026 3.32273C46.3874 3.15435 46.0329 2.97474 45.5645 2.79513C45.0961 2.61553 44.501 2.52572 43.8048 2.52572C43.3743 2.5145 42.9566 2.57063 42.5514 2.68288C42.2096 2.78391 41.8805 2.92984 41.5893 3.12067C41.3234 3.30028 41.1209 3.52479 40.969 3.7942C40.8297 4.05239 40.7538 4.33302 40.7538 4.61366C40.7538 5.14125 40.931 5.56782 41.2855 5.88213C41.6399 6.19644 42.1083 6.40973 42.6907 6.51076L43.8301 6.73527C44.0706 6.76894 44.3238 6.83629 44.5517 6.93732C44.6783 6.98222 44.7542 7.09448 44.7542 7.21796C44.7542 7.33021 44.6909 7.43124 44.5517 7.52105C44.4124 7.61085 44.1846 7.66698 43.8807 7.66698C43.5769 7.66698 43.2604 7.61085 42.9819 7.48737C42.716 7.37512 42.4755 7.22919 42.2476 7.0608C42.1463 6.99345 42.045 6.93732 41.9185 6.89242C41.7919 6.85875 41.6273 6.89242 41.4627 7.0159L40.8424 7.43125C40.6651 7.5435 40.5765 7.73433 40.6272 7.91394C40.6651 8.10477 40.8297 8.28438 41.1462 8.49766C41.9311 8.96913 42.8679 9.21609 43.8174 9.19364C44.2605 9.19364 44.7036 9.14874 45.1214 9.03648C45.4885 8.93545 45.8303 8.78952 46.1342 8.58746C46.4127 8.40786 46.6405 8.17212 46.7925 7.89149C46.9444 7.62208 47.0203 7.33022 47.0203 7.02713C47.033 6.75772 46.9697 6.48831 46.8431 6.24135C46.7165 6.06174 46.5519 5.87091 46.3494 5.71375ZM52.6033 7.25164C52.54 7.15061 52.4261 7.08325 52.2868 7.0608C52.1602 7.0608 52.021 7.09448 51.9197 7.16183C51.7424 7.26286 51.5399 7.31899 51.3373 7.33021C51.274 7.33021 51.1981 7.31899 51.1348 7.30777C51.0588 7.29654 50.9955 7.26286 50.9449 7.21796C50.8816 7.16183 50.8309 7.09448 50.793 7.02713C50.7423 6.91487 50.717 6.80262 50.7297 6.69037V4.38915H52.578C52.6919 4.38915 52.7932 4.34425 52.8692 4.2769C52.9451 4.20954 52.9958 4.13096 52.9958 4.02993V3.05332C52.9958 2.95229 52.9578 2.86249 52.8692 2.80636C52.7932 2.73901 52.6919 2.70533 52.5906 2.70533H50.7297V1.13377C50.7297 1.04397 50.6917 0.942937 50.6157 0.886809C50.5398 0.830682 50.4511 0.797007 50.3499 0.785781H48.9066C48.8054 0.785781 48.7041 0.819457 48.6281 0.886809C48.5522 0.954162 48.5015 1.04397 48.5015 1.13377V2.70533H47.6786C47.5774 2.70533 47.4761 2.73901 47.4001 2.81759C47.3368 2.88494 47.2989 2.97474 47.2989 3.06455V4.04116C47.2989 4.13096 47.3368 4.22077 47.4001 4.28812C47.4634 4.3667 47.5647 4.40038 47.6786 4.40038H48.5015V7.13938C48.4889 7.46492 48.5648 7.79046 48.7168 8.08232C48.856 8.32928 49.0332 8.54256 49.2738 8.72217C49.5017 8.89055 49.7675 9.01403 50.0587 9.08138C50.3499 9.15996 50.6537 9.20486 50.9575 9.20486C51.35 9.20486 51.7551 9.14874 52.1349 9.03648C52.4894 8.93545 52.8059 8.75585 53.0591 8.52011C53.2236 8.37418 53.2363 8.13845 53.1097 7.97007L52.6033 7.25164ZM60.427 2.70533H58.9965C58.8952 2.70533 58.8066 2.73901 58.7306 2.80636C58.6547 2.87371 58.6167 2.96352 58.6167 3.06455V3.2217C58.4395 3.03087 58.2242 2.88494 57.9711 2.78391C57.5786 2.61553 57.1482 2.53695 56.7177 2.53695C55.7936 2.53695 54.92 2.86249 54.2617 3.43499C53.9199 3.73807 53.6541 4.09729 53.4768 4.49018C53.2743 4.92797 53.173 5.39944 53.1856 5.87091C53.173 6.34237 53.2743 6.81385 53.4768 7.26286C53.6541 7.65575 53.9326 8.01497 54.2617 8.31806C54.9074 8.90178 55.7809 9.22732 56.7051 9.22732C57.1355 9.23854 57.5659 9.14874 57.9584 8.99158C58.2116 8.87933 58.4395 8.7334 58.6167 8.55379V8.72217C58.6167 8.81197 58.6547 8.90178 58.7306 8.9579C58.8066 9.02526 58.8952 9.05894 58.9965 9.05894H60.427C60.6423 9.05894 60.8068 8.913 60.8068 8.72217V3.07577C60.8068 2.98597 60.7689 2.89616 60.7056 2.82881C60.6423 2.75023 60.541 2.70533 60.427 2.70533ZM58.5028 6.47708C58.4268 6.65669 58.3129 6.81384 58.1609 6.95978C58.009 7.09448 57.8445 7.20673 57.6546 7.28531C57.452 7.36389 57.2368 7.40879 57.0089 7.40879C56.781 7.40879 56.5785 7.36389 56.3759 7.28531C56.186 7.20673 56.0088 7.09448 55.8569 6.95978C55.7049 6.82507 55.591 6.65669 55.5277 6.47708C55.3758 6.09542 55.3758 5.68008 55.5277 5.29841C55.6037 5.1188 55.7176 4.96165 55.8569 4.82694C56.0088 4.69224 56.186 4.57998 56.3759 4.5014C56.5785 4.42283 56.7937 4.37792 57.0089 4.37792C57.2241 4.37792 57.4393 4.4116 57.6546 4.5014C57.8445 4.57998 58.009 4.68101 58.1609 4.81571C58.3129 4.95042 58.4268 5.10758 58.5028 5.28718C58.6673 5.66885 58.6673 6.09542 58.5028 6.47708ZM68.2761 7.16183L67.4532 6.60056C67.3013 6.48831 67.1494 6.45463 67.0228 6.49953C66.9089 6.54443 66.8076 6.61179 66.719 6.69037C66.5417 6.8812 66.3265 7.04958 66.0986 7.19551C65.8454 7.31899 65.5796 7.38634 65.3011 7.36389C64.9719 7.36389 64.6681 7.28531 64.4022 7.11693C64.1364 6.94855 63.9338 6.72404 63.8325 6.4434C63.7566 6.25257 63.7186 6.06174 63.7186 5.87091C63.7186 5.66885 63.7566 5.47802 63.8325 5.27596C63.9085 5.09635 64.0098 4.93919 64.1617 4.80449C64.3136 4.66978 64.4782 4.55753 64.6681 4.49018C64.8706 4.4116 65.0858 4.3667 65.3137 4.3667C65.5922 4.35547 65.8708 4.42282 66.1113 4.5463C66.3518 4.68101 66.5544 4.84939 66.7316 5.05145C66.8076 5.13003 66.9089 5.19738 67.0228 5.24228C67.1494 5.28719 67.3013 5.25351 67.4532 5.14125L68.2761 4.59121C68.3774 4.53508 68.4533 4.44528 68.4913 4.34425C68.542 4.23199 68.5293 4.10851 68.4533 4.00748C68.1368 3.56969 67.7064 3.21048 67.1874 2.95229C66.643 2.68288 65.9973 2.53695 65.2757 2.53695C64.7693 2.53695 64.263 2.62675 63.7819 2.79513C63.3261 2.96352 62.921 3.19925 62.5792 3.50234C62.2374 3.80543 61.9589 4.16464 61.769 4.56876C61.3765 5.41067 61.3765 6.3536 61.769 7.19551C61.9589 7.5884 62.2247 7.95884 62.5792 8.2507C63.3008 8.87933 64.263 9.21609 65.2757 9.21609C65.9973 9.21609 66.643 9.07016 67.1874 8.80075C67.7064 8.54256 68.1495 8.18335 68.466 7.73433C68.5293 7.6333 68.542 7.50982 68.504 7.40879C68.4533 7.31899 68.3774 7.22918 68.2761 7.16183ZM75.8973 8.47521L73.6312 5.53414L75.5681 3.2666C75.6568 3.16558 75.6947 3.01964 75.6441 2.89616C75.6061 2.80636 75.5175 2.71656 75.277 2.71656H73.7451C73.6565 2.71656 73.5679 2.73901 73.4919 2.77268C73.3907 2.81759 73.3147 2.88494 73.2641 2.96352L71.7196 4.88307H71.3524V0.347989C71.3524 0.258186 71.3145 0.168381 71.2385 0.101028C71.1625 0.0336756 71.0739 0 70.9726 0H69.5421C69.4408 0 69.3395 0.0336756 69.2636 0.101028C69.1876 0.168381 69.1496 0.24696 69.1496 0.347989V8.71095C69.1496 8.81197 69.1876 8.89055 69.2636 8.9579C69.3395 9.02526 69.4408 9.05894 69.5421 9.05894H70.9726C71.0739 9.05894 71.1752 9.02526 71.2385 8.9579C71.3145 8.89055 71.3524 8.80075 71.3524 8.71095V6.49953H71.7575L73.4413 8.78952C73.5426 8.9579 73.7325 9.05894 73.935 9.05894H75.5428C75.7834 9.05894 75.8846 8.9579 75.9353 8.8681C75.9986 8.7334 75.9859 8.58746 75.8973 8.47521ZM40.222 2.70533H38.6142C38.4876 2.70533 38.3737 2.73901 38.2851 2.81759C38.2091 2.88494 38.1585 2.96352 38.1332 3.05332L36.9432 6.95978H36.652L35.386 3.05332C35.3607 2.97474 35.3227 2.89617 35.2594 2.81759C35.1834 2.73901 35.0822 2.69411 34.9682 2.69411H33.3351C33.1199 2.69411 32.9933 2.75023 32.93 2.88494C32.892 2.99719 32.892 3.12067 32.93 3.23293L34.9556 8.73339C34.9936 8.81197 35.0315 8.90178 35.1075 8.9579C35.1834 9.02526 35.2974 9.05894 35.4113 9.05894H36.2722L36.1962 9.23854L36.0063 9.74368C35.943 9.90084 35.8418 10.0355 35.6898 10.1366C35.5506 10.2264 35.386 10.2825 35.2088 10.2713C35.0569 10.2713 34.9176 10.2376 34.7783 10.1927C34.6391 10.1366 34.5125 10.0692 34.3985 9.99065C34.2973 9.92329 34.1707 9.88962 34.0314 9.88962H34.0187C33.8668 9.90084 33.7276 9.96819 33.6516 10.0917L33.1452 10.754C32.9427 11.0458 33.0566 11.2254 33.1832 11.3265C33.4617 11.551 33.7782 11.7194 34.1327 11.8204C34.5251 11.9439 34.9303 12 35.3354 12C36.0696 12 36.6773 11.8204 37.1457 11.4724C37.6268 11.0907 37.9939 10.5968 38.1712 10.0355L40.5259 3.23293C40.5765 3.10945 40.5892 2.98597 40.5385 2.87371C40.5259 2.79514 40.4373 2.70533 40.222 2.70533Z" fill="#58627F"/>
</g>
<defs>
<clipPath id="clip0_23_606">
<rect width="76" height="12" fill="white" transform="matrix(1 0 0 -1 0 12)"/>
</clipPath>
</defs>
</svg>
