<svg width="52" height="18" viewBox="0 0 52 18" fill="none" xmlns="http://www.w3.org/2000/svg">
<path d="M10.699 14.5346H13.1278V6.92857H10.699V14.5346ZM13.9684 1.75283H12.3316V3.5102H13.9684V1.75283ZM4.78818 2.60771H2.44073V4.81349H4.6208C6.00414 4.81349 6.80036 5.53345 6.80036 6.88379C6.80036 8.23413 6.00414 8.99887 4.6208 8.99887H2.44073V4.86054H0.0119629V14.5346H2.44073V11.2041H4.74647C7.55486 11.2041 9.19005 9.5839 9.19005 6.79365C9.19005 4.18311 7.59709 2.60771 4.78818 2.60771ZM15.6036 0H10.699V5.26304H15.6036V0ZM14.8068 4.36508H11.5375V0.852608H14.8068V4.36508ZM29.0594 2.60771H26.8376V4.81349H28.9332C30.3166 4.81349 31.1133 5.53345 31.1133 6.88379C31.1133 8.23413 30.3166 8.99887 28.9332 8.99887H26.8376V4.86054H24.4089V14.5346H26.8376V11.2041H29.0594C31.8678 11.2041 33.5025 9.5839 33.5025 6.79365C33.5025 4.18311 31.8678 2.60771 29.0594 2.60771ZM49.4737 5.39853L47.3776 11.0675L45.2815 5.39853H42.7666L46.1199 14.5346L44.8205 18H47.3776L51.9885 5.39853H49.4737ZM38.5749 5.35317C37.1076 5.35317 35.9756 5.71315 34.7179 6.38832L35.473 8.18878C36.3531 7.64853 37.2333 7.37869 38.0295 7.37869C39.2032 7.37869 39.7903 7.91893 39.7903 8.9093V9.08957H37.4413C35.3452 9.08957 34.2137 10.1247 34.2137 11.835C34.2137 13.5 35.3035 14.6695 37.1477 14.6695C38.3215 14.6695 39.1599 14.22 39.8305 13.4546V14.4444H42.2202V8.50397C42.1404 6.56859 40.8384 5.35317 38.5749 5.35317ZM40.0005 11.4756C39.7492 12.2404 39.0364 12.8707 38.03 12.8707C37.1921 12.8707 36.6889 12.4206 36.6889 11.7007C36.6889 10.9807 37.1499 10.6655 38.0723 10.6655H40.0005V11.4756ZM19.3338 12.5544C18.1601 12.5544 17.3222 11.5641 17.3222 10.0788C17.3222 8.63889 18.1601 7.64853 19.3338 7.64853C20.1723 7.64853 20.8011 8.0085 21.2626 8.63889L22.8994 7.37869C22.1449 6.16327 20.8455 5.44331 19.2103 5.44331C16.6532 5.39853 14.8929 7.28855 14.8929 10.0788C14.8929 12.869 16.6532 14.7149 19.2103 14.7149C20.9711 14.7149 22.2726 13.9495 22.9833 12.6893L21.3064 11.4745C20.8851 12.1944 20.2145 12.5544 19.3338 12.5544Z" fill="#58627F"/>
</svg>
