<svg width="42" height="14" viewBox="0 0 42 14" fill="none" xmlns="http://www.w3.org/2000/svg">
<path fill-rule="evenodd" clip-rule="evenodd" d="M30.1687 0.328125C29.218 0.328125 28.4459 1.05965 28.4459 1.96145C28.4459 2.86379 29.218 3.59372 30.1687 3.59372C31.1211 3.59372 31.8927 2.86379 31.8927 1.96145C31.8927 1.05965 31.1211 0.328125 30.1687 0.328125ZM5.31574 5.80036C4.87397 5.77331 3.85047 5.71018 3.85047 4.83755C3.85047 3.78456 5.32302 3.78456 5.87564 3.78456C6.84764 3.78456 8.10519 4.05616 9.00439 4.31132C9.00439 4.31132 9.50495 4.47895 9.93104 4.64976L9.97079 4.66037V1.77618L9.9176 1.7608C8.85602 1.4091 7.62367 1.07118 5.33757 1.07118C1.3964 1.07118 0 3.2456 0 5.11021C0 6.18389 0.485998 8.71319 4.99827 9.00443L5.00245 9.00467C5.38913 9.02712 6.39748 9.08566 6.39748 9.98421C6.39748 10.729 5.56602 11.1672 4.16793 11.1672C2.63603 11.1672 1.14893 10.798 0.246358 10.4463V13.4158C1.59797 13.7527 3.12203 13.9193 4.90813 13.9193C8.76027 13.9193 10.487 11.8616 10.487 9.82136C10.487 7.50902 8.55591 6.00619 5.31574 5.80036ZM16.9472 4.5185L16.9472 4.51842C16.9547 4.49983 16.9606 4.48518 16.965 4.47471H21.0915C20.9739 4.83065 20.2376 6.97854 18.559 8.99541C18.559 8.99541 20.4285 12.0992 20.8558 13.7829H16.535C16.535 13.7829 16.0187 11.5475 14.974 10.0622V13.7829H11.3659V1.74754L14.974 1.07118V7.71166C16.2524 6.24665 16.8221 4.82981 16.9472 4.5185ZM38.5034 13.7829V1.66372L42 1.07118V13.7829H38.5034ZM26.4497 4.34912C23.2196 4.44779 21.5785 5.82172 21.5785 8.5526V13.7831H25.1037V9.517C25.1037 7.88261 25.3299 7.18185 27.3775 7.11501V4.39739C27.0331 4.3279 26.4497 4.34912 26.4497 4.34912ZM28.4219 13.783V4.48538H31.9179V13.783H28.4219ZM33.3994 1.66372L36.8938 1.07118V13.7829H33.3994V1.66372Z" fill="#58627F"/>
</svg>
