<svg width="40" height="18" viewBox="0 0 40 18" fill="none" xmlns="http://www.w3.org/2000/svg">
<path fill-rule="evenodd" clip-rule="evenodd" d="M21.2392 3.21313L18.5039 3.78548V1.62327L21.2392 1.06152V3.21313ZM10.1236 2.29101L7.46461 2.84216L7.45371 11.332C7.45371 12.9007 8.66333 14.056 10.2762 14.056C11.1698 14.056 11.8236 13.897 12.1832 13.7062V11.5546C11.8345 11.6924 10.1127 12.1799 10.1127 10.6113V6.8486H12.1832V4.59101H10.1127L10.1236 2.29101ZM3.68335 6.71083C3.10578 6.71083 2.75706 6.86981 2.75706 7.28318C2.75706 7.7345 3.35722 7.93304 4.10177 8.17934C5.31557 8.58088 6.91315 9.10937 6.9199 11.067C6.9199 12.9643 5.36156 14.056 3.09489 14.056C2.1577 14.056 1.13334 13.8758 0.119872 13.4518V10.9293C1.03526 11.4168 2.1904 11.7772 3.09489 11.7772C3.70515 11.7772 4.14105 11.6182 4.14105 11.1306C4.14105 10.6307 3.49047 10.4022 2.70505 10.1263C1.5089 9.70619 0 9.17621 0 7.41037C0 5.53433 1.47116 4.41083 3.68335 4.41083C4.58784 4.41083 5.48144 4.54862 6.38593 4.89839V7.38917C5.55772 6.95461 4.51156 6.71083 3.68335 6.71083ZM35.2968 4.41083C37.8795 4.41083 39.2307 6.55184 39.2307 9.2652C39.2307 9.41122 39.2236 9.65502 39.2175 9.8623L39.2174 9.86291L39.2174 9.86358L39.2174 9.86407L39.2174 9.86449V9.86466L39.2174 9.86496C39.2129 10.0177 39.209 10.1502 39.209 10.2085H33.8801C34 11.4592 34.9372 11.8196 35.9942 11.8196C37.0731 11.8196 37.9231 11.597 38.6641 11.2366V13.3564C37.9231 13.7592 36.9423 14.0454 35.6455 14.0454C32.9865 14.0454 31.1339 12.4343 31.1339 9.244C31.1339 6.55184 32.7032 4.41083 35.2968 4.41083ZM35.2858 6.56244C34.5993 6.56244 33.8474 7.06059 33.8474 8.25828H36.6589C36.6589 7.06059 35.9506 6.56244 35.2858 6.56244ZM15.5725 5.37535L15.3982 4.59102H13.0443V13.8652H15.7687V7.57996C16.4116 6.76383 17.5014 6.91222 17.8392 7.02881V4.59102C17.4905 4.46384 16.2155 4.23066 15.5725 5.37535ZM18.5037 4.59102H21.2389V13.8652H18.5037V4.59102ZM26.9274 4.41083C25.8595 4.41083 25.1729 4.89839 24.7915 5.23756L24.6498 4.58042H22.2524V16.9389L24.9768 16.3772L24.9877 13.3776C25.38 13.6532 25.9575 14.0454 26.9165 14.0454C28.8672 14.0454 30.6434 12.5191 30.6434 9.15922C30.6325 6.08549 28.8345 4.41083 26.9274 4.41083ZM26.2735 11.7136C25.6306 11.7136 25.2492 11.491 24.9876 11.2154L24.9767 7.28316C25.2601 6.97579 25.6524 6.76381 26.2735 6.76381C27.2652 6.76381 27.9517 7.84491 27.9517 9.23339C27.9517 10.6537 27.2761 11.7136 26.2735 11.7136Z" fill="#58627F"/>
</svg>
