<svg width="41" height="14" viewBox="0 0 41 14" fill="none" xmlns="http://www.w3.org/2000/svg">
<path fill-rule="evenodd" clip-rule="evenodd" d="M10.3654 13.2639H6.88804L4.28047 3.15412C4.1567 2.68907 3.89391 2.27794 3.50735 2.08417C2.54266 1.59721 1.47962 1.20967 0.319946 1.01422V0.624988H5.92165C6.69476 0.624988 7.2746 1.20967 7.37124 1.88871L8.72419 9.18124L12.1998 0.624988H15.5805L10.3654 13.2639ZM17.5133 13.2639H14.2293L16.9335 0.624988H20.2175L17.5133 13.2639ZM24.4663 4.12635C24.5629 3.44563 25.1427 3.0564 25.8192 3.0564C26.8823 2.95867 28.0402 3.15413 29.0066 3.6394L29.5865 0.918179C28.6201 0.528952 27.557 0.333496 26.5923 0.333496C23.4049 0.333496 21.0856 2.08417 21.0856 4.51389C21.0856 6.3623 22.7285 7.33284 23.8881 7.91752C25.1427 8.50052 25.6259 8.88975 25.5293 9.47275C25.5293 10.3472 24.5629 10.7365 23.5982 10.7365C22.4385 10.7365 21.2789 10.445 20.2175 9.95802L19.6377 12.6809C20.7974 13.1662 22.052 13.3616 23.2117 13.3616C26.7856 13.4577 29.0066 11.7087 29.0066 9.08352C29.0066 5.77762 24.4663 5.58385 24.4663 4.12635ZM40.4999 13.2639L37.8924 0.624988H35.0915C34.5117 0.624988 33.9318 1.01422 33.7386 1.59721L28.91 13.2639H32.2907L32.9655 11.4172H37.1193L37.5058 13.2639H40.4999ZM35.5747 4.02863L36.5394 8.79203H33.8352L35.5747 4.02863Z" fill="#58627F"/>
</svg>
