<svg width="30" height="30" viewBox="0 0 30 30" fill="none" xmlns="http://www.w3.org/2000/svg">
<path d="M9.49003 20.1089V11.9641H7.60718V9.87695H12.0882V20.1089H9.49003Z" fill="#898B99"/>
<path d="M21.8527 12.5184C21.8527 13.4088 21.3711 14.1969 20.5683 14.6349C21.6921 15.1019 22.3928 16.0799 22.3928 17.2183C22.3928 19.0574 20.758 20.2251 18.2037 20.2251C15.6494 20.2251 14.0146 19.072 14.0146 17.2622C14.0146 16.0945 14.7736 15.1019 15.9559 14.6349C15.0947 14.1531 14.5401 13.3359 14.5401 12.4455C14.5401 10.8106 15.9706 9.77441 18.1891 9.77441C20.4369 9.77441 21.8527 10.8399 21.8527 12.5184ZM16.4667 16.9995C16.4667 17.8607 17.0798 18.3424 18.2037 18.3424C19.3276 18.3424 19.9552 17.8754 19.9552 16.9995C19.9552 16.153 19.3276 15.6712 18.2037 15.6712C17.0798 15.6712 16.4667 16.1529 16.4667 16.9995ZM16.7295 12.6644C16.7295 13.3943 17.255 13.8028 18.2037 13.8028C19.1524 13.8028 19.6779 13.3942 19.6779 12.6644C19.6779 11.9056 19.1524 11.4822 18.2037 11.4822C17.2549 11.4822 16.7295 11.9056 16.7295 12.6644Z" fill="#898B99"/>
<path d="M26.716 11.0318C27.1479 12.3067 27.367 13.6401 27.367 15C27.367 21.8192 21.8192 27.367 15 27.367C8.18073 27.367 2.6328 21.8192 2.6328 15C2.6328 8.18073 8.18064 2.63307 14.9999 2.63307C16.36 2.63307 17.6934 2.85201 18.9681 3.28413V0.532015C17.6805 0.179072 16.3508 0 15 0C6.729 0 0 6.729 0 15C0 23.2711 6.729 30.0001 15 30.0001C23.2709 30.0001 29.9998 23.2711 29.9998 15C29.9998 13.6493 29.8208 12.3194 29.4679 11.0318H26.716Z" fill="#898B99"/>
<path d="M25.9674 4.02413V1.14795H23.8992V4.02413H21.0403V6.09216H23.8992V8.96826H25.9674V6.09216H28.8434V4.02413H25.9674Z" fill="#898B99"/>
</svg>
