<svg width="64" height="64" viewBox="0 0 64 64" fill="none" xmlns="http://www.w3.org/2000/svg">
<path d="M45 61.1399C52.4558 61.1399 58.5 55.0957 58.5 47.6399C58.5 40.184 52.4558 34.1399 45 34.1399C37.5442 34.1399 31.5 40.184 31.5 47.6399C31.5 55.0957 37.5442 61.1399 45 61.1399Z" fill="#EAAE18"/>
<path d="M32 49.33C41.1292 49.33 48.53 41.9293 48.53 32.8C48.53 23.6708 41.1292 16.27 32 16.27C22.8707 16.27 15.47 23.6708 15.47 32.8C15.47 41.9293 22.8707 49.33 32 49.33Z" stroke="white" stroke-width="2" stroke-linecap="round" stroke-linejoin="round"/>
<path d="M32 57.2701C45.5144 57.2701 56.47 46.3145 56.47 32.8001C56.47 19.2857 45.5144 8.33008 32 8.33008C18.4856 8.33008 7.53003 19.2857 7.53003 32.8001C7.53003 46.3145 18.4856 57.2701 32 57.2701Z" stroke="white" stroke-width="2" stroke-linecap="round" stroke-linejoin="round"/>
<circle cx="32" cy="12.3799" r="1" fill="white"/>
<circle cx="46.4399" cy="18.3601" r="1" fill="white"/>
<circle cx="52.4199" cy="32.8" r="1" fill="white"/>
<circle cx="46.4399" cy="47.23" r="1" fill="white"/>
<circle cx="32" cy="53.21" r="1" fill="white"/>
<circle cx="17.5601" cy="47.23" r="1" fill="white"/>
<circle cx="11.5801" cy="32.8" r="1" fill="white"/>
<circle cx="17.5601" cy="18.3601" r="1" fill="white"/>
<path d="M36.2354 33.0087C37.336 32.1804 37.9883 30.8609 37.9925 29.4544C37.9736 26.5478 35.5263 24.7261 32.8328 25.0304V23.8696C32.8328 23.6392 32.7444 23.4174 32.5866 23.2543C32.4287 23.0913 32.2141 23 31.991 23C30.9094 23.0478 31.1767 24.2805 31.1493 25.0304H27.6898C27.2247 25.0304 26.8481 25.4196 26.8481 25.9C26.8481 26.3826 27.2247 26.7717 27.6898 26.7717C27.7045 29.8804 27.7108 36.1392 27.7087 39.2457H26.8291C26.3704 39.2544 26 39.6413 26 40.1174C26 40.5913 26.3704 40.9805 26.8291 40.987H31.1472V42.1478C31.1577 42.6218 31.5302 43 31.991 43C32.4497 43 32.8222 42.6217 32.8327 42.1478V40.987C37.4117 41.5718 39.9011 35.9566 36.2354 33.0087ZM29.3923 26.7718H33.7103C35.1328 26.787 36.2797 27.9848 36.2797 29.4544C36.2797 30.9261 35.1328 32.1218 33.7103 32.1392H29.3923V26.7718ZM33.7103 39.2457H29.3923V33.8805H33.7103C35.1412 33.887 36.2965 35.0848 36.2965 36.5631C36.2965 38.0413 35.1413 39.2392 33.7103 39.2457Z" fill="white"/>
</svg>
