<svg width="65" height="64" viewBox="0 0 65 64" fill="none" xmlns="http://www.w3.org/2000/svg">
<path d="M48.0835 33.75C55.5393 33.75 61.5835 27.7058 61.5835 20.25C61.5835 12.7942 55.5393 6.75 48.0835 6.75C40.6277 6.75 34.5835 12.7942 34.5835 20.25C34.5835 27.7058 40.6277 33.75 48.0835 33.75Z" fill="#EAAE18"/>
<path d="M27.5735 37.51L37.0435 43.85V37.51L27.5735 43.85V37.51Z" stroke="white" stroke-width="2" stroke-linecap="round" stroke-linejoin="round"/>
<path d="M24.9434 38.51C24.9434 38.51 16.1634 40.87 14.5934 45.64C13.4738 49.5668 12.6877 53.581 12.2434 57.64" stroke="white" stroke-width="2" stroke-linecap="round" stroke-linejoin="round"/>
<path d="M19.6035 40.6799C20.6715 46.2537 21.2171 51.9148 21.2335 57.5899" stroke="white" stroke-width="2" stroke-linecap="round" stroke-linejoin="round"/>
<path d="M39.7234 38.51C39.7234 38.51 48.5034 40.87 50.0734 45.64C51.193 49.5668 51.9791 53.581 52.4234 57.64" stroke="white" stroke-width="2" stroke-linecap="round" stroke-linejoin="round"/>
<path d="M45.0636 40.6799C43.9957 46.2537 43.45 51.9148 43.4336 57.5899" stroke="white" stroke-width="2" stroke-linecap="round" stroke-linejoin="round"/>
<circle cx="28.8335" cy="23.3999" r="1" fill="white"/>
<circle cx="35.8535" cy="23.3999" r="1" fill="white"/>
<path d="M42.0036 18.45C39.5258 18.0439 37.2515 16.8311 35.5336 15C30.3936 20.33 22.6836 20.23 22.6836 20.23V26.09C22.6836 28.652 23.7013 31.109 25.5129 32.9207C27.3245 34.7323 29.7816 35.75 32.3436 35.75C34.9056 35.75 37.3626 34.7323 39.1742 32.9207C40.9858 31.109 42.0036 28.652 42.0036 26.09V18.45Z" stroke="white" stroke-width="2" stroke-linecap="round" stroke-linejoin="round"/>
<path d="M22.6835 20.2499H20.8135V18.2499C20.8083 16.6308 21.1225 15.0266 21.7381 13.5291C22.3538 12.0316 23.2588 10.6703 24.4014 9.52309C25.5439 8.37589 26.9015 7.46535 28.3965 6.84363C29.8915 6.22191 31.4944 5.90121 33.1135 5.8999C33.7739 5.8999 34.4073 6.16224 34.8742 6.62921C35.3412 7.09617 35.6035 7.72951 35.6035 8.3899V8.7199C36.7202 8.79534 37.8298 8.95242 38.9235 9.1899C40.3135 9.50061 41.5566 10.2746 42.4488 11.3848C43.341 12.4951 43.8293 13.8756 43.8335 15.2999" stroke="white" stroke-width="2" stroke-linecap="round" stroke-linejoin="round"/>
<path d="M28.8335 29.0601C29.7681 29.9762 31.0247 30.4893 32.3335 30.4893C33.6423 30.4893 34.8989 29.9762 35.8335 29.0601" stroke="white" stroke-width="2" stroke-linecap="round" stroke-linejoin="round"/>
<path d="M22.6136 25.72C21.9168 25.6778 21.2624 25.3713 20.784 24.8631C20.3055 24.3548 20.0391 23.6831 20.0391 22.985C20.0391 22.2869 20.3055 21.6152 20.784 21.1069C21.2624 20.5987 21.9168 20.2922 22.6136 20.25" stroke="white" stroke-width="2" stroke-linecap="round" stroke-linejoin="round"/>
<path d="M42.0034 25.72C42.7002 25.6778 43.3546 25.3713 43.8331 24.8631C44.3115 24.3548 44.578 23.6831 44.578 22.985C44.578 22.2869 44.3115 21.6152 43.8331 21.1069C43.3546 20.5987 42.7002 20.2922 42.0034 20.25" stroke="white" stroke-width="2" stroke-linecap="round" stroke-linejoin="round"/>
<path d="M32.3435 45.71V57.99" stroke="white" stroke-width="2" stroke-linecap="round" stroke-linejoin="round"/>
</svg>
