<svg width="64" height="64" viewBox="0 0 64 64" fill="none" xmlns="http://www.w3.org/2000/svg">
<path d="M39.1399 36.26C46.5957 36.26 52.6399 30.2159 52.6399 22.76C52.6399 15.3042 46.5957 9.26001 39.1399 9.26001C31.684 9.26001 25.6399 15.3042 25.6399 22.76C25.6399 30.2159 31.684 36.26 39.1399 36.26Z" fill="#EAAE18"/>
<path d="M41.89 30.8701L32 55.0501C32.1682 55.0497 32.3342 55.0108 32.485 54.9362C32.6358 54.8617 32.7675 54.7535 32.87 54.6201L54.24 30.9201V30.8701H41.89Z" stroke="white" stroke-width="2" stroke-linecap="round" stroke-linejoin="round"/>
<path d="M54.2099 30.8699L46.2899 19.8799L41.8899 30.8699H54.2099Z" stroke="white" stroke-width="2" stroke-linecap="round" stroke-linejoin="round"/>
<path d="M17.71 19.8799L9.79004 30.8699H22.11L17.71 19.8799Z" stroke="white" stroke-width="2" stroke-linecap="round" stroke-linejoin="round"/>
<path d="M9.79004 30.8701V30.9201L31.16 54.6201C31.2625 54.7535 31.3942 54.8617 31.5451 54.9362C31.6959 55.0108 31.8618 55.0497 32.03 55.0501L22.11 30.8701H9.79004Z" stroke="white" stroke-width="2" stroke-linecap="round" stroke-linejoin="round"/>
<path d="M32 19.8799H17.71L22.11 30.8699L32 19.8799Z" stroke="white" stroke-width="2" stroke-linecap="round" stroke-linejoin="round"/>
<path d="M22.1101 30.8701L32.0001 55.0501L41.8901 30.8701H22.1101Z" stroke="white" stroke-width="2" stroke-linecap="round" stroke-linejoin="round"/>
<path d="M46.29 19.8799H32L41.89 30.8699L46.29 19.8799Z" stroke="white" stroke-width="2" stroke-linecap="round" stroke-linejoin="round"/>
<path d="M41.8901 30.8699L32.0001 19.8799L22.1101 30.8699H41.8901Z" stroke="white" stroke-width="2" stroke-linecap="round" stroke-linejoin="round"/>
<path d="M12.7799 14.1101L11.5099 17.1101C11.4783 17.1805 11.4271 17.2403 11.3623 17.2822C11.2975 17.3242 11.222 17.3465 11.1449 17.3465C11.0677 17.3465 10.9922 17.3242 10.9275 17.2822C10.8627 17.2403 10.8114 17.1805 10.7799 17.1101L9.51988 14.1101L6.51988 12.8501C6.45267 12.8157 6.39626 12.7634 6.35687 12.699C6.31748 12.6346 6.29663 12.5606 6.29663 12.4851C6.29663 12.4096 6.31748 12.3356 6.35687 12.2712C6.39626 12.2068 6.45267 12.1545 6.51988 12.1201L9.51988 10.8501L10.7899 7.85011C10.8072 7.7994 10.8348 7.75281 10.8709 7.71323C10.9071 7.67366 10.951 7.64196 10.9999 7.62011C11.0967 7.57126 11.209 7.56277 11.3121 7.59651C11.4151 7.63025 11.5007 7.70346 11.5499 7.80011L12.8099 10.8001L15.8099 12.0701C15.8763 12.1049 15.9324 12.1564 15.9728 12.2195C16.0131 12.2827 16.0362 12.3553 16.0399 12.4301C16.036 12.5062 16.0129 12.5801 15.9726 12.6448C15.9324 12.7095 15.8764 12.763 15.8099 12.8001L12.8099 14.0701L12.7799 14.1101Z" stroke="white" stroke-width="2" stroke-linecap="round" stroke-linejoin="round"/>
<path d="M54.4601 52.18L53.2001 55.18C53.1581 55.2616 53.0917 55.328 53.0101 55.37C52.9622 55.3936 52.9102 55.4074 52.8569 55.4107C52.8037 55.4139 52.7504 55.4064 52.7 55.3887C52.6497 55.371 52.6035 55.3434 52.564 55.3076C52.5245 55.2717 52.4925 55.2283 52.4701 55.18L51.2001 52.18L48.2001 50.92C48.1328 50.8856 48.0764 50.8333 48.037 50.7689C47.9977 50.7045 47.9768 50.6305 47.9768 50.555C47.9768 50.4795 47.9977 50.4055 48.037 50.341C48.0764 50.2766 48.1328 50.2244 48.2001 50.19L51.2001 48.92L52.4701 45.92C52.5115 45.8439 52.574 45.7814 52.6501 45.74C52.7469 45.6911 52.8592 45.6826 52.9622 45.7164C53.0653 45.7501 53.1508 45.8233 53.2001 45.92L54.4601 48.92L57.4601 50.19C57.5305 50.2215 57.5902 50.2728 57.6322 50.3376C57.6741 50.4023 57.6964 50.4778 57.6964 50.555C57.6964 50.6321 57.6741 50.7076 57.6322 50.7724C57.5902 50.8372 57.5305 50.8884 57.4601 50.92L54.4601 52.19V52.18Z" stroke="white" stroke-width="2" stroke-linecap="round" stroke-linejoin="round"/>
</svg>
