<svg width="30" height="30" viewBox="0 0 30 30" fill="none" xmlns="http://www.w3.org/2000/svg">
<rect width="30" height="30" rx="6" fill="url(#paint0_linear_73_7779)"/>
<path d="M18.8965 11.6185C15.7511 9.66374 17.2261 6.90478 17.2894 6.7901C17.3813 6.6269 17.3809 6.42613 17.2887 6.26321C17.1964 6.1003 17.0261 6 16.8418 6C15.2227 6 13.9549 6.4699 13.0735 7.39672C11.5675 8.9803 11.6373 11.445 11.6672 12.4975C11.6705 12.6141 11.6733 12.7148 11.6733 12.7897C11.6733 13.5711 11.7961 14.2925 11.9044 14.9291C11.9742 15.3392 12.0344 15.6935 12.0452 15.9719C12.0566 16.2701 12.0033 16.3384 12.0011 16.3412C11.9935 16.3504 11.9301 16.3848 11.7589 16.3848C11.5636 16.3848 11.4197 16.3196 11.2921 16.1735C10.7939 15.6029 10.7594 14.0447 10.8547 13.197C10.8718 13.0475 10.8255 12.8977 10.7275 12.7853C10.6295 12.673 10.4892 12.6088 10.342 12.6088C9.00161 12.6088 8 14.8478 8 16.8497C8 17.7908 8.18534 18.7127 8.55081 19.5898C8.90413 20.4377 9.40793 21.2029 10.0484 21.8642C11.382 23.2415 13.1404 24 14.9997 24C16.8666 24 18.6246 23.2522 19.95 21.8945C21.2719 20.5403 22 18.7487 22 16.8496C22 14.4266 20.144 12.3937 18.8965 11.6185Z" fill="white"/>
<defs>
<linearGradient id="paint0_linear_73_7779" x1="15" y1="0" x2="15" y2="30" gradientUnits="userSpaceOnUse">
<stop stop-color="#7843FF"/>
<stop offset="1" stop-color="#610EDE"/>
</linearGradient>
</defs>
</svg>
