<svg width="65" height="64" viewBox="0 0 65 64" fill="none" xmlns="http://www.w3.org/2000/svg">
<rect x="0.5" width="64" height="64" rx="10" fill="url(#paint0_linear_73_8737)"/>
<g clip-path="url(#clip0_73_8737)">
<path fill-rule="evenodd" clip-rule="evenodd" d="M21.5286 14.9333C18.1623 14.9333 15.4333 17.6623 15.4333 21.0286V42.9714C15.4333 46.3377 18.1623 49.0667 21.5286 49.0667H43.4714C46.8377 49.0667 49.5667 46.3377 49.5667 42.9714V21.0286C49.5667 17.6623 46.8377 14.9333 43.4714 14.9333H21.5286ZM28.1979 23.6394C28.1979 25.2552 26.888 26.5651 25.2722 26.5651C23.6563 26.5651 22.3464 25.2552 22.3464 23.6394C22.3464 22.0236 23.6563 20.7137 25.2722 20.7137C26.888 20.7137 28.1979 22.0236 28.1979 23.6394ZM25.2722 43.2872C26.888 43.2872 28.1979 41.9772 28.1979 40.3615C28.1979 38.7456 26.888 37.4357 25.2722 37.4357C23.6563 37.4357 22.3464 38.7456 22.3464 40.3615C22.3464 41.9772 23.6563 43.2872 25.2722 43.2872ZM28.1979 32.0007C28.1979 33.6165 26.888 34.9264 25.2722 34.9264C23.6563 34.9264 22.3464 33.6165 22.3464 32.0007C22.3464 30.3849 23.6563 29.075 25.2722 29.075C26.888 29.075 28.1979 30.3849 28.1979 32.0007ZM39.7278 26.5651C41.3437 26.5651 42.6535 25.2552 42.6535 23.6394C42.6535 22.0236 41.3437 20.7137 39.7278 20.7137C38.112 20.7137 36.8021 22.0236 36.8021 23.6394C36.8021 25.2552 38.112 26.5651 39.7278 26.5651ZM42.6535 40.3615C42.6535 41.9772 41.3437 43.2872 39.7278 43.2872C38.112 43.2872 36.8021 41.9772 36.8021 40.3615C36.8021 38.7456 38.112 37.4357 39.7278 37.4357C41.3437 37.4357 42.6535 38.7456 42.6535 40.3615ZM39.7278 34.9264C41.3437 34.9264 42.6535 33.6165 42.6535 32.0007C42.6535 30.3849 41.3437 29.075 39.7278 29.075C38.112 29.075 36.8021 30.3849 36.8021 32.0007C36.8021 33.6165 38.112 34.9264 39.7278 34.9264Z" fill="white"/>
</g>
<defs>
<linearGradient id="paint0_linear_73_8737" x1="32.5" y1="0" x2="32.5" y2="64" gradientUnits="userSpaceOnUse">
<stop stop-color="#7843FF"/>
<stop offset="1" stop-color="#610EDE"/>
</linearGradient>
<clipPath id="clip0_73_8737">
<rect width="34.1333" height="34.1333" fill="white" transform="translate(15.4333 14.9333)"/>
</clipPath>
</defs>
</svg>
