<svg width="30" height="30" viewBox="0 0 30 30" fill="none" xmlns="http://www.w3.org/2000/svg">
<rect width="30" height="30" rx="6" fill="url(#paint0_linear_73_8085)"/>
<g clip-path="url(#clip0_73_8085)">
<path fill-rule="evenodd" clip-rule="evenodd" d="M23 15C23 19.4183 19.4183 23 15 23C10.5817 23 7 19.4183 7 15C7 10.5817 10.5817 7 15 7C19.4183 7 23 10.5817 23 15ZM15.8571 10.7143C15.8571 10.2409 15.4733 9.85714 15 9.85714C14.5266 9.85714 14.1428 10.2409 14.1428 10.7143V11.2977C13.0722 11.4113 12.2381 12.3173 12.2381 13.418C12.2381 14.4201 12.9358 15.287 13.9148 15.5011L15.5983 15.8694C15.8603 15.9267 16.0476 16.1592 16.0476 16.428C16.0476 16.744 15.7914 17 15.4762 17H14.5238C14.2764 17 14.0635 16.8422 13.9847 16.6191C13.8269 16.1728 13.3372 15.9388 12.8909 16.0966C12.4446 16.2543 12.2106 16.744 12.3684 17.1904C12.6409 17.9615 13.316 18.544 14.1428 18.6826V19.2857C14.1428 19.7591 14.5266 20.1429 15 20.1429C15.4733 20.1429 15.8571 19.7591 15.8571 19.2857V18.6826C16.9384 18.5011 17.7619 17.5603 17.7619 16.428C17.7619 15.3542 17.0143 14.4243 15.9646 14.1947L14.2811 13.8264C14.0892 13.7844 13.9524 13.6145 13.9524 13.418C13.9524 13.1872 14.1396 13 14.3704 13H15.4762C15.6453 13 15.7964 13.0724 15.9023 13.1907C15.952 13.2462 15.9905 13.3108 16.0153 13.3809C16.1731 13.8272 16.6628 14.0611 17.1091 13.9034C17.5554 13.7456 17.7894 13.2559 17.6316 12.8096C17.5309 12.5248 17.3759 12.2667 17.1797 12.0474C16.8424 11.6705 16.3797 11.4052 15.8571 11.3174V10.7143Z" fill="white"/>
</g>
<defs>
<linearGradient id="paint0_linear_73_8085" x1="15" y1="0" x2="15" y2="30" gradientUnits="userSpaceOnUse">
<stop stop-color="#7843FF"/>
<stop offset="1" stop-color="#610EDE"/>
</linearGradient>
<clipPath id="clip0_73_8085">
<rect width="16" height="16" fill="white" transform="translate(7 7)"/>
</clipPath>
</defs>
</svg>
