<svg width="30" height="30" viewBox="0 0 30 30" fill="none" xmlns="http://www.w3.org/2000/svg">
<rect width="30" height="30" rx="6" fill="url(#paint0_linear_73_7983)"/>
<g clip-path="url(#clip0_73_7983)">
<path fill-rule="evenodd" clip-rule="evenodd" d="M16.6415 7.93008C15.718 7.07051 14.2875 7.07051 13.364 7.93008L8.51 12.4477L8.50903 12.4486C6.93599 13.9264 6.99958 16.186 8.02475 17.7376C8.54054 18.5182 9.3082 19.1366 10.2553 19.3971C11.0625 19.619 11.9813 19.5758 12.9591 19.1756L12.3113 22.3715C12.2943 22.4556 12.3159 22.5428 12.3701 22.6091C12.4244 22.6755 12.5056 22.714 12.5913 22.714H17.409C17.4948 22.714 17.576 22.6755 17.6302 22.6091C17.6845 22.5428 17.7061 22.4556 17.6891 22.3715L17.0404 19.1713C18.0172 19.5711 18.9354 19.6139 19.7422 19.3917C20.6889 19.131 21.4567 18.5126 21.973 17.7323C22.9991 16.1816 23.0662 13.9231 21.4964 12.4486L21.4955 12.4477L16.6415 7.93008Z" fill="white"/>
</g>
<defs>
<linearGradient id="paint0_linear_73_7983" x1="15" y1="0" x2="15" y2="30" gradientUnits="userSpaceOnUse">
<stop stop-color="#7843FF"/>
<stop offset="1" stop-color="#610EDE"/>
</linearGradient>
<clipPath id="clip0_73_7983">
<rect width="16" height="16" fill="white" transform="translate(7 7)"/>
</clipPath>
</defs>
</svg>
