<svg width="30" height="30" viewBox="0 0 30 30" fill="none" xmlns="http://www.w3.org/2000/svg">
<rect width="30" height="30" rx="6" fill="url(#paint0_linear_73_8192)"/>
<g clip-path="url(#clip0_73_8192)">
<path fill-rule="evenodd" clip-rule="evenodd" d="M12.4288 8.39175C12.4288 7.91836 12.8125 7.53461 13.2859 7.53461L13.2893 7.53461C13.4447 7.53521 13.5903 7.57716 13.7158 7.65004L18.845 10.4996C19.1172 10.6508 19.286 10.9376 19.286 11.2489C19.286 11.5602 19.1172 11.847 18.845 11.9982L14.1431 14.6104V17.7008C14.716 17.9327 15.1736 18.3902 15.4055 18.9632H19.3994V18.0321C19.3994 17.6854 19.6082 17.3729 19.9286 17.2402C20.2488 17.1075 20.6175 17.1809 20.8626 17.426L22.6509 19.2142C22.7304 19.2938 22.7911 19.3852 22.8328 19.4826C22.8773 19.5862 22.902 19.7004 22.902 19.8204C22.902 19.9458 22.875 20.0649 22.8265 20.1724C22.7928 20.2473 22.7478 20.3183 22.6914 20.3829C22.677 20.3994 22.6621 20.4154 22.6465 20.4308L20.8626 22.2146C20.6175 22.4598 20.2488 22.533 19.9286 22.4005C19.6082 22.2678 19.3994 21.9552 19.3994 21.6085V20.6775H15.4055C15.0664 21.5151 14.2452 22.1061 13.2859 22.1061C12.3267 22.1061 11.5054 21.5151 11.1664 20.6775H7.95504C7.48166 20.6775 7.0979 20.2937 7.0979 19.8204C7.0979 19.347 7.48166 18.9632 7.95504 18.9632H11.1664C11.3983 18.3902 11.8558 17.9327 12.4288 17.7008V14.106V8.39175Z" fill="white"/>
</g>
<defs>
<linearGradient id="paint0_linear_73_8192" x1="15" y1="0" x2="15" y2="30" gradientUnits="userSpaceOnUse">
<stop stop-color="#7843FF"/>
<stop offset="1" stop-color="#610EDE"/>
</linearGradient>
<clipPath id="clip0_73_8192">
<rect width="16" height="16" fill="white" transform="translate(7 7)"/>
</clipPath>
</defs>
</svg>
