<svg width="64" height="64" viewBox="0 0 64 64" fill="none" xmlns="http://www.w3.org/2000/svg">
<rect width="64" height="64" rx="10" fill="url(#paint0_linear_73_8814)"/>
<path d="M30.2065 15.634C30.9402 14.1475 33.0598 14.1475 33.7935 15.634L37.4125 22.9669C37.7038 23.5572 38.267 23.9664 38.9184 24.061L47.0108 25.2369C48.6512 25.4753 49.3063 27.4912 48.1192 28.6483L42.2635 34.3562C41.7921 34.8157 41.577 35.4777 41.6883 36.1265L43.0707 44.1862C43.3509 45.82 41.636 47.066 40.1688 46.2946L32.9307 42.4893C32.348 42.183 31.652 42.183 31.0693 42.4893L23.8312 46.2946C22.364 47.066 20.6491 45.82 20.9293 44.1862L22.3117 36.1265C22.423 35.4777 22.2079 34.8157 21.7365 34.3562L15.8808 28.6483C14.6937 27.4912 15.3488 25.4753 16.9892 25.2369L25.0816 24.061C25.733 23.9664 26.2962 23.5572 26.5875 22.9669L30.2065 15.634Z" fill="white"/>
<defs>
<linearGradient id="paint0_linear_73_8814" x1="32" y1="0" x2="32" y2="64" gradientUnits="userSpaceOnUse">
<stop stop-color="#7843FF"/>
<stop offset="1" stop-color="#610EDE"/>
</linearGradient>
</defs>
</svg>
