<svg width="30" height="30" viewBox="0 0 30 30" fill="none" xmlns="http://www.w3.org/2000/svg">
<rect width="30" height="30" rx="6" fill="url(#paint0_linear_73_8470)"/>
<g clip-path="url(#clip0_73_8470)">
<path fill-rule="evenodd" clip-rule="evenodd" d="M23 15C23 19.4183 19.4183 23 15 23C10.5817 23 7 19.4183 7 15C7 10.5817 10.5817 7 15 7C19.4183 7 23 10.5817 23 15ZM13.5714 13C13.5714 12.211 14.211 11.5714 15 11.5714C15.789 11.5714 16.4286 12.211 16.4286 13C16.4286 13.789 15.789 14.4286 15 14.4286C14.5266 14.4286 14.1429 14.8123 14.1429 15.2857V16.0245C14.1429 16.4979 14.5266 16.8817 15 16.8817C15.4734 16.8817 15.8571 16.4979 15.8571 16.0245C17.1763 15.6515 18.1429 14.4386 18.1429 13C18.1429 11.2643 16.7357 9.85714 15 9.85714C13.2643 9.85714 11.8571 11.2643 11.8571 13C11.8571 13.4734 12.2409 13.8571 12.7143 13.8571C13.1877 13.8571 13.5714 13.4734 13.5714 13ZM16.1429 19C16.1429 19.6312 15.6312 20.1429 15 20.1429C14.3688 20.1429 13.8571 19.6312 13.8571 19C13.8571 18.3688 14.3688 17.8571 15 17.8571C15.6312 17.8571 16.1429 18.3688 16.1429 19Z" fill="white"/>
</g>
<defs>
<linearGradient id="paint0_linear_73_8470" x1="15" y1="0" x2="15" y2="30" gradientUnits="userSpaceOnUse">
<stop stop-color="#7843FF"/>
<stop offset="1" stop-color="#610EDE"/>
</linearGradient>
<clipPath id="clip0_73_8470">
<rect width="16" height="16" fill="white" transform="translate(7 7)"/>
</clipPath>
</defs>
</svg>
