<svg width="88" height="56" viewBox="0 0 88 56" fill="none" xmlns="http://www.w3.org/2000/svg">
<path d="M62.287 28.1014C61.6037 28.1014 61.031 27.9306 60.5687 27.5889C60.1266 27.2272 59.8151 26.7449 59.6342 26.142C59.4735 25.5793 59.373 24.9663 59.3328 24.3031C59.3127 23.6399 59.3027 22.7054 59.3027 21.4996C59.3027 20.3742 59.2524 19.5402 59.1519 18.9976C59.0715 18.455 58.8605 18.1837 58.5189 18.1837C58.1169 18.1837 57.8356 18.3645 57.6748 18.7263C57.514 19.0679 57.4337 19.5603 57.4337 20.2034C57.4337 20.7862 57.514 21.7006 57.6748 22.9466C57.6949 23.1878 57.7351 23.5696 57.7954 24.0921C57.8557 24.6146 57.8858 25.0467 57.8858 25.3884C57.8858 26.353 57.6648 27.0363 57.2226 27.4382C56.8006 27.8402 56.1776 28.0411 55.3536 28.0411C54.3689 28.0411 53.5148 27.5086 52.7913 26.4434C52.0678 25.3783 51.5252 24.0519 51.1635 22.4643C50.8017 20.8565 50.6208 19.2789 50.6208 17.7315C50.6208 15.8826 50.8821 14.1643 51.4046 12.5767C51.9472 10.989 52.7511 9.71288 53.8162 8.74824C54.9015 7.78359 56.2078 7.30127 57.7351 7.30127C59.0213 7.30127 60.0462 7.7032 60.8099 8.50708C61.5736 9.29085 62.0861 10.2454 62.3473 11.3709C62.5684 10.2655 63.0607 9.31095 63.8244 8.50708C64.6082 7.7032 65.6331 7.30127 66.8992 7.30127C68.4065 7.30127 69.6927 7.77354 70.7578 8.71809C71.843 9.64254 72.667 10.9388 73.2297 12.6068C73.8125 14.2748 74.1039 16.2041 74.1039 18.3947C74.1039 19.8216 74.1039 21.2886 74.1039 22.826C74.1039 24.3634 74.1039 27.5588 73.8602 30.4221C73.6164 33.2854 72.4247 34.274 71.9462 34.7525C71.4677 35.231 69.5537 35.7095 68.5967 34.7525C67.6398 33.7955 67.1613 33.317 67.1613 31.403C67.1613 29.489 67.1613 24.3031 67.1613 22.9165C67.1613 21.5298 67.2308 20.7058 67.2308 20.1431C67.2308 18.8368 66.8791 18.1837 66.1757 18.1837C65.814 18.1837 65.5829 18.4751 65.4824 19.0579C65.402 19.6407 65.3518 20.5852 65.3317 21.8915C65.3317 22.8763 65.3116 23.7002 65.2714 24.3634C65.2312 25.0065 65.1408 25.5994 65.0001 26.142C64.8393 26.7248 64.5178 27.1971 64.0354 27.5588C63.5732 27.9205 62.9904 28.1014 62.287 28.1014Z" fill="white"/>
<path d="M34.8342 28.1615C33.4878 28.1615 32.4025 27.5084 31.5786 26.2021C30.7747 24.8757 30.3024 23.0871 30.1617 20.8363C30.1416 20.5147 30.1316 20.0424 30.1316 19.4194C30.1316 16.9877 30.5335 14.8374 31.3374 12.9684C32.1413 11.0793 33.2767 9.62227 34.7438 8.59733C36.231 7.5523 37.9593 7.02979 39.9288 7.02979C41.8982 7.02979 43.6165 7.5523 45.0836 8.59733C46.5707 9.62227 47.7062 11.0692 48.49 12.9382C49.2939 14.8072 49.6958 16.9676 49.6958 19.4194C49.6958 20.0424 49.6857 20.5147 49.6656 20.8363C49.525 23.1273 49.0527 24.9159 48.2488 26.2021C47.445 27.4883 46.3597 28.1314 44.9931 28.1314C43.8878 28.1314 43.1141 27.8299 42.672 27.227C42.2499 26.6241 42.0389 25.8906 42.0389 25.0264C42.0389 24.6245 42.0691 24.2728 42.1294 23.9714C41.0843 24.0115 40.1599 24.0316 39.356 24.0316C38.8536 24.0316 38.3009 24.0115 37.698 23.9714C37.7583 24.2728 37.7885 24.6245 37.7885 25.0264C37.7885 25.9107 37.5674 26.6543 37.1253 27.2572C36.7032 27.8601 35.9396 28.1615 34.8342 28.1615ZM37.487 18.6055C38.5722 18.5653 39.3661 18.5452 39.8685 18.5452C40.4111 18.5452 41.2049 18.5653 42.2499 18.6055C42.2901 18.3845 42.3102 18.0529 42.3102 17.6107C42.3102 16.6662 42.1093 15.9025 41.7073 15.3197C41.3054 14.7168 40.6824 14.4153 39.8383 14.4153C39.0144 14.4153 38.4014 14.7067 37.9995 15.2896C37.5975 15.8724 37.3966 16.626 37.3966 17.5504C37.3966 17.8921 37.4267 18.2438 37.487 18.6055Z" fill="white"/>
<path d="M23.2318 17.7317C24.4175 17.7317 25.3922 17.792 26.1559 17.9125C26.9396 18.013 27.5727 18.2542 28.055 18.636C28.5574 18.9978 28.8086 19.5504 28.8086 20.294C28.8086 21.3591 28.3966 22.0625 27.5727 22.4042C26.7688 22.7458 25.5931 22.9166 24.0457 22.9166L21.5436 22.8865L19.6445 22.9166C19.7249 23.6803 19.7651 30.9821 19.7651 31.4243C19.7651 33.655 18.2095 34.7704 16.441 34.7704C14.9739 34.7704 12.6131 34.2742 12.6131 32.3286C12.6131 30.3831 12.4097 21.4596 12.4097 18.003C12.4097 15.8727 12.8518 13.9736 13.7361 12.3055C14.6404 10.6375 15.8663 9.34127 17.4138 8.41682C18.9612 7.47227 20.6594 7 22.5083 7C24.7993 7 26.5377 7.39189 27.7234 8.17566C28.9292 8.95943 29.5321 10.0547 29.5321 11.4615C29.5321 12.4462 29.2909 13.1999 28.8086 13.7224C28.3464 14.2248 27.6933 14.5664 26.8492 14.7473C26.0252 14.9081 24.93 14.9885 23.5634 14.9885C22.458 14.9885 21.5035 15.2095 20.6996 15.6517C19.9158 16.0938 19.4837 16.7067 19.4033 17.4905L19.3732 17.7618C19.6144 17.7417 19.9761 17.7317 20.4584 17.7317H21.5436H23.2318Z" fill="white"/>
<path d="M76.6082 48.7969C75.1948 48.8165 73.9286 48.5221 72.8097 47.9135C71.7104 47.305 70.8466 46.4707 70.2185 45.4106C69.6099 44.3309 69.286 43.1335 69.2467 41.8182C69.2271 40.503 69.5314 39.3251 70.1596 38.2847C70.7877 37.2443 71.6613 36.4198 72.7802 35.8113C73.9188 35.2027 75.1948 34.8984 76.6082 34.8984C77.9823 34.8984 79.2191 35.1929 80.3184 35.7818C81.4373 36.3707 82.3207 37.1952 82.9685 38.2553C83.6163 39.3153 83.9599 40.503 83.9991 41.8182C84.0188 43.0942 83.7145 44.2622 83.0863 45.3223C82.4581 46.3627 81.5747 47.197 80.4362 47.8252C79.3172 48.4534 78.0412 48.7773 76.6082 48.7969ZM76.6965 44.4978C77.2266 44.4978 77.6879 44.2917 78.0805 43.8794C78.4731 43.4672 78.6694 42.9862 78.6694 42.4366C78.6694 41.8869 78.4731 41.4158 78.0805 41.0232C77.6879 40.6109 77.2266 40.4048 76.6965 40.4048C76.1665 40.4048 75.7052 40.6109 75.3126 41.0232C74.92 41.4158 74.7237 41.8869 74.7237 42.4366C74.7237 42.9862 74.92 43.4672 75.3126 43.8794C75.7052 44.2917 76.1665 44.4978 76.6965 44.4978Z" fill="white"/>
<path d="M65.551 48.7674C64.8443 48.7674 64.3143 48.5711 63.961 48.1785C63.6272 47.7859 63.4211 47.3049 63.3426 46.7356C63.2641 46.1663 63.2248 45.4302 63.2248 44.5272C63.2248 43.369 63.0678 42.4758 62.7537 41.8476C62.4396 41.2194 61.9292 40.9053 61.2225 40.9053C60.5747 40.9053 60.0839 41.2194 59.7502 41.8476C59.4361 42.4562 59.2791 43.3003 59.2791 44.3799C59.2791 45.4204 59.2496 46.2056 59.1907 46.7356C59.1318 47.2656 58.9355 47.7368 58.6018 48.149C58.2681 48.5416 57.7184 48.7379 56.9528 48.7379C55.8339 48.7379 55.0487 48.0214 54.5972 46.5884C54.1457 45.1357 53.9199 43.4377 53.9199 41.4943C53.9199 36.7829 54.9113 34.4272 56.894 34.4272C57.4436 34.4272 57.8951 34.5647 58.2485 34.8395C58.6018 35.0947 58.8472 35.4677 58.9846 35.9584C59.2398 35.6836 59.6324 35.4382 60.1624 35.2223C60.7121 35.0063 61.2912 34.8984 61.8998 34.8984C64.0591 34.8984 65.6688 35.6836 66.7289 37.254C67.8086 38.8245 68.3484 40.9544 68.3484 43.6438C68.3484 45.2339 68.1423 46.4902 67.73 47.4129C67.3178 48.3159 66.5915 48.7674 65.551 48.7674Z" fill="white"/>
<path d="M49.2849 48.7675C48.48 48.7675 47.8813 48.5417 47.4887 48.0902C47.1157 47.6191 46.8605 46.9222 46.7231 45.9996C46.6053 45.0573 46.5464 43.7224 46.5464 41.9949C46.5464 40.5423 46.6151 39.3939 46.7525 38.5498C46.9096 37.7057 47.1844 37.0775 47.577 36.6652C47.9696 36.253 48.5389 36.0469 49.2849 36.0469C50.0897 36.0469 50.6786 36.2824 51.0516 36.7536C51.4442 37.2051 51.6994 37.902 51.8172 38.8442C51.9546 39.7669 52.0233 41.0919 52.0233 42.8194C52.0233 44.2721 51.9448 45.4205 51.7878 46.2646C51.6503 47.1087 51.3853 47.7369 50.9927 48.1491C50.6001 48.5614 50.0308 48.7675 49.2849 48.7675Z" fill="white"/>
<path d="M38.3807 48.7673C36.6532 48.7673 35.279 48.4826 34.2582 47.9134C33.2374 47.3441 32.7271 46.6079 32.7271 45.7049C32.7271 45.116 32.9234 44.6645 33.316 44.3504C33.7282 44.0167 34.2484 43.8498 34.8766 43.8498C35.2299 43.8498 35.5146 43.8989 35.7305 43.9971C35.9465 44.0952 36.1624 44.2326 36.3783 44.4093C36.5354 44.5467 36.663 44.6449 36.7611 44.7038C36.8789 44.7627 37.0163 44.7921 37.1734 44.7921C37.5856 44.7921 37.7917 44.6449 37.7917 44.3504C37.7917 44.0756 37.6838 43.8695 37.4678 43.732C37.2519 43.575 36.8789 43.3885 36.3489 43.1726C35.8581 42.9763 35.5342 42.8389 35.3772 42.7603C34.4742 42.3285 33.8067 41.8181 33.3749 41.2291C32.943 40.6402 32.7271 40.0121 32.7271 39.3446C32.7271 38.5987 32.9921 37.892 33.5221 37.2245C34.0717 36.5374 34.8373 35.9878 35.8189 35.5755C36.82 35.1437 37.9684 34.9277 39.264 34.9277C40.383 34.9277 41.394 35.0848 42.297 35.3989C43.2196 35.713 43.9459 36.1448 44.476 36.6945C45.006 37.2245 45.271 37.8134 45.271 38.4612C45.271 39.0698 45.0747 39.5311 44.6821 39.8452C44.3091 40.1593 43.7987 40.3163 43.1509 40.3163C42.8957 40.3163 42.6896 40.2967 42.5325 40.2574C42.3951 40.1985 42.2086 40.1102 41.9731 39.9924C41.8356 39.9139 41.6884 39.8452 41.5314 39.7863C41.394 39.7274 41.2369 39.698 41.0602 39.698C40.9032 39.698 40.7658 39.7569 40.648 39.8746C40.5302 39.9728 40.4713 40.1004 40.4713 40.2574C40.4713 40.5519 40.6872 40.7678 41.1191 40.9052C42.2577 41.2782 43.1705 41.7494 43.8576 42.3186C44.5643 42.8879 44.9176 43.6732 44.9176 44.6743C44.9176 45.9503 44.3189 46.9515 43.1214 47.6778C41.9436 48.4041 40.3633 48.7673 38.3807 48.7673Z" fill="white"/>
<path d="M23.8794 48.7673C22.3482 48.7673 21.0918 48.4238 20.1103 47.7367C19.1288 47.03 18.638 46.019 18.638 44.7038C18.638 43.5652 19.1386 42.6622 20.1397 41.9947C21.1409 41.3273 22.3874 40.9936 23.8794 40.9936C24.429 40.9936 24.9394 41.0427 25.4105 41.1408C25.9013 41.2193 26.235 41.3175 26.4117 41.4353C26.4117 40.9445 26.2056 40.5421 25.7933 40.228C25.3811 39.8943 24.7529 39.7274 23.9088 39.7274C23.5358 39.7274 23.2315 39.7569 22.996 39.8157C22.7604 39.8746 22.5052 39.963 22.2304 40.0808C21.9556 40.1985 21.7004 40.2869 21.4648 40.3458C21.2489 40.4047 20.9544 40.4341 20.5814 40.4341C19.9532 40.4341 19.4625 40.2771 19.1091 39.963C18.7558 39.6293 18.5791 39.1287 18.5791 38.4612C18.5791 37.6956 18.8539 37.0478 19.4036 36.5178C19.9729 35.9878 20.6796 35.5952 21.5237 35.34C22.3678 35.0651 23.2119 34.9277 24.056 34.9277C25.7246 34.9277 27.1184 35.2418 28.2373 35.87C29.3759 36.4785 30.2102 37.2932 30.7402 38.314C31.2899 39.3348 31.5647 40.4636 31.5647 41.7003C31.5647 42.3677 31.5058 42.9861 31.3881 43.5554C31.2899 44.1247 31.1525 44.5663 30.9758 44.8804C31.2506 45.116 31.4568 45.3908 31.5942 45.7049C31.7512 46.019 31.8297 46.3429 31.8297 46.6766C31.8297 47.2459 31.6334 47.7367 31.2408 48.1489C30.8678 48.5612 30.3673 48.7673 29.7391 48.7673C29.268 48.7673 28.8852 48.6986 28.5907 48.5612C28.2962 48.4238 27.9821 48.2078 27.6484 47.9134C27.1577 48.2078 26.6178 48.4238 26.0289 48.5612C25.4596 48.6986 24.7431 48.7673 23.8794 48.7673ZM24.4683 45.7933C24.8805 45.7933 25.2044 45.7049 25.44 45.5282C25.6952 45.3516 25.8228 45.1356 25.8228 44.8804C25.8228 44.6252 25.6952 44.4093 25.44 44.2326C25.2044 44.056 24.8805 43.9676 24.4683 43.9676C24.056 43.9676 23.7223 44.056 23.4671 44.2326C23.2315 44.4093 23.1138 44.6252 23.1138 44.8804C23.1138 45.1356 23.2315 45.3516 23.4671 45.5282C23.7223 45.7049 24.056 45.7933 24.4683 45.7933Z" fill="white"/>
<path d="M11.2142 48.7378C9.95788 48.7378 8.77023 48.4336 7.65129 47.825C6.55198 47.1968 5.6686 46.3527 5.00116 45.2927C4.33372 44.2326 4 43.045 4 41.7297C4 40.3556 4.3239 39.1581 4.97171 38.1373C5.63915 37.0969 6.51271 36.3019 7.5924 35.7522C8.69171 35.2026 9.86954 34.9277 11.1259 34.9277C12.3234 34.9277 13.403 35.1633 14.3649 35.6344C15.3268 36.1056 16.0728 36.7239 16.6028 37.4895C17.1329 38.2355 17.3979 39.0207 17.3979 39.8452C17.3979 40.5323 17.1819 41.0623 16.7501 41.4353C16.3378 41.8083 15.7195 41.9947 14.895 41.9947C14.4631 41.9947 14.1294 41.9162 13.8938 41.7592C13.6582 41.6021 13.4129 41.3666 13.1577 41.0525C12.9221 40.758 12.6963 40.5421 12.4804 40.4047C12.2841 40.2476 11.9995 40.1691 11.6265 40.1691C11.0965 40.1691 10.6449 40.3556 10.272 40.7286C9.89899 41.0819 9.7125 41.5432 9.7125 42.1125C9.7125 42.7014 9.88917 43.1726 10.2425 43.5259C10.6155 43.8793 11.0768 44.056 11.6265 44.056C11.9798 44.056 12.2547 44.0069 12.451 43.9087C12.6473 43.8106 12.8632 43.6535 13.0988 43.4376C13.3736 43.202 13.6288 43.0352 13.8644 42.937C14.0999 42.8192 14.4435 42.7603 14.895 42.7603C15.6998 42.7603 16.3182 42.9763 16.7501 43.4081C17.1819 43.84 17.3979 44.3406 17.3979 44.9099C17.3979 45.5773 17.1329 46.2055 16.6028 46.7944C16.0924 47.3833 15.3661 47.8545 14.4238 48.2078C13.4816 48.5612 12.4117 48.7378 11.2142 48.7378Z" fill="white"/>
</svg>
