<svg width="65" height="64" viewBox="0 0 65 64" fill="none" xmlns="http://www.w3.org/2000/svg">
<rect width="64" height="64" transform="translate(0.333496)" fill="#050413"/>
<path d="M18.2739 32.6396C25.7298 32.6396 31.7739 26.5955 31.7739 19.1396C31.7739 11.6838 25.7298 5.63965 18.2739 5.63965C10.8181 5.63965 4.77393 11.6838 4.77393 19.1396C4.77393 26.5955 10.8181 32.6396 18.2739 32.6396Z" fill="#EAAE18"/>
<path d="M43.5239 21.6523L43.5239 26.9126" stroke="white" stroke-width="2" stroke-linecap="round" stroke-linejoin="round"/>
<path d="M43.5197 15.2672C43.2557 15.2672 43.0417 15.0513 43.0417 14.7851C43.0417 14.5188 43.2557 14.3029 43.5197 14.3029" stroke="white" stroke-width="2" stroke-linecap="round" stroke-linejoin="round"/>
<path d="M43.5281 15.2672C43.7921 15.2672 44.0062 15.0513 44.0062 14.7851C44.0062 14.5188 43.7921 14.3029 43.5281 14.3029" stroke="white" stroke-width="2" stroke-linecap="round" stroke-linejoin="round"/>
<path d="M8.6377 54.6163H54.952" stroke="white" stroke-width="2" stroke-linecap="round" stroke-linejoin="round"/>
<path d="M20.4841 38.8194C24.6147 38.8194 27.9631 35.471 27.9631 31.3404C27.9631 27.2099 24.6147 23.8614 20.4841 23.8614C16.3536 23.8614 13.0051 27.2099 13.0051 31.3404C13.0051 35.471 16.3536 38.8194 20.4841 38.8194Z" stroke="white" stroke-width="2" stroke-linecap="round" stroke-linejoin="round"/>
<path d="M8.63306 54.6225V50.6724C8.63306 44.1276 13.9386 38.8221 20.4834 38.8221C27.0281 38.8221 32.3336 44.1276 32.3336 50.6724V54.6225" stroke="white" stroke-width="2" stroke-linecap="round" stroke-linejoin="round"/>
<path d="M33.8511 30.9043C36.3232 33.326 39.7086 34.8192 43.4426 34.8192C51.0127 34.8192 57.1498 28.6823 57.1498 21.1121C57.1498 13.5419 51.0127 7.40506 43.4426 7.40506C36.1016 7.40506 30.1084 13.1759 29.7522 20.4286" stroke="white" stroke-width="2" stroke-linecap="round" stroke-linejoin="round"/>
</svg>
