<svg width="120" height="36" viewBox="0 0 120 36" fill="none" xmlns="http://www.w3.org/2000/svg">
<path d="M20.7996 14.7156L20.2356 16.9788C20.8752 17.1372 22.848 17.7888 23.1672 16.5084C23.5008 15.1728 21.4404 14.88 20.7996 14.7156Z" fill="#310744"/>
<path d="M19.9512 18.12L19.3284 20.616C20.0964 20.8068 22.4664 21.5676 22.8168 20.16C23.1828 18.6924 20.7192 18.312 19.9512 18.12Z" fill="#310744"/>
<path d="M23.3496 7.97761C21.3672 7.48342 19.2829 7.58814 17.3601 8.27853C15.4373 8.96893 13.7624 10.214 12.5472 11.8563C11.3321 13.4985 10.6311 15.4643 10.5331 17.5049C10.4351 19.5455 10.9444 21.5694 11.9967 23.3206C13.0489 25.0718 14.5967 26.4716 16.4445 27.3431C18.2923 28.2146 20.357 28.5185 22.3776 28.2166C24.3981 27.9146 26.2837 27.0203 27.796 25.6467C29.3083 24.2731 30.3793 22.4819 30.8736 20.4996C31.2018 19.1834 31.2675 17.8154 31.067 16.4737C30.8665 15.1321 30.4037 13.8431 29.705 12.6803C29.0064 11.5175 28.0855 10.5037 26.995 9.69684C25.9045 8.88995 24.6658 8.30576 23.3496 7.97761ZM25.4076 16.5288C25.2588 17.5344 24.7008 18.0216 23.9604 18.1932C24.9768 18.7224 25.494 19.5348 25.002 20.9424C24.39 22.6896 22.9368 22.8372 21.0036 22.4724L20.5344 24.3516L19.4004 24.0696L19.8636 22.2144C19.5696 22.1412 19.2696 22.0644 18.96 21.9744L18.4956 23.838L17.364 23.5548L17.8332 21.672C17.568 21.6036 17.2992 21.5316 17.0244 21.4632L15.5496 21.096L16.1124 19.8C16.1124 19.8 16.9524 20.022 16.9356 20.0052C16.9874 20.022 17.042 20.0283 17.0963 20.0239C17.1506 20.0194 17.2035 20.0043 17.2519 19.9793C17.3004 19.9543 17.3433 19.92 17.3784 19.8783C17.4135 19.8366 17.44 19.7884 17.4564 19.7364L18.1968 16.764L18.3168 16.794C18.2777 16.7786 18.2376 16.7662 18.1968 16.7568L18.7284 14.64C18.7416 14.4 18.6588 14.0952 18.1992 13.98C18.2172 13.9692 17.376 13.776 17.376 13.776L17.6784 12.5652L19.2384 12.9552C19.4784 13.014 19.7184 13.0752 19.9584 13.1256L20.4216 11.2644L21.5556 11.5464L21.0996 13.3716C21.4036 13.4404 21.7064 13.5116 22.008 13.5852L22.4604 11.772L23.5932 12.054L23.1348 13.92C24.5664 14.4144 25.6128 15.1536 25.4076 16.5288Z" fill="#310744"/>
<path d="M40.8 13.92C41.5474 13.902 42.2893 14.0538 42.9696 14.364C43.5598 14.6451 44.0794 15.0552 44.49 15.564C44.9007 16.0922 45.2026 16.6967 45.378 17.3424C45.5732 18.0579 45.6693 18.7968 45.6636 19.5384C45.6701 21.8519 44.7803 24.0781 43.1808 25.7496C42.4049 26.5474 41.4808 27.1861 40.4604 27.63C39.3894 28.0977 38.2318 28.3341 37.0632 28.3236C36.906 28.3236 36.6288 28.3236 36.2376 28.3104C35.7877 28.2956 35.339 28.2555 34.8936 28.1904C34.3521 28.1125 33.815 28.0067 33.2844 27.8736C32.7292 27.74 32.1897 27.5477 31.6752 27.3L36.1992 8.29081L40.2516 7.66321L38.6316 14.4084C38.9688 14.2581 39.3185 14.1376 39.6768 14.0484C40.0446 13.9601 40.4217 13.917 40.8 13.92ZM37.4016 25.1124C38.0051 25.1129 38.5988 24.9601 39.1272 24.6684C39.6702 24.3711 40.1467 23.966 40.5276 23.478C40.9258 22.9694 41.2391 22.3996 41.4552 21.7908C41.6818 21.1616 41.7971 20.4976 41.796 19.8288C41.796 18.9888 41.6556 18.3396 41.3772 17.868C41.0988 17.3964 40.5804 17.16 39.8316 17.16C39.5108 17.1721 39.192 17.2163 38.88 17.292C38.4853 17.3825 38.1202 17.572 37.8192 17.8428L36.0936 25.0056C36.198 25.0248 36.2904 25.0416 36.3684 25.0584C36.4495 25.0764 36.5316 25.0893 36.6144 25.0968C36.7192 25.1083 36.8246 25.1135 36.93 25.1124H37.4016ZM49.8636 27.96H45.9936L49.2612 14.208H53.16L49.8636 27.96ZM51.7464 12.5316C51.2189 12.5368 50.7044 12.3682 50.2824 12.0516C49.8444 11.7312 49.6272 11.238 49.6272 10.5732C49.625 10.2177 49.7004 9.8659 49.848 9.54241C49.9905 9.22794 50.1908 8.94302 50.4384 8.70241C50.6857 8.46609 50.9729 8.27554 51.2868 8.13961C51.6136 8.00144 51.9652 7.93161 52.32 7.93441C52.8475 7.92917 53.362 8.09786 53.784 8.41441C54.2184 8.73441 54.436 9.22681 54.4368 9.89161C54.4387 10.2486 54.3625 10.6016 54.2136 10.926C54.073 11.2407 53.8739 11.5257 53.6268 11.766C53.3795 12.0026 53.0918 12.1929 52.7772 12.3276C52.4515 12.4682 52.0999 12.5389 51.7452 12.5352L51.7464 12.5316ZM56.5464 10.7808L60.6 10.1568L59.604 14.2104H63.9456L63.1644 17.4H58.8504L57.7008 22.2096C57.6009 22.577 57.5398 22.9539 57.5184 23.334C57.4924 23.6419 57.5367 23.9517 57.648 24.24C57.756 24.4984 57.9561 24.7075 58.2096 24.8268C58.4796 24.9672 58.866 25.038 59.3724 25.038C59.7813 25.0386 60.1894 24.9984 60.5904 24.918C60.9938 24.8381 61.3908 24.729 61.7784 24.5916L62.0676 27.5736C61.512 27.774 60.9445 27.9395 60.3684 28.0692C59.6554 28.2178 58.9281 28.2866 58.2 28.2744C57 28.2744 56.0672 28.0968 55.4016 27.7416C54.7789 27.4271 54.2802 26.9123 53.9856 26.28C53.7006 25.6079 53.5773 24.8784 53.6256 24.15C53.6661 23.295 53.7866 22.4457 53.9856 21.6132L56.55 10.7892L56.5464 10.7808ZM63.7752 22.4688C63.7677 21.3276 63.9623 20.1941 64.35 19.1208C64.7155 18.1074 65.2761 17.1755 66 16.3776C66.7291 15.5838 67.6161 14.9511 68.604 14.52C69.6801 14.0552 70.8423 13.8233 72.0144 13.8396C72.7223 13.8311 73.4288 13.906 74.1192 14.0628C74.7011 14.199 75.267 14.396 75.8076 14.6508L74.4732 17.688C74.1164 17.5456 73.7544 17.4192 73.3872 17.3088C72.9409 17.1845 72.4787 17.1267 72.0156 17.1372C70.7232 17.1372 69.702 17.5836 68.9424 18.4704C68.1828 19.3572 67.8 20.5548 67.8 22.0536C67.8 22.9424 67.9924 23.6624 68.3772 24.2136C68.76 24.7632 69.468 25.0368 70.494 25.0368C70.9866 25.038 71.4779 24.9857 71.9592 24.8808C72.3887 24.7887 72.8089 24.6574 73.2144 24.4884L73.5072 27.6C72.9779 27.8026 72.4369 27.9734 71.8872 28.1112C71.192 28.2684 70.4806 28.3425 69.768 28.332C68.6872 28.332 67.772 28.1752 67.0224 27.8616C66.319 27.5789 65.6858 27.146 65.1672 26.5932C64.6756 26.0579 64.3131 25.4171 64.1076 24.72C63.8873 23.9912 63.7765 23.2338 63.7788 22.4724L63.7752 22.4688ZM80.9664 28.3248C80.1467 28.3415 79.3316 28.1989 78.5664 27.9048C77.9202 27.6499 77.3428 27.2471 76.8804 26.7288C76.4267 26.2066 76.0841 25.5974 75.8736 24.9384C75.6402 24.2013 75.5264 23.4315 75.5364 22.6584C75.5387 21.5918 75.7101 20.5322 76.044 19.5192C76.3713 18.495 76.8811 17.5384 77.5488 16.6956C78.213 15.8556 79.0383 15.1567 79.9764 14.64C80.9364 14.1096 82.0332 13.8432 83.2692 13.8432C84.0887 13.8271 84.9036 13.9693 85.6692 14.262C86.3165 14.5173 86.8954 14.9199 87.36 15.438C87.8127 15.961 88.1544 16.5705 88.3644 17.2296C88.5994 17.9689 88.7141 18.7411 88.704 19.5168C88.7003 20.5823 88.5336 21.641 88.2096 22.656C87.8913 23.6758 87.3952 24.6313 86.7444 25.4784C86.0902 26.3235 85.2666 27.0224 84.3264 27.5304C83.3608 28.0624 82.2408 28.3284 80.9664 28.3284V28.3248ZM82.9008 17.1348C82.3546 17.1259 81.8211 17.2999 81.3852 17.6292C80.941 17.9723 80.5684 18.3992 80.2884 18.8856C79.9868 19.4041 79.7617 19.9635 79.62 20.5464C79.4773 21.1058 79.4032 21.6804 79.3992 22.2576C79.3992 23.1312 79.5384 23.8112 79.8168 24.2976C80.0964 24.7836 80.6004 25.0284 81.3336 25.0284C81.8808 25.0376 82.4151 24.8622 82.8504 24.5304C83.2956 24.1898 83.6695 23.7649 83.9508 23.28C84.2529 22.7616 84.4784 22.2022 84.6204 21.6192C84.7608 21.0599 84.8345 20.4859 84.84 19.9092C84.84 19.0392 84.6996 18.3576 84.42 17.8692C84.1404 17.3808 83.6352 17.1372 82.9032 17.1372L82.9008 17.1348ZM92.9256 27.96H89.052L92.3208 14.208H96.2184L92.9256 27.96ZM94.806 12.5316C94.2788 12.5374 93.7645 12.3686 93.3432 12.0516C92.9064 11.7316 92.6876 11.2388 92.6868 10.5732C92.6854 10.2175 92.7616 9.86572 92.91 9.54241C93.0512 9.22751 93.2512 8.94242 93.4992 8.70241C93.7467 8.4658 94.0344 8.27521 94.3488 8.13961C94.6744 8.00004 95.0253 7.92896 95.3796 7.93081C95.9075 7.9253 96.4225 8.09401 96.8448 8.41081C97.2804 8.73481 97.5 9.22681 97.5 9.88801C97.5004 10.2449 97.4239 10.5978 97.2756 10.9224C97.1354 11.237 96.9367 11.5221 96.69 11.7624C96.4424 11.9986 96.1547 12.1888 95.8404 12.324C95.5139 12.4647 95.1615 12.5354 94.806 12.5316ZM99.006 14.8332C99.3 14.7468 99.6288 14.6436 99.9852 14.5308C100.381 14.4084 100.781 14.3048 101.185 14.22C101.677 14.1136 102.174 14.0335 102.674 13.98C103.295 13.914 103.918 13.8827 104.542 13.8864C106.582 13.8864 107.991 14.4796 108.767 15.666C109.543 16.8524 109.678 18.4736 109.174 20.5296L107.4 27.96H103.504L105.229 20.6904C105.335 20.2368 105.416 19.7976 105.479 19.3704C105.542 18.9978 105.537 18.6169 105.464 18.246C105.402 17.936 105.232 17.6581 104.984 17.4612C104.73 17.2608 104.344 17.1612 103.82 17.1612C103.302 17.1629 102.786 17.216 102.278 17.3196L99.7392 27.96H95.8428L99.0072 14.8356L99.006 14.8332Z" fill="#310744"/>
</svg>
