<svg width="120" height="36" viewBox="0 0 120 36" fill="none" xmlns="http://www.w3.org/2000/svg">
<path d="M9.77998 26.478C9.41158 26.3016 9.00118 26.3004 8.61358 26.1984C6.68798 25.6893 5.00031 24.5244 3.84148 22.9045C2.68266 21.2846 2.1253 19.3111 2.26549 17.3243C2.40568 15.3375 3.23463 13.4619 4.60944 12.0207C5.98426 10.5795 7.81878 9.66318 9.79678 9.42958C14.5284 8.83918 18.8916 12.3096 19.3608 17.0316C19.8216 21.6588 16.692 25.6644 12.0408 26.4C11.9748 26.4108 11.8872 26.3784 11.8572 26.478H9.77998ZM13.92 18.1668C14.622 17.7768 14.8272 17.556 14.97 17.0388C15.2616 15.9828 14.8608 15.2316 13.7484 14.7108C13.4976 14.5908 13.1016 14.6004 13.02 14.358C12.9384 14.1156 13.1112 13.8156 13.1724 13.5396C13.3464 12.7572 13.3452 12.7632 12.5604 12.6096C12.36 12.57 12.2652 12.6096 12.2328 12.8208C12.1896 13.1004 12.1248 13.3752 12.0648 13.6524C11.9448 14.1912 11.9448 14.1864 11.3976 14.0568C11.2368 14.0184 11.1708 13.9656 11.2188 13.7832C11.316 13.4148 11.3916 13.0404 11.4588 12.6672C11.4828 12.5472 11.5692 12.3792 11.3388 12.3636C11.046 12.3444 10.7712 12.1032 10.4664 12.2904C10.4304 12.312 10.4412 12.4104 10.428 12.4668C10.35 12.8268 10.2612 13.1868 10.1964 13.5468C10.1568 13.7664 10.0596 13.8216 9.84478 13.7688C9.35398 13.6488 8.85358 13.5636 8.36398 13.4376C8.14798 13.3824 8.09758 13.446 8.05078 13.6464C7.86838 14.4312 7.85998 14.43 8.61358 14.6436C8.6501 14.6496 8.68618 14.658 8.72158 14.6688C8.99158 14.7888 9.13678 14.9688 9.06958 15.276C8.76078 16.7056 8.45358 18.1352 8.14798 19.5648C8.08798 19.8432 7.94518 19.956 7.65238 19.9248C7.41238 19.896 7.13278 19.692 6.95158 19.8588C6.77038 20.0256 6.73678 20.3148 6.63718 20.5524C6.6216 20.5992 6.60276 20.6449 6.58078 20.6892C6.44758 20.9136 6.55438 20.9772 6.77038 21.0156C7.17118 21.0876 7.56838 21.1788 7.97038 21.2676C8.50318 21.3876 8.50198 21.3876 8.38318 21.9396C8.35558 22.0716 8.33038 22.2048 8.30278 22.3368C8.14438 23.0868 8.14558 23.0808 8.91718 23.2224C9.11518 23.2596 9.20878 23.2224 9.24598 23.0124C9.31718 22.626 9.39718 22.2412 9.48598 21.858C9.57958 21.4692 9.83758 21.7452 10.0212 21.7452C10.2048 21.7452 10.3356 21.7716 10.2612 22.0272C10.1544 22.3872 10.1052 22.7724 10.0092 23.1408C9.94798 23.3808 10.0344 23.4624 10.2576 23.5116C10.9776 23.6664 10.9776 23.6724 11.1372 22.9536C11.2044 22.6536 11.1816 22.2552 11.3688 22.0824C11.5752 21.8916 11.9688 22.0824 12.2772 22.104C13.7724 22.2 14.6616 21.5208 14.928 20.0736C15.0564 19.3728 14.826 18.8184 14.256 18.3936C14.1504 18.3156 14.04 18.24 13.92 18.1668Z" fill="#310744"/>
<path d="M27.1356 10.176C26.7396 11.8224 26.3472 13.452 25.9428 15.1296C26.4468 14.9796 26.8956 14.8164 27.3828 14.8056C29.448 14.7588 30.7944 15.8784 31.122 18.0132C31.6224 21.2724 29.6952 24.4476 26.514 25.3212C24.63 25.8384 22.7736 25.5696 20.9544 24.9264C20.6808 24.8292 20.7288 24.6624 20.7768 24.4644C21.452 21.6468 22.1272 18.8292 22.8024 16.0116C23.2092 14.316 23.6196 12.6216 24.0144 10.9224C24.0672 10.6968 24.1512 10.5984 24.3876 10.5624C25.2552 10.4424 26.118 10.296 26.9844 10.1628C27.0351 10.1621 27.0857 10.1665 27.1356 10.176ZM28.2696 19.2348C28.2845 18.8396 28.2284 18.445 28.104 18.0696C28.0461 17.86 27.9272 17.6724 27.7625 17.5305C27.5978 17.3887 27.3946 17.299 27.1788 17.2728C26.6254 17.1853 26.0586 17.2863 25.5696 17.5596C25.4889 17.603 25.4191 17.6641 25.3653 17.7383C25.3114 17.8125 25.2751 17.8978 25.2588 17.988C24.8804 19.588 24.4924 21.1856 24.0948 22.7808C24.0348 23.0208 24.0876 23.1084 24.3204 23.1324C25.1436 23.2188 25.9272 23.1228 26.6064 22.6104C27.7296 21.7644 28.224 20.6064 28.2696 19.2348Z" fill="#310744"/>
<path d="M107.56 25.2948C107.92 23.7996 108.265 22.332 108.618 20.8644C109.402 17.6028 110.192 14.3436 110.962 11.0784C111.044 10.728 111.181 10.572 111.546 10.5288C112.386 10.4292 113.226 10.2888 114.139 10.1472C113.742 11.7852 113.354 13.3872 112.957 15.0192C113.628 14.9304 114.252 14.8188 114.898 14.8584C116.808 14.9784 117.696 16.2984 117.757 17.9496C117.8 19.1412 117.431 20.256 117.173 21.3912C116.9 22.5912 116.592 23.7792 116.316 24.9756C116.26 25.2156 116.17 25.3116 115.903 25.3032C115.15 25.2816 114.395 25.278 113.641 25.3032C113.321 25.314 113.305 25.2048 113.369 24.9432C113.797 23.1756 114.223 21.4068 114.635 19.6356C114.745 19.1556 114.875 18.6756 114.776 18.1788C114.656 17.5488 114.33 17.268 113.686 17.2404C113.364 17.2374 113.043 17.2591 112.726 17.3052C112.478 17.3328 112.366 17.4396 112.314 17.6784C111.871 19.5684 111.418 21.456 110.966 23.3448C110.828 23.9184 110.688 24.4908 110.55 25.0644C110.521 25.1844 110.512 25.296 110.332 25.2936C109.417 25.2912 108.504 25.2948 107.56 25.2948Z" fill="#310744"/>
<path d="M94.3644 14.7852C95.8752 14.8152 97.068 14.9616 98.2116 15.4056C98.4516 15.4956 98.5188 15.5904 98.4516 15.864C98.0508 17.4588 97.6956 19.0656 97.29 20.664C96.9458 22.0178 96.9962 23.4419 97.4352 24.768C97.5204 25.0368 97.4916 25.128 97.1952 25.158C96.582 25.2228 95.97 25.3104 95.364 25.4208C95.04 25.4796 94.8084 25.4508 94.728 25.0884C94.7252 25.0762 94.7208 25.0645 94.7148 25.0536C94.5012 24.5844 94.4976 24.5796 94.08 24.8616C93.629 25.1785 93.1171 25.3982 92.5766 25.5067C92.0362 25.6151 91.4791 25.61 90.9408 25.4916C89.4768 25.1868 88.6512 24.2352 88.3212 22.812C87.7128 20.1876 88.7448 17.4024 90.8976 15.9036C92.0232 15.12 93.2796 14.742 94.3644 14.7852ZM91.0728 21.078C91.0651 21.4227 91.1055 21.7668 91.1928 22.1004C91.404 22.8396 91.8444 23.1444 92.6136 23.1084C93.1344 23.0832 93.5544 22.854 93.9336 22.5168C94.0509 22.4101 94.1223 22.2622 94.1328 22.104C94.2036 21.5688 94.2744 21.0312 94.3932 20.5056C94.6152 19.512 94.8732 18.5256 95.1132 17.5368C95.1456 17.4048 95.2236 17.2764 94.9932 17.2476C94.1328 17.1432 93.3216 17.2164 92.6148 17.79C91.5672 18.6408 91.1196 19.7652 91.0728 21.078Z" fill="#310744"/>
<path d="M62.7456 19.0128C62.6748 21.3108 61.9488 23.3064 59.9748 24.6756C58.6476 25.596 57.162 25.7844 55.6224 25.3956C54.1404 25.026 53.3304 23.9904 53.0112 22.5372C52.4616 20.0436 53.604 17.1036 55.6848 15.6636C57.0156 14.742 58.4844 14.5272 60.0324 14.9076C61.5984 15.2916 62.6184 16.6188 62.7444 18.3444C62.76 18.5688 62.7456 18.792 62.7456 19.0128ZM59.8656 19.2528C59.8682 18.9809 59.8428 18.7095 59.79 18.4428C59.6112 17.4756 58.9872 17.052 58.026 17.2548C57.6869 17.3337 57.3739 17.4991 57.1176 17.7348C56.0208 18.6948 55.4712 20.952 56.0028 22.3104C56.0773 22.5278 56.2156 22.7176 56.3998 22.8551C56.5839 22.9926 56.8052 23.0712 57.0348 23.0808C57.3244 23.1142 57.6178 23.0805 57.8923 22.9822C58.1667 22.884 58.4149 22.7239 58.6176 22.5144C59.52 21.6156 59.802 20.478 59.8608 19.2576L59.8656 19.2528Z" fill="#310744"/>
<path d="M68.0976 25.296C68.5284 23.5068 68.9508 21.7512 69.3756 19.9968C69.7128 18.6 70.0584 17.2044 70.386 15.8052C70.4009 15.7053 70.4457 15.6122 70.5144 15.5381C70.5831 15.464 70.6726 15.4124 70.7712 15.39C72.1934 14.9177 73.6924 14.7202 75.1884 14.808C75.6844 14.8276 76.1725 14.9383 76.6284 15.1344C77.808 15.6576 78.2592 16.6392 78.3312 17.8512C78.384 18.75 78.1476 19.608 77.9424 20.4684C77.5824 21.9744 77.2092 23.4768 76.8564 24.984C76.8024 25.2144 76.728 25.308 76.476 25.302C75.7092 25.284 74.9424 25.278 74.1768 25.302C73.8444 25.3128 73.8588 25.194 73.9188 24.942C74.3692 23.0548 74.8124 21.1652 75.2484 19.2732C75.321 18.9866 75.3561 18.6917 75.3528 18.396C75.33 17.6556 74.9412 17.2608 74.1984 17.2416C73.902 17.2344 73.608 17.2716 73.3128 17.2908C73.0176 17.31 72.912 17.4264 72.8508 17.6904C72.4344 19.4724 72.0108 21.252 71.5824 23.0328C71.4252 23.6904 71.2656 24.3468 71.118 25.0056C71.0712 25.2108 70.998 25.3032 70.758 25.2984C69.8772 25.2852 69 25.296 68.0976 25.296Z" fill="#310744"/>
<path d="M101.917 25.5792C100.723 25.542 99.5616 25.368 98.4792 24.8196C98.2632 24.7104 98.1912 24.63 98.3112 24.3888C98.5692 23.8728 98.8056 23.3448 99.0216 22.8096C99.1416 22.5156 99.2448 22.4244 99.5676 22.6008C100.5 23.1277 101.583 23.3247 102.641 23.16C102.812 23.1386 102.98 23.0916 103.138 23.0208C103.805 22.7028 103.877 22.0212 103.283 21.5868C102.893 21.3012 102.437 21.1344 102.004 20.9292C101.434 20.658 100.886 20.3604 100.462 19.8708C99.5016 18.7668 99.6408 16.2948 101.562 15.33C102.636 14.7912 103.784 14.7048 104.954 14.7564C105.794 14.8046 106.618 15.0021 107.388 15.3396C107.615 15.4356 107.686 15.528 107.562 15.7728C107.296 16.2984 107.051 16.8348 106.819 17.3772C106.721 17.6088 106.628 17.6556 106.385 17.5464C105.587 17.1864 104.753 16.9968 103.865 17.0904C103.643 17.1054 103.426 17.1663 103.229 17.2692C102.694 17.5692 102.658 18.2472 103.184 18.5568C103.784 18.9168 104.425 19.2144 105.04 19.554C105.774 19.9608 106.36 20.4864 106.561 21.354C106.895 22.8432 106.28 24.1968 104.922 24.9228C103.984 25.4292 102.96 25.56 101.917 25.5792Z" fill="#310744"/>
<path d="M44.88 15.0288C44.6952 15.7848 44.514 16.5084 44.3412 17.2344C44.2968 17.4228 44.1624 17.4048 44.0268 17.4048C43.1616 17.4048 42.2952 17.418 41.4312 17.3964C41.1336 17.3892 41.0328 17.49 40.9716 17.7672C40.692 19.0272 40.3656 20.2764 40.1004 21.5376C39.8868 22.5552 40.3188 23.0556 41.3616 23.0892C41.9185 23.1022 42.4732 23.0156 42.9996 22.8336C43.1928 22.7688 43.266 22.7952 43.2828 23.004C43.3332 23.604 43.3944 24.204 43.458 24.804C43.465 24.8335 43.4659 24.8641 43.4605 24.8939C43.4552 24.9237 43.4438 24.9521 43.427 24.9773C43.4103 25.0025 43.3885 25.024 43.3631 25.0404C43.3376 25.0569 43.3091 25.0679 43.2792 25.0728C41.8824 25.5468 40.452 25.7256 39.0168 25.3404C37.602 24.9612 37.0728 23.8884 37.1292 22.4604C37.1928 20.826 37.7292 19.278 38.0808 17.6976C38.4408 16.0668 38.8524 14.4456 39.234 12.8196C39.288 12.5796 39.354 12.45 39.6456 12.4152C40.4652 12.318 41.2812 12.1752 42.096 12.0372C42.3252 11.9976 42.378 12.0372 42.3168 12.27C42.1092 13.0668 41.9328 13.8708 41.7168 14.67C41.64 14.9544 41.6628 15.0528 41.994 15.0456C42.942 15.0144 43.8936 15.0288 44.88 15.0288Z" fill="#310744"/>
<path d="M79.65 21.1128C79.7352 18.648 80.6352 16.62 82.9104 15.4308C84.6828 14.5044 86.5392 14.5296 88.398 15.2292C88.6308 15.3168 88.6632 15.4128 88.56 15.6312C88.2864 16.2088 88.0272 16.7928 87.7824 17.3832C87.6972 17.5908 87.6108 17.6316 87.4032 17.5428C86.6738 17.2219 85.862 17.138 85.0824 17.3028C83.7972 17.574 83.106 18.4416 82.8144 19.6584C82.6167 20.3868 82.6196 21.1551 82.8228 21.882C83.0628 22.6656 83.5428 23.0268 84.3672 23.082C85.0717 23.1295 85.7783 23.0276 86.4408 22.7832C86.6484 22.7076 86.7492 22.7052 86.766 22.968C86.8068 23.568 86.8704 24.168 86.9244 24.768C86.9376 24.9036 86.958 25.0236 86.7744 25.0908C85.2048 25.6584 83.61 25.8276 82.0356 25.1952C80.3556 24.5196 79.7088 23.1336 79.65 21.4116C79.6476 21.3096 79.65 21.2112 79.65 21.1128Z" fill="#310744"/>
<path d="M51.5496 22.6896C51.6216 23.424 51.6888 24.1296 51.7608 24.8376C51.7667 24.8641 51.7672 24.8916 51.7623 24.9183C51.7574 24.945 51.7471 24.9704 51.7321 24.9931C51.717 25.0157 51.6976 25.0351 51.6749 25.05C51.6522 25.065 51.6267 25.0752 51.6 25.08C50.0592 25.6452 48.4956 25.8 46.9332 25.218C45.4572 24.6672 44.6916 23.52 44.52 21.9996C44.304 20.0796 44.712 18.2964 45.9936 16.7964C47.3532 15.2064 49.1436 14.6364 51.1968 14.7564C51.8981 14.8063 52.5868 14.9684 53.2368 15.2364C53.448 15.3216 53.4768 15.4056 53.3856 15.6096C53.1192 16.176 52.8624 16.7484 52.6272 17.3292C52.5288 17.5692 52.4316 17.6448 52.1736 17.5296C51.6389 17.2994 51.0579 17.1971 50.4768 17.2308C49.3284 17.2764 48.462 17.778 47.9424 18.8016C47.4814 19.7109 47.3618 20.7553 47.6052 21.7452C47.8044 22.6272 48.3252 23.0244 49.2288 23.082C50.0268 23.1312 50.778 22.968 51.5496 22.6896Z" fill="#310744"/>
<path d="M63.0444 25.296C63.5316 23.2488 64.0044 21.2424 64.4844 19.236C64.7952 17.934 65.1144 16.6332 65.4108 15.3276C65.466 15.0876 65.5632 15.018 65.8032 15.0228C66.5808 15.0372 67.3632 15.0396 68.1384 15.0228C68.4012 15.0228 68.418 15.1104 68.3664 15.3228C67.5808 18.57 66.798 21.818 66.018 25.0668C65.9808 25.2228 65.9388 25.3068 65.7612 25.2996C64.8756 25.2912 63.9864 25.296 63.0444 25.296Z" fill="#310744"/>
<path d="M36.852 15.0288C36.4224 16.8204 36.0024 18.576 35.5812 20.3316C35.2116 21.8724 34.8372 23.412 34.4748 24.9552C34.4172 25.206 34.326 25.3152 34.0404 25.3044C33.3 25.2792 32.5572 25.2804 31.8156 25.3044C31.5156 25.3128 31.47 25.2324 31.5372 24.9564C32.1636 22.3652 32.7844 19.7724 33.3996 17.178C33.5532 16.5336 33.7116 15.8892 33.8664 15.2436C33.8916 15.1392 33.8868 15.0264 34.0536 15.0276C34.9776 15.0312 35.9016 15.0288 36.852 15.0288Z" fill="#310744"/>
<path d="M35.7924 13.7844C34.5744 13.7844 33.8928 12.8352 34.2948 11.688C34.4473 11.2685 34.7331 10.9106 35.1086 10.6691C35.484 10.4276 35.9282 10.316 36.3732 10.3512C37.5732 10.4712 38.1324 11.4228 37.6728 12.5304C37.5189 12.9023 37.258 13.22 36.9232 13.4433C36.5884 13.6665 36.1948 13.7853 35.7924 13.7844Z" fill="#310744"/>
<path d="M65.7768 12.324C65.7812 12.0221 65.8535 11.725 65.9883 11.4548C66.123 11.1845 66.3168 10.9481 66.5554 10.7629C66.7939 10.5777 67.071 10.4486 67.3663 10.385C67.6615 10.3214 67.9672 10.325 68.2608 10.3956C68.9928 10.5768 69.396 11.0868 69.3912 11.8272C69.3816 13.14 68.0292 14.1072 66.7752 13.6968C66.0948 13.4748 65.7768 13.0368 65.7768 12.324Z" fill="#310744"/>
<path d="M11.4816 20.6484C11.0008 20.6347 10.523 20.5671 10.0572 20.4468C9.89522 20.412 9.81722 20.364 9.86162 20.1816C9.99602 19.5948 10.116 19.0056 10.2456 18.4176C10.2684 18.3096 10.29 18.2136 10.4604 18.2472C11.0784 18.3672 11.6976 18.4776 12.252 18.7992C12.732 19.0788 12.942 19.4556 12.852 19.8792C12.7464 20.3592 12.402 20.6148 11.8176 20.6532C11.7036 20.6544 11.5932 20.6484 11.4816 20.6484Z" fill="#310744"/>
<path d="M11.8224 17.3904C11.4132 17.3904 10.9128 17.4132 10.65 17.178C10.3692 16.9272 10.7316 16.4736 10.7472 16.098C10.7554 16.0372 10.7695 15.9773 10.7892 15.9192C10.9572 15.1704 10.9572 15.1728 11.7276 15.372C12.0282 15.4398 12.3167 15.5531 12.5832 15.708C12.9876 15.9588 13.1436 16.308 13.0404 16.7352C12.9516 17.0952 12.6372 17.3412 12.192 17.3856C12.0689 17.3938 11.9456 17.3954 11.8224 17.3904Z" fill="#310744"/>
</svg>
