<svg width="120" height="36" viewBox="0 0 120 36" fill="none" xmlns="http://www.w3.org/2000/svg">
<path d="M108.52 18.042C108.223 18.9048 108.073 19.8048 107.85 20.682C107.618 21.5964 107.394 22.5132 107.191 23.4348C107.135 23.6928 107.028 23.7744 106.771 23.7684C106.117 23.754 105.461 23.7552 104.806 23.7684C104.54 23.7684 104.472 23.7096 104.539 23.4336C104.94 21.7884 105.324 20.1384 105.706 18.4896C105.797 18.1539 105.841 17.8068 105.834 17.4588C105.8 16.8276 105.463 16.4868 104.838 16.452C103.722 16.3896 103.664 16.4364 103.408 17.5152C102.938 19.4868 102.458 21.4548 101.998 23.4288C101.94 23.6772 101.85 23.7768 101.586 23.7708C100.931 23.754 100.276 23.7576 99.6204 23.7708C99.366 23.7708 99.2712 23.724 99.3408 23.4408C100.018 20.6808 100.681 17.91 101.352 15.1452C101.383 15.0168 101.398 14.8812 101.569 14.8248C103.085 14.3256 104.629 14.0712 106.218 14.3316C107.418 14.5296 108.202 15.2208 108.444 16.4496C108.451 16.4832 108.493 16.5084 108.52 16.5372V18.042Z" fill="#310744"/>
<path d="M63.5316 22.7928C62.8964 23.0931 62.1886 23.2056 61.4916 23.1168C59.91 22.9188 58.9452 21.8304 58.8516 20.1648C58.6812 16.9872 60.618 14.6868 63.7956 14.2716C65.1426 14.0956 66.5122 14.2696 67.7724 14.7768C67.9932 14.8632 68.112 14.9544 68.0448 15.2316C67.4052 17.8488 66.78 20.4696 66.1464 23.088C66.0794 23.3432 65.9993 23.5947 65.9064 23.8416C65.2272 25.746 63.8796 26.8308 61.8624 27.0336C60.5328 27.1668 59.2224 27.0876 57.9588 26.5536C57.6372 26.418 57.576 26.298 57.738 25.9836C57.9498 25.5613 58.1338 25.1256 58.2888 24.6792C58.3992 24.3744 58.5084 24.2856 58.8492 24.4392C59.7934 24.8752 60.8508 25.0037 61.872 24.8064C62.3375 24.7118 62.7564 24.4602 63.0585 24.0936C63.3606 23.727 63.5276 23.2678 63.5316 22.7928ZM61.4628 19.5696C61.488 20.0112 61.488 20.5884 62.0628 20.8776C62.6916 21.1908 63.3108 21.0312 63.9012 20.7228C63.9752 20.6837 64.0397 20.6286 64.0899 20.5616C64.1401 20.4946 64.1748 20.4173 64.1916 20.3352C64.4736 19.1592 64.7532 17.9832 65.0436 16.8108C65.1132 16.53 65.0172 16.458 64.7436 16.434C62.85 16.2636 61.476 17.52 61.4628 19.5696Z" fill="#310744"/>
<path d="M39.1932 20.184C39.1872 17.3184 41.0616 14.9664 43.7964 14.4132C44.4097 14.267 45.0471 14.2535 45.666 14.3736C46.014 14.4528 46.1148 14.3208 46.1844 14.0136C46.4244 12.942 46.7016 11.88 46.938 10.8096C46.9956 10.5492 47.0988 10.4316 47.358 10.3956C48.078 10.2972 48.794 10.1872 49.506 10.0656C49.8336 10.0104 49.734 10.2024 49.6968 10.3572C49.3656 11.7436 49.0312 13.1312 48.6936 14.52C48.27 16.2756 47.8416 18.03 47.4264 19.788C47.1682 20.9204 47.2226 22.1017 47.5836 23.2056C47.6832 23.526 47.6244 23.616 47.2944 23.6436C46.7947 23.6882 46.2979 23.7611 45.8064 23.862C45.4644 23.9316 45.2316 23.862 45.1488 23.5092C45.0492 23.0736 44.8692 23.1492 44.5656 23.3544C43.2216 24.252 41.4912 24.2304 40.3848 23.3112C39.5124 22.5912 39.2832 21.576 39.1944 20.514C39.1848 20.4072 39.1932 20.2944 39.1932 20.184ZM44.8632 16.476C42.2568 16.41 41.2812 19.716 42.0888 21.2568C42.3468 21.7488 42.8196 21.8268 43.3116 21.786C43.5691 21.7692 43.8196 21.6948 44.0445 21.5683C44.2694 21.4418 44.4631 21.2665 44.6112 21.0552C44.6328 21.0264 44.6232 20.9748 44.628 20.9352C44.7684 19.6056 45.1392 18.324 45.4476 17.0292C45.5676 16.524 45.5556 16.5084 45.0312 16.4796C44.9748 16.4736 44.9196 16.4772 44.8632 16.476Z" fill="#310744"/>
<path d="M89.0784 24C86.7096 24 85.3656 22.746 85.2744 20.4372C85.1964 18.4548 85.8408 16.71 87.3744 15.372C88.5948 14.3064 90.0264 13.9884 91.5924 14.3208C93.0324 14.6256 93.9312 15.6288 94.1268 17.2728C94.3908 19.4904 93.7668 21.4344 92.0256 22.9296C91.2145 23.6472 90.161 24.0298 89.0784 24ZM87.894 19.7904C87.9072 20.2164 87.9072 20.5344 87.9936 20.8476C88.1904 21.5532 88.6716 21.876 89.3988 21.7752C90.0576 21.6828 90.516 21.2952 90.858 20.7624C91.4522 19.8439 91.6892 18.7394 91.524 17.658C91.404 16.7052 90.8364 16.2888 89.8968 16.4712C89.5674 16.5414 89.2665 16.7086 89.0328 16.9512C88.2 17.76 87.9348 18.78 87.894 19.7868V19.7904Z" fill="#310744"/>
<path d="M52.7664 24C50.6064 24 49.2936 22.908 49.1136 20.706C48.918 18.306 49.7472 16.266 51.846 14.898C53.04 14.118 54.36 14.0076 55.704 14.4C56.8068 14.7252 57.4776 15.5076 57.8076 16.5924C58.4844 18.8232 57.486 21.7596 55.5888 23.1156C54.7272 23.736 53.9004 23.9928 52.7664 24ZM55.3776 18.318C55.3668 18.1296 55.3632 17.9352 55.3452 17.742C55.2348 16.5768 54.2652 16.0704 53.2392 16.6464C53.0083 16.7762 52.8045 16.9494 52.6392 17.1564C51.7884 18.2256 51.5472 19.4484 51.7908 20.7564C51.9444 21.5892 52.494 21.9 53.3292 21.7428C53.6872 21.6767 54.0157 21.5005 54.2688 21.2388C55.0704 20.4312 55.3404 19.4196 55.3776 18.3132V18.318Z" fill="#310744"/>
<path d="M72.3792 23.9916C71.6496 24.0096 70.9848 23.9544 70.3548 23.6928C69.0624 23.1552 68.454 22.1328 68.286 20.7936C67.9536 18.1404 69.5472 15.042 72.6264 14.3304C73.3317 14.1465 74.0719 14.1423 74.7792 14.3184C75.7488 14.5836 76.4592 15.1584 76.6788 16.1688C76.9272 17.34 76.6416 18.3816 75.7116 19.1868C74.9244 19.8672 73.9608 20.1384 72.9576 20.2956C72.3662 20.3943 71.7679 20.4453 71.1684 20.448C70.9032 20.448 70.8672 20.5488 70.9284 20.7732C71.0832 21.384 71.5716 21.7476 72.3408 21.7968C73.122 21.8537 73.9068 21.7608 74.6532 21.5232C74.9304 21.432 74.9964 21.5124 75.0132 21.7632C75.0444 22.2492 75.072 22.7352 75.1332 23.2164C75.168 23.4564 75.0708 23.5332 74.8716 23.5944C74.0676 23.86 73.2259 23.9941 72.3792 23.9916ZM71.5788 18.6168C71.7636 18.5952 72.1008 18.5748 72.4272 18.5112C72.96 18.4068 73.4976 18.2952 73.9464 17.9592C74.1199 17.8289 74.248 17.6473 74.3126 17.4401C74.3772 17.2329 74.3751 17.0107 74.3064 16.8048C74.1492 16.3788 73.7928 16.2924 73.3944 16.29C72.3612 16.29 71.4588 16.998 71.064 18.1308C70.8876 18.6432 70.8876 18.6432 71.5788 18.6168Z" fill="#310744"/>
<path d="M81.3492 24.0108C80.7763 24.0229 80.2055 23.9381 79.6608 23.76C78.2988 23.268 77.5008 22.2936 77.3388 20.8704C77.0736 18.5904 77.6748 16.5948 79.6032 15.2064C81.306 13.98 83.1972 13.9296 85.1412 14.6184C85.4052 14.7108 85.398 14.8344 85.2972 15.048C85.068 15.5388 84.8472 16.0344 84.642 16.5348C84.5556 16.746 84.4584 16.8012 84.24 16.704C83.6216 16.4343 82.9365 16.3562 82.2732 16.4796C81.06 16.68 80.2164 17.64 80.0544 18.9732C79.9944 19.3704 79.9843 19.7735 80.0244 20.1732C80.1684 21.2856 80.6976 21.7788 81.8244 21.7752C82.3567 21.7815 82.8855 21.6895 83.3844 21.504C83.6112 21.4176 83.6892 21.486 83.7072 21.702C83.7492 22.2276 83.784 22.7556 83.8428 23.28C83.868 23.5104 83.7348 23.5716 83.5668 23.6184C83.178 23.7264 82.7928 23.8584 82.3968 23.9256C82.0495 23.9736 81.6997 24.0021 81.3492 24.0108Z" fill="#310744"/>
<path d="M95.766 23.7684C95.4324 23.7684 95.0976 23.7576 94.7628 23.7684C94.5024 23.7792 94.4292 23.7216 94.4988 23.4384C94.9512 21.5928 95.382 19.7412 95.8188 17.892C96.0588 16.866 96.3132 15.8424 96.546 14.814C96.606 14.5476 96.696 14.4216 97.0068 14.4372C97.6336 14.4696 98.2616 14.4696 98.8884 14.4372C99.258 14.418 99.2616 14.5632 99.1932 14.8452C98.5732 17.4052 97.9568 19.968 97.344 22.5336C97.2732 22.83 97.1772 23.124 97.1364 23.424C97.0956 23.724 96.948 23.784 96.684 23.7684C96.3804 23.76 96.0732 23.7684 95.766 23.7684Z" fill="#310744"/>
<path d="M98.31 13.3032C97.4316 13.296 96.87 12.7668 96.888 11.958C96.9072 11.0136 97.7508 10.2 98.7144 10.1988C99.5724 10.1988 100.154 10.7388 100.154 11.5368C100.15 11.7741 100.099 12.0082 100.004 12.2257C99.9084 12.4431 99.7711 12.6396 99.5997 12.8037C99.4283 12.9679 99.2261 13.0966 99.0047 13.1823C98.7834 13.268 98.5473 13.3091 98.31 13.3032Z" fill="#310744"/>
<path d="M22.2132 7.26837C20.0907 7.26837 18.0158 7.89777 16.251 9.07697C14.4862 10.2562 13.1107 11.9322 12.2985 13.8932C11.4862 15.8541 11.2737 18.0119 11.6878 20.0936C12.1019 22.1753 13.1239 24.0875 14.6248 25.5884C16.1256 27.0892 18.0378 28.1113 20.1195 28.5254C22.2013 28.9394 24.359 28.7269 26.32 27.9147C28.2809 27.1024 29.957 25.7269 31.1362 23.9621C32.3154 22.1973 32.9448 20.1225 32.9448 18C32.9448 15.1538 31.8141 12.4241 29.8016 10.4116C27.789 8.39902 25.0594 7.26837 22.2132 7.26837ZM22.5492 24.42H18.2496V18.7056H16.734V17.304H18.2496V11.5908H21.9468C22.8216 11.5908 28.5984 11.3916 28.5984 18.1044C28.5984 24.9276 22.5492 24.42 22.5492 24.42Z" fill="#310744"/>
<path d="M22.3572 13.9428H20.6772V17.3028H23.3652V18.7008H20.6772V22.0608H22.458V22.044C22.9152 22.044 26.202 22.0884 26.196 18.1416C26.19 14.1948 22.992 13.9428 22.3572 13.9428Z" fill="#310744"/>
</svg>
