<svg width="120" height="36" viewBox="0 0 120 36" fill="none" xmlns="http://www.w3.org/2000/svg">
<path d="M41.1204 15.342H39.852V13.2132C39.8529 13.0624 39.8213 12.9133 39.7591 12.7759C39.697 12.6386 39.6058 12.5163 39.492 12.4176C39.3737 12.317 39.2349 12.2434 39.0852 12.202C38.9356 12.1605 38.7787 12.1522 38.6256 12.1776C38.3817 12.2203 38.1611 12.3485 38.0032 12.5392C37.8453 12.7298 37.7605 12.9705 37.764 13.218V15.3372H36.5724C36.2961 15.3409 36.0322 15.4524 35.837 15.6479C35.6418 15.8433 35.5306 16.1073 35.5272 16.3836C35.5257 16.5212 35.5518 16.6578 35.6038 16.7853C35.6558 16.9127 35.7327 17.0285 35.8301 17.1259C35.9274 17.2232 36.0432 17.3001 36.1707 17.3522C36.2981 17.4042 36.4347 17.4302 36.5724 17.4288H37.764V24.3996C37.7643 24.6768 37.8745 24.9426 38.0704 25.1387C38.2663 25.3348 38.5319 25.4453 38.8092 25.446C39.0854 25.4422 39.3493 25.3308 39.5445 25.1353C39.7398 24.9398 39.8509 24.6758 39.8544 24.3996V17.4336H41.1228C41.2605 17.4352 41.3972 17.4092 41.5248 17.3573C41.6524 17.3054 41.7684 17.2285 41.8658 17.1311C41.9633 17.0337 42.0403 16.9179 42.0924 16.7903C42.1445 16.6628 42.1706 16.5261 42.1692 16.3884C42.169 16.2508 42.1417 16.1146 42.089 15.9876C42.0362 15.8605 41.9589 15.7451 41.8615 15.648C41.7641 15.5508 41.6485 15.4738 41.5213 15.4213C41.3942 15.3688 41.2579 15.3418 41.1204 15.342Z" fill="#310744"/>
<path d="M28.0799 15.1656H28.0715C25.3835 15.1656 23.1971 17.5044 23.1971 20.3796C23.1971 23.2548 25.3835 25.5936 28.0715 25.5936C29.8715 25.5936 31.4879 24.7332 32.2823 23.3484L32.3003 23.3136C32.4102 23.1083 32.449 22.8724 32.4107 22.6428C32.3824 22.4725 32.3117 22.3121 32.2052 22.1762C32.0987 22.0403 31.9597 21.9334 31.8011 21.8652C31.5751 21.7674 31.3218 21.7523 31.0857 21.8225C30.8497 21.8927 30.6458 22.0438 30.5099 22.2492C29.9099 23.1096 29.1563 23.4924 28.0763 23.4924C26.7635 23.4924 25.8467 22.5216 25.4795 21.42H31.9199C32.2002 21.4203 32.4692 21.3094 32.6678 21.1117C32.8665 20.9139 32.9786 20.6455 32.9795 20.3652C32.9675 17.4948 30.7727 15.1656 28.0799 15.1656ZM25.4795 19.3296C25.8455 18.228 26.7599 17.256 28.0799 17.256C29.3687 17.256 30.3167 18.216 30.6827 19.3296H25.4795Z" fill="#310744"/>
<path d="M49.6584 15.1896C48.8091 15.1896 47.9817 15.4593 47.2956 15.96V9.12601C47.2953 8.8489 47.1851 8.58324 46.9891 8.38729C46.7932 8.19135 46.5275 8.08113 46.2504 8.08081C45.9742 8.08423 45.7102 8.19541 45.5147 8.39065C45.3192 8.58589 45.2077 8.84976 45.204 9.12601V24.36C45.2029 24.5109 45.2345 24.6603 45.2967 24.7979C45.3588 24.9354 45.45 25.0579 45.564 25.1568C45.6824 25.2572 45.8212 25.3306 45.9708 25.3721C46.1204 25.4135 46.2772 25.4219 46.4304 25.3968C46.6744 25.354 46.8952 25.2257 47.0531 25.0348C47.211 24.8439 47.2957 24.6029 47.292 24.3552V20.8752C47.292 20.8608 47.292 20.7912 47.2812 20.7096C47.2812 20.6532 47.2692 20.5896 47.268 20.5644V20.5212C47.1996 19.4664 47.4732 18.5268 48.0192 17.946C48.4272 17.5104 48.9792 17.2884 49.6608 17.2884C50.9988 17.2884 51.6084 18.5556 51.6084 19.7328V24.36C51.6068 24.4978 51.6327 24.6345 51.6847 24.7621C51.7366 24.8897 51.8135 25.0056 51.9109 25.1031C52.0082 25.2006 52.1241 25.2776 52.2516 25.3297C52.3792 25.3818 52.5158 25.4079 52.6536 25.4064C52.9308 25.4058 53.1965 25.2953 53.3924 25.0992C53.5883 24.903 53.6985 24.6372 53.6988 24.36V19.7244C53.7012 17.526 52.2852 15.1896 49.6584 15.1896Z" fill="#310744"/>
<path d="M98.64 15.4392L98.6172 15.432C98.4623 15.3854 98.2986 15.3758 98.1393 15.4042C97.98 15.4325 97.8297 15.498 97.7004 15.5952C97.5689 15.6925 97.4619 15.8191 97.3877 15.9649C97.3136 16.1106 97.2744 16.2717 97.2732 16.4352V19.404C97.2732 21.33 97.0068 23.5404 94.9344 23.5404C93.5964 23.5404 92.9868 22.2744 92.9868 21.0972V16.44C92.9864 16.1629 92.8762 15.8973 92.6803 15.7013C92.4843 15.5054 92.2187 15.3951 91.9416 15.3948C91.6655 15.3986 91.4018 15.5099 91.2066 15.7051C91.0114 15.9003 90.9001 16.164 90.8964 16.44V21.102C90.8964 22.272 91.2564 23.37 91.914 24.1956C92.2311 24.5915 92.6236 24.9206 93.0686 25.1639C93.5137 25.4072 94.0026 25.56 94.507 25.6133C95.0114 25.6667 95.5214 25.6195 96.0075 25.4746C96.4936 25.3298 96.9462 25.09 97.3392 24.7692C97.4113 24.9718 97.5449 25.1468 97.7213 25.2699C97.8977 25.3929 98.1081 25.4579 98.3232 25.4556C98.6005 25.4553 98.8663 25.3449 99.0623 25.1487C99.2583 24.9525 99.3684 24.6865 99.3684 24.4092V16.4544C99.3687 16.2302 99.2986 16.0115 99.1679 15.8294C99.0372 15.6472 98.8525 15.5107 98.64 15.4392Z" fill="#310744"/>
<path d="M61.848 15.1656H61.8396C59.1516 15.1656 56.964 17.5044 56.964 20.3796C56.964 23.2548 59.1516 25.5936 61.8396 25.5936C63.6396 25.5936 65.256 24.7332 66.0504 23.3484L66.0684 23.3136C66.1782 23.1083 66.217 22.8724 66.1788 22.6428C66.1504 22.4725 66.0797 22.3121 65.9732 22.1762C65.8667 22.0403 65.7278 21.9334 65.5692 21.8652C65.3431 21.7674 65.0899 21.7523 64.8538 21.8225C64.6177 21.8927 64.4139 22.0438 64.278 22.2492C63.678 23.1096 62.9244 23.4924 61.8444 23.4924C60.5316 23.4924 59.6148 22.5216 59.2476 21.42H65.6868C65.9672 21.4203 66.2363 21.3095 66.4351 21.1118C66.634 20.9141 66.7463 20.6456 66.7476 20.3652C66.7416 17.4948 64.5444 15.1656 61.848 15.1656ZM59.2476 19.3296C59.6148 18.2268 60.5316 17.256 61.8444 17.256C63.1332 17.256 64.0812 18.216 64.4472 19.3296H59.2476Z" fill="#310744"/>
<path d="M113.736 15.1896C113.109 15.1911 112.492 15.3373 111.931 15.6166C111.37 15.8959 110.881 16.3009 110.502 16.8C110.146 16.2988 109.674 15.8911 109.127 15.6117C108.579 15.3324 107.973 15.1896 107.358 15.1956C106.479 15.1944 105.624 15.4796 104.922 16.008C104.86 15.8512 104.761 15.712 104.633 15.6024C104.514 15.5018 104.376 15.4282 104.226 15.3868C104.076 15.3453 103.92 15.337 103.766 15.3624C103.523 15.4051 103.302 15.5333 103.144 15.724C102.986 15.9146 102.901 16.1553 102.905 16.4028V24.36C102.904 24.5109 102.935 24.6603 102.997 24.7979C103.059 24.9354 103.151 25.0579 103.265 25.1568C103.457 25.3192 103.701 25.4078 103.952 25.4064C104.011 25.4063 104.07 25.4015 104.128 25.392C104.373 25.351 104.596 25.2234 104.755 25.0323C104.915 24.8412 105.001 24.5993 104.998 24.3504V20.928C105.01 20.8352 105.01 20.7411 104.998 20.6484V20.64C104.954 19.3956 105.217 18.4404 105.758 17.88C106.146 17.4792 106.67 17.28 107.36 17.28C108.898 17.28 109.308 18.7992 109.308 19.6956V24.36C109.306 24.4977 109.332 24.6344 109.384 24.762C109.436 24.8896 109.513 25.0056 109.61 25.103C109.708 25.2005 109.824 25.2776 109.951 25.3296C110.079 25.3817 110.215 25.4078 110.353 25.4064C110.63 25.4061 110.896 25.2957 111.092 25.0995C111.288 24.9033 111.398 24.6373 111.398 24.36V20.76C111.398 19.56 111.888 17.28 113.738 17.28C115.274 17.28 115.685 18.7992 115.685 19.6956V24.36C115.683 24.4977 115.709 24.6344 115.761 24.762C115.813 24.8896 115.89 25.0056 115.987 25.103C116.085 25.2005 116.2 25.2776 116.328 25.3296C116.456 25.3817 116.592 25.4078 116.73 25.4064C117.007 25.4061 117.273 25.2957 117.47 25.0995C117.666 24.9034 117.776 24.6374 117.776 24.36V19.6956C117.779 17.5116 116.362 15.1896 113.736 15.1896Z" fill="#310744"/>
<path d="M82.734 15.1656H82.7244C80.0364 15.1656 77.85 17.5044 77.85 20.3796C77.85 23.2548 80.0364 25.5936 82.7244 25.5936C84.5244 25.5936 86.142 24.7332 86.9352 23.3484L86.9544 23.3136C87.0642 23.1083 87.103 22.8724 87.0648 22.6428C87.0364 22.4725 86.9657 22.3121 86.8592 22.1762C86.7527 22.0403 86.6138 21.9334 86.4552 21.8652C86.2291 21.7674 85.9759 21.7523 85.7398 21.8225C85.5037 21.8927 85.2999 22.0438 85.164 22.2492C84.564 23.1096 83.8104 23.4924 82.7292 23.4924C81.4176 23.4924 80.5008 22.5216 80.1336 21.42H86.568C86.8484 21.4203 87.1175 21.3095 87.3163 21.1118C87.5151 20.9141 87.6275 20.6456 87.6288 20.3652C87.6228 17.4948 85.4268 15.1656 82.734 15.1656ZM80.1336 19.3296C80.5008 18.2268 81.4176 17.256 82.7292 17.256C84.0192 17.256 84.9672 18.216 85.3332 19.3296H80.1336Z" fill="#310744"/>
<path d="M74.5956 15.3468C73.7196 15.3468 72.9 15.714 72.2292 16.2384C72.193 15.9907 72.0691 15.7642 71.88 15.6C71.7617 15.4995 71.6229 15.4261 71.4733 15.3846C71.3237 15.3432 71.1668 15.3348 71.0136 15.36C70.7697 15.4027 70.5489 15.5308 70.3909 15.7215C70.2328 15.9121 70.1477 16.1528 70.1508 16.4004V24.3312C70.1497 24.4693 70.1762 24.6063 70.2287 24.7341C70.2811 24.8618 70.3586 24.9779 70.4565 25.0753C70.5544 25.1728 70.6708 25.2497 70.7988 25.3016C70.9268 25.3535 71.0639 25.3793 71.202 25.3776C71.2619 25.3775 71.3217 25.3727 71.3808 25.3632C71.6249 25.3204 71.8456 25.192 72.0036 25.0011C72.1615 24.8102 72.2462 24.5693 72.2424 24.3216V20.8416C72.2424 19.926 72.4824 17.76 74.7504 17.4312C75.0112 17.4026 75.2516 17.2768 75.4238 17.0789C75.5959 16.8809 75.6871 16.6254 75.6792 16.3632C75.6792 16.2309 75.6524 16.0999 75.6004 15.9783C75.5485 15.8566 75.4724 15.7467 75.3768 15.6552C75.167 15.4538 74.8864 15.343 74.5956 15.3468Z" fill="#310744"/>
<path d="M10.4412 25.0824L2.22119 20.316L10.4412 31.6968L18.66 20.316L10.4412 25.0884V25.0824Z" fill="#310744"/>
<path d="M18.66 18.7872L10.4412 5.39398L2.22119 18.7872L10.4412 23.5596L18.66 18.7872Z" fill="#310744"/>
</svg>
