<svg width="120" height="36" viewBox="0 0 120 36" fill="none" xmlns="http://www.w3.org/2000/svg">
<path d="M22.2637 7.23602C24.3926 7.23579 26.4739 7.86688 28.2441 9.0495C30.0144 10.2321 31.3943 11.9131 32.2092 13.88C33.024 15.8468 33.2374 18.0111 32.8222 20.0992C32.407 22.1873 31.3819 24.1054 29.8766 25.6109C28.3713 27.1164 26.4533 28.1417 24.3652 28.5571C22.2772 28.9725 20.1129 28.7594 18.1459 27.9448C16.179 27.1301 14.4978 25.7505 13.315 23.9803C12.1322 22.2101 11.5009 20.129 11.5009 18C11.5009 15.1454 12.6348 12.4078 14.6531 10.3892C16.6715 8.37054 19.4091 7.23634 22.2637 7.23602ZM20.5573 11.3796L18.8833 17.706L17.7301 18.1524L17.1757 20.2284L18.3289 19.7928L17.3689 23.412H27.6649L28.3717 20.7264H22.1761L22.8829 18.0948L24.0133 17.67L24.5677 15.594L23.4361 16.0296L24.6649 11.376H20.5573V11.3796Z" fill="#310744"/>
<path d="M37.6956 24.5724L40.512 11.1252H43.272L40.9332 22.32H47.7732L47.3052 24.5676L37.6956 24.5724Z" fill="#310744"/>
<path d="M51.12 14.8308H53.748L51.708 24.5724H49.08L51.12 14.8308ZM51.8904 11.1252H54.5232L54.0276 13.5096H51.39L51.8904 11.1252Z" fill="#310744"/>
<path d="M54.96 16.7844L55.3632 14.8308H56.6472L56.9688 13.2708L59.9868 11.4552L59.28 14.8308H60.8856L60.48 16.7844H58.866L58.0128 20.8644C57.8608 21.6052 57.7844 22.0272 57.7836 22.1304C57.779 22.2186 57.7939 22.3067 57.8273 22.3884C57.8607 22.4701 57.9118 22.5435 57.9768 22.6032C58.1052 22.716 58.3368 22.7724 58.674 22.7724C58.794 22.7724 59.0808 22.752 59.5452 22.7088L59.1324 24.6624C58.6733 24.7546 58.2062 24.8009 57.738 24.8004C56.8084 24.8004 56.1328 24.6212 55.7112 24.2628C55.2896 23.9044 55.0792 23.408 55.08 22.7736C55.08 22.4744 55.1932 21.7836 55.4196 20.7012L56.2356 16.7844H54.96Z" fill="#310744"/>
<path d="M70.0379 20.52H63.4379C63.4379 20.6244 63.4283 20.7036 63.4283 20.76C63.4283 21.408 63.6135 21.9308 63.9839 22.3284C64.1531 22.5196 64.3614 22.6722 64.5948 22.7757C64.8281 22.8793 65.0811 22.9313 65.3363 22.9284C66.2107 22.9284 66.8907 22.4756 67.3763 21.57L69.7355 21.96C69.2771 22.908 68.6643 23.6188 67.8971 24.0924C67.1209 24.569 66.2255 24.8157 65.3147 24.804C64.0051 24.804 62.9411 24.3896 62.1227 23.5608C61.3043 22.732 60.8947 21.636 60.8939 20.2728C60.8754 18.9986 61.2638 17.7518 62.0027 16.7136C63.0123 15.3072 64.4523 14.604 66.3227 14.604C67.5139 14.604 68.4615 14.9724 69.1655 15.7092C69.8695 16.446 70.2211 17.478 70.2203 18.8052C70.2272 19.382 70.166 19.9576 70.0379 20.52ZM67.8191 18.912C67.8251 18.792 67.8275 18.708 67.8275 18.6468C67.8275 17.9268 67.6655 17.3856 67.3415 17.0232C67.1774 16.8431 66.9757 16.7013 66.7507 16.6078C66.5257 16.5143 66.283 16.4713 66.0395 16.482C65.7671 16.483 65.4975 16.5377 65.2463 16.6432C64.995 16.7486 64.7671 16.9026 64.5755 17.0964C64.1443 17.5052 63.8527 18.1104 63.7007 18.912H67.8191Z" fill="#310744"/>
<path d="M77.6063 20.9028L80.1599 21.3156C79.7391 22.4532 79.1155 23.3184 78.2891 23.9112C77.452 24.5078 76.4454 24.82 75.4175 24.8016C74.1767 24.8016 73.1923 24.4316 72.4643 23.6916C71.7363 22.9516 71.3739 21.9344 71.3771 20.64C71.3726 19.6034 71.5984 18.5787 72.0383 17.64C72.4634 16.7152 73.1571 15.9399 74.0291 15.4152C74.9059 14.8768 75.9163 14.5958 76.9451 14.604C78.0947 14.604 79.0119 14.9036 79.6967 15.5028C80.3815 16.102 80.7671 16.8908 80.8535 17.8692L78.3491 18.1356C78.2883 17.5908 78.1215 17.1908 77.8487 16.9356C77.5574 16.6714 77.1736 16.533 76.7807 16.5504C76.2539 16.5573 75.7481 16.758 75.3599 17.1144C74.9199 17.4936 74.5819 18.0608 74.3459 18.816C74.1219 19.5022 74.003 20.2183 73.9931 20.94C73.9931 21.5152 74.1339 21.9584 74.4155 22.2696C74.5463 22.4202 74.7085 22.5402 74.8908 22.6211C75.0731 22.7019 75.271 22.7417 75.4703 22.7376C75.9171 22.728 76.3472 22.5663 76.6895 22.2792C77.0831 21.9736 77.3887 21.5148 77.6063 20.9028Z" fill="#310744"/>
<path d="M81.84 20.5272C81.84 18.7224 82.3488 17.2824 83.3664 16.2072C84.384 15.132 85.7216 14.5956 87.3792 14.598C88.8192 14.598 89.9416 14.9936 90.7464 15.7848C91.5512 16.576 91.9548 17.6416 91.9572 18.9816C91.9841 20.4871 91.444 21.9478 90.444 23.0736C89.428 24.2256 88.0748 24.8016 86.3844 24.8016C85.5386 24.8181 84.7014 24.6291 83.9448 24.2508C83.2641 23.9115 82.7083 23.3654 82.3572 22.6908C82.0121 22.0221 81.8346 21.2796 81.84 20.5272ZM89.3424 18.6468C89.3424 18.0228 89.1604 17.5228 88.7964 17.1468C88.6142 16.9596 88.3948 16.8127 88.1524 16.7156C87.9099 16.6184 87.6498 16.5732 87.3888 16.5828C86.8383 16.5763 86.303 16.7626 85.8756 17.1096C85.4316 17.4632 85.0864 17.974 84.84 18.642C84.6106 19.2318 84.4863 19.8573 84.4728 20.49C84.4728 21.1876 84.6624 21.7412 85.0416 22.1508C85.2217 22.3501 85.4428 22.5081 85.6897 22.6142C85.9365 22.7202 86.2034 22.7717 86.472 22.7652C87.192 22.7652 87.7976 22.4564 88.2888 21.8388C88.9888 20.9636 89.3384 19.8996 89.3376 18.6468H89.3424Z" fill="#310744"/>
<path d="M94.9607 14.8308H97.5935L95.5535 24.5724H92.9243L94.9607 14.8308ZM95.7311 11.1252H98.3639L97.8683 13.5096H95.2355L95.7311 11.1252Z" fill="#310744"/>
<path d="M100.217 14.8308H102.711L102.455 16.0956C102.975 15.6251 103.564 15.237 104.202 14.9448C104.743 14.7158 105.325 14.599 105.913 14.6016C106.713 14.6016 107.344 14.8308 107.807 15.2892C108.269 15.7476 108.5 16.356 108.499 17.1144C108.499 17.456 108.398 18.1044 108.197 19.0596L107.051 24.5724H104.418L105.574 19.0404C105.746 18.2148 105.831 17.7228 105.83 17.5644C105.838 17.4186 105.816 17.2728 105.765 17.1361C105.713 16.9994 105.634 16.8747 105.533 16.77C105.42 16.6698 105.289 16.5927 105.146 16.5433C105.004 16.4939 104.853 16.4731 104.702 16.482C104.317 16.482 103.889 16.644 103.418 16.968C102.945 17.2944 102.563 17.7364 102.308 18.252C102.112 18.6312 101.892 19.4048 101.647 20.5728L100.813 24.5724H98.1803L100.217 14.8308Z" fill="#310744"/>
</svg>
