<svg width="120" height="36" viewBox="0 0 120 36" fill="none" xmlns="http://www.w3.org/2000/svg">
<path d="M29.9988 16.6452V18.5844C29.916 18.5916 29.472 18.63 28.5852 18.63C27.846 18.63 27.3108 18.5976 27.1248 18.5844V16.6428C24.2712 16.7688 22.14 17.2668 22.14 17.8608C22.14 18.4548 24.27 18.9528 27.1248 19.0788V19.0764C27.3084 19.086 27.8292 19.1064 28.572 19.1064C29.5008 19.1064 29.9172 19.0824 29.9988 19.0764V19.08C32.8464 18.9516 34.9716 18.456 34.9716 17.862C34.9716 17.268 32.8476 16.7724 29.9988 16.644V16.6452Z" fill="#310744"/>
<path d="M28.752 6.30957C22.296 6.30957 17.0616 11.544 17.0616 18C17.0616 24.456 22.296 29.6904 28.752 29.6904C35.208 29.6904 40.4424 24.456 40.4424 18C40.4424 11.544 35.208 6.30957 28.752 6.30957ZM30 19.554V25.1208H27.126V19.554C23.8968 19.404 21.4668 18.7644 21.4668 17.9976C21.4668 17.2308 23.8956 16.5912 27.126 16.4436V14.7072H23.1504V12.0588H33.972V14.7072H29.9964V16.4436L29.9988 16.446C33.2244 16.5948 35.6484 17.2356 35.6484 18C35.6484 18.7644 33.2244 19.4064 29.9988 19.554H30Z" fill="#310744"/>
<path d="M50.3724 12.7824V15.5904H53.1012V17.6976H50.3532V21.9696C50.3532 22.9128 50.874 23.3736 51.6372 23.3736C52.0188 23.3736 52.4604 23.2536 52.8216 23.0724L53.5044 25.1592C52.8036 25.4388 52.2204 25.56 51.4788 25.5804C49.332 25.6608 47.928 24.438 47.928 21.9696V17.6976H46.0824V15.5904H47.928V13.044L50.3736 12.7824H50.3724ZM97.4208 15.4584L97.6008 16.6008C98.364 15.3768 99.3864 15.1968 100.39 15.1968C101.393 15.1968 102.395 15.5976 102.936 16.1388L101.833 18.264C101.332 17.8428 100.871 17.6208 100.068 17.6208C98.784 17.6208 97.6008 18.3036 97.6008 20.1276V25.3428H95.154V15.4536L97.4208 15.4572V15.4584ZM91.4232 19.2492C91.2636 17.9652 90.2604 17.3232 88.8564 17.3232C87.5328 17.3232 86.4492 17.9664 86.088 19.2492H91.4244H91.4232ZM86.0484 21.2748C86.208 22.4988 87.2724 23.382 88.9968 23.382C89.8992 23.382 91.0836 23.04 91.6452 22.4592L93.2088 24.0036C92.166 25.086 90.4608 25.6092 88.956 25.6092C85.5468 25.6092 83.5188 23.502 83.5188 20.334C83.5188 17.166 85.566 15.1584 88.776 15.1584C91.986 15.1584 94.1532 17.2056 93.7716 21.276H86.0484V21.2748ZM75.2568 11.304V16.8C76.14 15.6576 77.2224 15.3156 78.3468 15.3156C81.1548 15.3156 82.3992 17.2212 82.3992 20.1312V25.3464H79.9524V20.1516C79.9524 18.3456 79.0092 17.5848 77.7048 17.5848C76.26 17.5848 75.258 18.8088 75.258 20.2932V25.3488H72.8112V11.3076L75.258 11.3052L75.2568 11.304ZM68.7576 12.6684V15.4764H71.4864V17.5836H68.7384V21.8556C68.7384 22.7988 69.2604 23.2596 70.0224 23.2596C70.404 23.2596 70.8456 23.1396 71.2068 22.9584L71.8896 25.0452C71.1888 25.3248 70.6056 25.446 69.864 25.4664C67.7172 25.5468 66.3132 24.3216 66.3132 21.8556V17.5836H64.4676V15.4764H66.3132V12.93L68.7588 12.6684H68.7576ZM61.9968 19.248C61.8372 17.964 60.834 17.322 59.43 17.322C58.1064 17.322 57.0228 17.9652 56.6616 19.248H61.998H61.9968ZM56.622 21.2736C56.7816 22.4976 57.846 23.3808 59.5704 23.3808C60.4728 23.3808 61.6572 23.0388 62.2188 22.458L63.7824 24.0024C62.7396 25.0848 61.0344 25.608 59.5296 25.608C56.118 25.608 54.0924 23.5008 54.0924 20.3328C54.0924 17.1648 56.1396 15.1572 59.3472 15.1572C62.5548 15.1572 64.722 17.2044 64.3428 21.2748H56.622V21.2736Z" fill="#310744"/>
</svg>
