<svg width="120" height="36" viewBox="0 0 120 36" fill="none" xmlns="http://www.w3.org/2000/svg">
<path d="M16.8828 4.98602C17.1108 5.09282 17.3628 5.09522 17.6028 5.14442C18.2352 5.27282 18.87 5.38442 19.5036 5.50442C20.1036 5.61482 20.7108 5.71922 21.3132 5.83082C22.0632 5.96882 22.812 6.11162 23.562 6.24962C24.162 6.36122 24.762 6.46562 25.3704 6.57722C26.1204 6.71522 26.868 6.85802 27.618 6.99482C28.4736 7.15082 29.3304 7.29842 30.1848 7.45442C31.0392 7.61042 31.8924 7.77842 32.7456 7.93442C33.6528 8.10122 34.5612 8.26082 35.4684 8.42522C35.7252 8.47082 35.9808 8.53082 36.24 8.56322C36.4464 8.58842 36.5472 8.75162 36.6744 8.87042C37.2996 9.45122 37.9092 10.0464 38.5272 10.6356C39.4328 11.4996 40.34 12.3624 41.2488 13.224C41.448 13.4124 41.4576 13.4124 41.286 13.6224C40.7556 14.2716 40.2192 14.916 39.6876 15.564C39.2208 16.1316 38.7564 16.704 38.2896 17.2728C37.8228 17.8416 37.338 18.4236 36.864 19.0008C36.39 19.578 35.9328 20.1408 35.466 20.7096C35.0904 21.1668 34.7124 21.6216 34.3368 22.0776L33.1104 23.5728C32.6376 24.1504 32.1636 24.728 31.6884 25.3056L30.2868 27.0096C29.8068 27.592 29.3296 28.1736 28.8552 28.7544L27.4476 30.48C27.3456 30.6 27.2412 30.72 27.1248 30.8604C26.9388 30.3924 26.7648 29.9388 26.5776 29.4852C25.3992 26.5172 24.22 23.5508 23.04 20.586C20.9992 15.4572 18.9592 10.3288 16.92 5.20082C16.8924 5.13122 16.8744 5.05802 16.8528 4.98602H16.8828ZM30.9708 14.4564C31.0171 14.4721 31.0673 14.4721 31.1136 14.4564C31.5492 14.3784 31.9848 14.298 32.4204 14.2164L37.71 13.2564L39.042 13.0164C39.012 12.9828 39 12.966 38.9856 12.9528C38.0616 12.0756 37.134 11.2008 36.216 10.3128C36.096 10.2 36.0408 10.2048 35.9208 10.3044C34.3312 11.6356 32.7384 12.964 31.1424 14.2896C31.0824 14.34 31.0032 14.3724 30.9744 14.4552L30.9492 14.466C30.9492 14.466 30.9588 14.4744 30.9636 14.4744C30.9684 14.4744 30.9816 14.4684 30.9708 14.4564ZM19.5924 8.09642L19.5624 8.11802L27.0684 27C27.1113 26.8429 27.1402 26.6823 27.1548 26.52C27.3148 25.2176 27.4748 23.9152 27.6348 22.6128C27.7796 21.4128 27.924 20.2128 28.068 19.0128C28.2032 17.8872 28.3408 16.762 28.4808 15.6372C28.4907 15.5858 28.4853 15.5325 28.4653 15.4841C28.4452 15.4357 28.4114 15.3942 28.368 15.3648C25.536 13.0184 22.7044 10.6712 19.8732 8.32322C19.7808 8.24642 19.686 8.17082 19.5924 8.09522V8.09642ZM38.8212 14.466C38.792 14.4641 38.7628 14.4641 38.7336 14.466L36.5496 14.862C34.3656 15.258 32.1812 15.6524 29.9964 16.0452C29.8428 16.0728 29.7864 16.1232 29.7696 16.2852C29.6664 17.2248 29.55 18.162 29.436 19.1004C29.3112 20.1452 29.1848 21.1908 29.0568 22.2372C28.9336 23.2636 28.808 24.2912 28.68 25.32C28.6116 25.8852 28.5444 26.4504 28.4712 27.0624C31.938 22.8468 35.3724 18.6636 38.8212 14.4648V14.466ZM20.5908 7.08002L20.5788 7.11842L21.2868 7.70642C23.854 9.83442 26.4204 11.9628 28.986 14.0916C29.1 14.1864 29.1564 14.1588 29.25 14.0808C30.5892 12.9608 31.93 11.8432 33.2724 10.728L34.5648 9.64802L20.5908 7.08002Z" fill="#310744"/>
<path d="M103.15 25.5528C103.078 25.5528 103.042 25.494 103.006 25.4532C102.751 25.158 102.481 24.8772 102.227 24.5832C102.107 24.438 101.968 24.2988 101.839 24.1572C101.578 23.868 101.31 23.5848 101.062 23.286C100.954 23.1552 100.834 23.0316 100.717 22.9056C100.439 22.6044 100.162 22.3056 99.8963 21.9888C99.7931 21.8688 99.6779 21.7488 99.5723 21.6288C99.2231 21.2316 98.8523 20.85 98.5007 20.4588C98.2139 20.1444 97.9235 19.8312 97.6463 19.506C97.3259 19.1292 96.9863 18.7692 96.6587 18.3972C96.4295 18.138 96.1907 17.8848 95.9591 17.6268C95.6099 17.238 95.2595 16.8504 94.9139 16.4604C94.6919 16.2096 94.4627 15.9612 94.2371 15.7128C93.9755 15.4248 93.7091 15.1416 93.4595 14.8428C93.3395 14.7048 93.2123 14.5764 93.0899 14.442C93.0024 14.3646 92.9272 14.2744 92.8667 14.1744C92.8396 14.2277 92.8311 14.2885 92.8427 14.3472C92.8427 17.7072 92.8427 21.07 92.8427 24.4356C92.8427 24.6456 92.8427 24.6456 92.6255 24.6456C92.2583 24.6456 91.8899 24.6456 91.5215 24.6456C91.4123 24.6456 91.3907 24.612 91.3907 24.5088C91.3907 19.8272 91.3907 15.1472 91.3907 10.4688C91.3907 10.434 91.3907 10.398 91.3907 10.3308C91.6307 10.596 91.8527 10.836 92.0711 11.0772C92.4059 11.4492 92.7371 11.8236 93.0719 12.1968C93.7263 12.9264 94.3815 13.6556 95.0375 14.3844C95.4515 14.8452 95.8691 15.3024 96.2843 15.7632C96.8339 16.3752 97.3811 16.9908 97.9319 17.6028C98.2523 17.9628 98.5775 18.3108 98.8979 18.6672C99.4523 19.2828 100.003 19.902 100.558 20.5176C100.918 20.9112 101.278 21.3012 101.665 21.7308V21.498C101.665 18.138 101.665 14.7808 101.665 11.4264C101.665 11.2824 101.696 11.2368 101.849 11.2404C102.281 11.2512 102.714 11.2404 103.146 11.2404L103.15 25.5528Z" fill="#310744"/>
<path d="M72.7752 24.6504C72.2544 24.6504 71.7348 24.6504 71.2152 24.6504C71.1192 24.6504 71.0844 24.6012 71.0472 24.5304C70.8408 24.1344 70.6328 23.7388 70.4232 23.3436C70.1172 22.7628 69.8124 22.1808 69.504 21.6C69.1548 20.94 68.8008 20.28 68.4576 19.62C68.4376 19.5691 68.4013 19.5262 68.3545 19.498C68.3076 19.4698 68.2527 19.4579 68.1984 19.464C67.1976 19.4704 66.1976 19.4704 65.1984 19.464C65.0712 19.464 65.0364 19.4964 65.0364 19.626C65.0364 21.2424 65.0364 22.8588 65.0364 24.4752C65.0364 24.6192 65.0016 24.654 64.86 24.6504C64.482 24.6396 64.1028 24.6432 63.7236 24.6504C63.6276 24.6504 63.5964 24.63 63.5964 24.5304C63.5964 22.4008 63.5964 20.2708 63.5964 18.1404C63.5964 18.0072 63.6552 18.0096 63.7512 18.0096C65.3736 18.0096 66.9972 18.0096 68.6208 18.0096C69.438 18.0096 70.0968 17.6712 70.6284 17.0856C70.9516 16.7282 71.1606 16.2823 71.2284 15.8052C71.2852 15.4575 71.2726 15.102 71.1911 14.7592C71.1096 14.4164 70.9609 14.0932 70.7537 13.8083C70.5464 13.5233 70.2847 13.2824 69.9837 13.0993C69.6827 12.9162 69.3483 12.7946 69 12.7416C68.8258 12.7176 68.6501 12.7067 68.4744 12.7092C66.516 12.7092 64.5564 12.7092 62.5944 12.7092C62.4612 12.7092 62.4276 12.738 62.4276 12.8748C62.4276 16.7236 62.4276 20.5728 62.4276 24.4224C62.4276 24.6564 62.4276 24.6564 62.1876 24.6564C61.836 24.6564 61.4844 24.6564 61.1328 24.6564C61.0212 24.6564 60.9864 24.6312 60.9876 24.5148C60.9876 23.9472 60.9876 23.3796 60.9876 22.812C60.9876 19.0224 60.9876 15.2324 60.9876 11.442C60.9876 11.2944 61.0116 11.2452 61.1748 11.2464C63.6636 11.2464 66.1524 11.2464 68.6424 11.2536C69.2166 11.2449 69.7859 11.3608 70.311 11.5932C70.8362 11.8257 71.3047 12.1691 71.6844 12.6C72.2411 13.2019 72.5949 13.9632 72.696 14.7768C72.8235 15.7065 72.6318 16.6518 72.1522 17.4584C71.6727 18.2649 70.9336 18.8849 70.056 19.2168C69.96 19.2528 69.936 19.2684 69.9912 19.368C70.6464 20.592 71.2984 21.8172 71.9472 23.0436C72.2088 23.538 72.47 24.032 72.7308 24.5256C72.757 24.5622 72.7724 24.6055 72.7752 24.6504Z" fill="#310744"/>
<path d="M81.8832 24.6444C78.1908 24.618 75.6096 21.7068 75.2976 18.744C75.0852 16.7136 75.6396 14.904 77.0256 13.4016C78.4116 11.8992 80.1708 11.1888 82.2192 11.25C83.9842 11.3108 85.6537 12.066 86.8647 13.3513C88.0758 14.6367 88.7303 16.3482 88.6861 18.1136C88.6418 19.879 87.9022 21.5556 86.6283 22.7786C85.3543 24.0016 83.649 24.6721 81.8832 24.6444ZM87.2244 17.9496C87.2059 16.5697 86.6453 15.2525 85.6638 14.2825C84.6822 13.3125 83.3585 12.7676 81.9785 12.7653C80.5985 12.7631 79.273 13.3039 78.2884 14.2707C77.3038 15.2376 76.739 16.553 76.716 17.9328C76.7088 20.8128 79.068 23.19 81.9216 23.19C82.6146 23.1965 83.3019 23.0658 83.9441 22.8055C84.5864 22.5452 85.1708 22.1605 85.6636 21.6734C86.1565 21.1863 86.5482 20.6065 86.8161 19.9674C87.0839 19.3283 87.2227 18.6425 87.2244 17.9496Z" fill="#310744"/>
<path d="M52.1783 11.2464C54.0827 11.2464 55.9859 11.2464 57.8903 11.2464C58.0283 11.2464 58.0583 11.2824 58.0547 11.4144C58.0451 11.7924 58.0487 12.1716 58.0547 12.5496C58.0547 12.6564 58.0367 12.6972 57.9167 12.6972C54.0863 12.6972 50.2567 12.6972 46.4279 12.6972C46.3163 12.6972 46.2947 12.6612 46.2959 12.5592C46.3019 12.1812 46.3043 11.802 46.2959 11.424C46.2959 11.2884 46.3187 11.2452 46.4675 11.2464C48.3707 11.2488 50.2799 11.2464 52.1783 11.2464Z" fill="#310744"/>
<path d="M51.5905 19.92C51.5905 21.44 51.5905 22.96 51.5905 24.48C51.5905 24.6156 51.5592 24.6504 51.4236 24.6468C51.0456 24.6372 50.6664 24.6396 50.2872 24.6468C50.1828 24.6468 50.1396 24.6324 50.1396 24.51C50.1396 21.4604 50.1396 18.4116 50.1396 15.3636C50.1396 15.2556 50.1697 15.228 50.2741 15.2292C50.6641 15.2292 51.0541 15.2376 51.4429 15.2292C51.5737 15.2292 51.5892 15.2712 51.588 15.384C51.588 16.8976 51.5889 18.4096 51.5905 19.92Z" fill="#310744"/>
<path d="M54.1932 19.9416C54.1932 21.4536 54.1932 22.9664 54.1932 24.48C54.1932 24.6132 54.1644 24.6516 54.0276 24.648C53.6496 24.6372 53.2704 24.6408 52.8924 24.648C52.7808 24.648 52.7472 24.6264 52.7472 24.5088C52.7472 21.4608 52.7472 18.4132 52.7472 15.366C52.7472 15.2628 52.77 15.228 52.8792 15.2304C53.2632 15.2304 53.6472 15.2376 54.0312 15.2304C54.1512 15.2304 54.192 15.258 54.192 15.3876C54.1904 16.9052 54.1908 18.4232 54.1932 19.9416Z" fill="#310744"/>
<path d="M94.0392 17.3856C94.5096 17.9076 94.9692 18.42 95.4312 18.9288C95.4502 18.9507 95.4647 18.9763 95.4735 19.0039C95.4824 19.0316 95.4855 19.0607 95.4828 19.0896C95.4828 20.8992 95.4828 22.7092 95.4828 24.5196C95.4828 24.6288 95.4492 24.654 95.3448 24.6528C94.9452 24.6468 94.5456 24.6528 94.1448 24.6528C94.068 24.6528 94.0164 24.6528 94.0164 24.5484C94.0164 22.1756 94.0164 19.804 94.0164 17.4336C94.0213 17.4165 94.029 17.4003 94.0392 17.3856Z" fill="#310744"/>
<path d="M30.9708 14.4564C30.9816 14.4684 30.978 14.4768 30.9636 14.4792C30.9492 14.4816 30.954 14.4792 30.9492 14.4708L30.9744 14.46L30.9708 14.4564Z" fill="#310744"/>
<path d="M81.972 18.9084C81.7213 18.8995 81.4837 18.7937 81.3094 18.6132C81.1351 18.4326 81.0377 18.1915 81.0377 17.9406C81.0377 17.6896 81.1351 17.4485 81.3094 17.268C81.4837 17.0874 81.7213 16.9816 81.972 16.9728C82.2228 16.9816 82.4604 17.0874 82.6347 17.268C82.8089 17.4485 82.9064 17.6896 82.9064 17.9406C82.9064 18.1915 82.8089 18.4326 82.6347 18.6132C82.4604 18.7937 82.2228 18.8995 81.972 18.9084Z" fill="#310744"/>
</svg>
